<?xml version="1.0" standalone="no"?>
<!DOCTYPE svg PUBLIC "-//W3C//DTD SVG 1.1//EN" "http://www.w3.org/Graphics/SVG/1.1/DTD/svg11.dtd" >
<svg xmlns="http://www.w3.org/2000/svg" xmlns:xlink="http://www.w3.org/1999/xlink" version="1.1">
<metadata>
Created by FontForge 20190801 at Mon Nov  2 08:40:58 2020
 By www-data
Typeface (c) Galdino Otten Fonts. 2020. All Rights Reserved
</metadata>
<defs>
<font id="SoftMarshmallowTurbo" horiz-adv-x="1014" >
  <font-face 
    font-family="SoftMarshmallowTurbo"
    font-weight="400"
    font-stretch="normal"
    units-per-em="2048"
    panose-1="2 0 5 0 0 0 0 0 0 0"
    ascent="1638"
    descent="-410"
    x-height="860"
    cap-height="1355"
    bbox="-359.778 -429.018 2284.16 1851.33"
    underline-thickness="150"
    underline-position="-292"
    unicode-range="U+001D-F002"
  />
<missing-glyph horiz-adv-x="1497" 
d="M737 -62q-143 -1 -274 54.5t-226 149.5t-151.5 223t-56.5 269q0 141 56.5 270.5t151.5 222.5t226 148.5t274 55.5t274.5 -55.5t226.5 -149t151.5 -222.5t55.5 -270q1 -140 -55.5 -269t-151.5 -223t-226.5 -149.5t-274.5 -54.5zM737 1246q-168 0 -311.5 -82t-227 -223
t-83.5 -307q-1 -165 83 -306t228 -223.5t311 -81.5q169 0 312 82t226.5 222.5t83.5 306.5t-83.5 307t-226.5 223t-312 82zM872 318q14 -44 -11 -86t-93 -53q-141 -14 -167 54q-15 40 5 81q19 40 99 58q62 12 107.5 -1.5t59.5 -52.5zM978 988q-37 56 -107.5 82.5t-146 20.5
t-136.5 -38q-58 -30 -107 -91q-46 -58 -38 -124q4 -30 23.5 -56.5t48.5 -34.5q24 -4 47.5 7.5t38.5 31.5q6 8 14 25q61 124 132 118q48 -3 64.5 -21t8.5 -70q-10 -48 -49 -80q-40 -34 -70 -50q-4 -3 -10.5 -7t-9.5 -6q-33 -22 -53 -65q-8 -14 -15 -43.5t-6.5 -67t14.5 -58.5
q30 -36 104 -31.5t88 31.5q4 8 0 21q-4 10 -7 38q-6 57 14 84q14 17 49 22q13 2 43 11q30 10 58.5 39.5t49 73.5t12 108t-53.5 130z" />
    <glyph glyph-name=".notdef" horiz-adv-x="1497" 
d="M737 -62q-143 -1 -274 54.5t-226 149.5t-151.5 223t-56.5 269q0 141 56.5 270.5t151.5 222.5t226 148.5t274 55.5t274.5 -55.5t226.5 -149t151.5 -222.5t55.5 -270q1 -140 -55.5 -269t-151.5 -223t-226.5 -149.5t-274.5 -54.5zM737 1246q-168 0 -311.5 -82t-227 -223
t-83.5 -307q-1 -165 83 -306t228 -223.5t311 -81.5q169 0 312 82t226.5 222.5t83.5 306.5t-83.5 307t-226.5 223t-312 82zM872 318q14 -44 -11 -86t-93 -53q-141 -14 -167 54q-15 40 5 81q19 40 99 58q62 12 107.5 -1.5t59.5 -52.5zM978 988q-37 56 -107.5 82.5t-146 20.5
t-136.5 -38q-58 -30 -107 -91q-46 -58 -38 -124q4 -30 23.5 -56.5t48.5 -34.5q24 -4 47.5 7.5t38.5 31.5q6 8 14 25q61 124 132 118q48 -3 64.5 -21t8.5 -70q-10 -48 -49 -80q-40 -34 -70 -50q-4 -3 -10.5 -7t-9.5 -6q-33 -22 -53 -65q-8 -14 -15 -43.5t-6.5 -67t14.5 -58.5
q30 -36 104 -31.5t88 31.5q4 8 0 21q-4 10 -7 38q-6 57 14 84q14 17 49 22q13 2 43 11q30 10 58.5 39.5t49 73.5t12 108t-53.5 130z" />
    <glyph glyph-name="uni0000" horiz-adv-x="0" 
 />
    <glyph glyph-name="uni0000" horiz-adv-x="0" 
 />
    <glyph glyph-name="nonmarkingreturn" horiz-adv-x="682" 
 />
    <glyph glyph-name="space" unicode=" " horiz-adv-x="508" 
 />
    <glyph glyph-name="space" unicode="&#xa0;" horiz-adv-x="508" 
 />
    <glyph glyph-name="exclam" unicode="!" horiz-adv-x="636" 
d="M530 233q22 -69 -19 -142q-41 -72 -150 -87q-95 -10 -173 7q-76 17 -98 81q-25 68 7 135q33 65 162 94q95 19 171 -2q76 -19 100 -86zM208 415q-53 28 -86 140l43 484q1 90 -3 142q-5 43 -0.5 74t24.5 53q52 50 139 52q88 2 163 -41q18 -10 50 -37q29 -25 46 -71
q9 -40 3 -66.5t-29 -77.5q-20 -42 -49 -125q-43 -148 -54 -236q-15 -110 -16 -156q-2 -52 -9.5 -78.5t-27.5 -45.5q-38 -32 -94 -34t-100 23z" />
    <glyph glyph-name="quotedbl" unicode="&#x22;" horiz-adv-x="502" 
d="M42 1158q-16 88 -36 150q-14 43 -19 69t-2 52.5t18 47.5q18 23 51 37.5t67.5 16.5t65.5 -16t43 -56q17 -62 -9 -128q-22 -57 -26 -89q-5 -31 -7 -59q-1 -36 -18 -47q-9 -7 -28.5 -12t-40.5 -5.5t-38.5 9.5t-20.5 30zM332 1158q-14 85 -35 150q-14 43 -19 69t-2 52.5
t18 47.5q24 31 71 46.5t93.5 0t62.5 -64.5q17 -62 -9 -128q-22 -57 -26 -89q-6 -29 -8 -59q-2 -37 -18 -47q-9 -7 -28.5 -12t-40.5 -5.5t-38.5 9.5t-20.5 30z" />
    <glyph glyph-name="numbersign" unicode="#" horiz-adv-x="1415" 
d="M1250 546q57 -23 56 -70q0 -47 -37 -96q-35 -48 -84 -74q-56 -22 -237 -13v-22q2 -31 -9.5 -72t-34.5 -76q-39 -56 -98 -71.5t-106 3.5t-62 56q-9 44 52 201q-9 1 -67.5 6t-87.5 8q-1 -13 -1 -42q2 -31 -9 -72t-34 -76q-39 -56 -98 -71.5t-106 3.5t-62 56q-10 44 56 213
q-57 -12 -90.5 -16.5t-65 -0.5t-50.5 21q-21 20 -26.5 55.5t5.5 72.5t45.5 68.5t85.5 42.5q45 8 85.5 3.5t69.5 -17.5q15 -8 30 -12q8 18 27 63t29 69q-8 -2 -13 -3q-59 -12 -93 -16.5t-67 -0.5t-52 21q-21 20 -26.5 55t5.5 72t45.5 69t85.5 43q85 16 156 -15q21 -9 49 -18
q13 33 15 43q1 3 1 11t1 11q3 73 16.5 117.5t50.5 77.5q42 35 102 51t106 -3t43 -77q-2 -35 -20.5 -76.5t-43.5 -70.5q-45 -60 -67 -103q-1 -1 -3 -5q133 -6 205 -7q22 51 23 61q1 7 1 21q4 74 17.5 118.5t50.5 77.5q42 35 102 50.5t106 -3.5t43 -76q-3 -36 -21.5 -77
t-42.5 -70q-41 -56 -61 -94q25 5 74 17q93 26 162 4q55 -19 56 -68.5t-36 -98t-85 -73.5q-64 -24 -266 -11q-23 -60 -42 -117q27 4 84 19q93 26 163 4zM585 524q122 -6 188 -7q40 94 60 139q-81 6 -186 17h-9q-5 -12 -53 -149z" />
    <glyph glyph-name="dollar" unicode="$" horiz-adv-x="1208" 
d="M1100 805q39 -42 51 -100t-1.5 -117t-39.5 -114t-61 -100q-112 -140 -320 -193q-49 -10 -103 -15q0 -33 -4 -58q-9 -62 -29 -92t-43 -26.5t-45 27.5t-35 62q-7 21 -10 92q-132 18 -232 71q-98 54 -127 132q-18 68 12 134q32 67 91 86q57 11 113 -17q55 -26 93 -53
q26 -17 49 -38q2 126 4 190q-90 -4 -174 18q-84 23 -136 67q-42 37 -55 94.5t-6.5 106t28 108t31.5 79.5t22 42q23 45 77 110q51 60 150 101q24 9 58 16q-6 80 12 140q13 37 35 61t45 27.5t43 -26.5t29 -92q6 -48 4 -107q167 -30 278 -125q7 -5 21.5 -18t37 -37t37.5 -48
t23.5 -51.5t-5.5 -47.5q-31 -44 -123 -52q-89 -7 -176 26q-49 21 -99 71q-7 8 -21 22q-3 -54 -5 -253q90 -2 132 1q20 1 55 1q19 0 48 -3t82 -11.5t104.5 -32t84.5 -58.5zM400 954q20 -28 69 -35q1 15 1 43q4 118 6 195q-35 -24 -58 -63t-28 -79q-8 -36 10 -61zM771 559
q6 51 -16.5 97t-66.5 61q-38 9 -90 -13q-1 -1 -4 -1q2 -190 5 -234q1 -28 6 -67q58 11 105 53q49 43 61 104z" />
    <glyph glyph-name="percent" unicode="%" horiz-adv-x="1493" 
d="M1403 541q38 -65 57 -151t-2 -174q-19 -86 -102 -148q-72 -50 -175 -64q-101 -12 -186 30q-92 54 -115 152q-21 99 -18 205q-4 74 8 144q12 69 72 121q96 78 234 63q99 -19 153 -79q55 -60 74 -99zM1202 190q35 55 37 136q1 81 -27 144q-6 18 -31 48.5t-50 23.5
q-34 -9 -51 -82.5t-17 -144.5q-1 -40 3 -88q5 -49 30 -74q25 -22 56 -7q30 15 50 44zM607 1240q29 -50 46.5 -110.5t20.5 -127t-25.5 -130t-87.5 -105.5q-74 -52 -176 -64q-100 -12 -185 30q-93 53 -116 152q-21 99 -18 205q-4 74 8 144q14 69 72 121q96 78 234 63
q99 -19 153 -79q55 -60 74 -99zM406 889q35 55 37 136q1 81 -27 144q-6 18 -30.5 48t-50.5 24q-33 -9 -49.5 -80.5t-18.5 -146.5q-1 -32 4 -88q4 -48 29 -74q25 -22 56 -7q30 15 50 44zM572 262q-30 -47 -72 -145q-46 -112 -126 -188q-72 -61 -124 -51.5t-79 61.5t-16 112
q12 45 104 174q86 122 217 287q131 166 238 298q171 211 186 238l15 30q49 103 87 159.5t88 83.5q54 29 111.5 18.5t82 -57t-12.5 -133.5q-25 -51 -66 -100q-40 -47 -76 -77q-78 -68 -117 -111q-41 -46 -132 -167q-126 -170 -188 -257q-94 -131 -120 -175z" />
    <glyph glyph-name="ampersand" unicode="&#x26;" horiz-adv-x="1348" 
d="M1132 379q123 -36 177 -107q54 -70 43 -115q-14 -52 -94 -109.5t-107 -59.5q-63 -4 -96 22q-30 25 -53 69q-46 78 -104 114q3 -10 -53 -54q-54 -42 -148 -90q-92 -47 -196 -60q-104 -14 -199 36q-146 89 -209 243t-16 283q18 42 55 88t62.5 69.5t33.5 28.5q14 11 35.5 26
t36 24.5t13.5 8.5q-48 83 -82 188q-32 103 -2 217q2 8 9 22.5t28 42t48.5 52.5t76 50t106.5 38q120 26 227 -15q107 -40 154 -129q108 -231 23 -378q-9 -17 -20.5 -32.5t-22.5 -28t-26 -25t-25 -21t-26 -18t-24 -14.5t-23 -12t-18 -8.5t-15 -6t-9 -3.5l-2 -1h-1
q89 -142 113.5 -152t74.5 73q2 4 3 5q39 67 64 80q54 24 119 1q66 -23 97 -76q16 -29 18.5 -67t-4.5 -72t-16 -63t-17.5 -47t-8.5 -17zM501 1111q-15 -69 43 -135q2 -1 23.5 9.5t48 28t49.5 42.5t28 52.5t-17 57.5q-23 25 -64 23q-40 -1 -72 -21q-29 -21 -39 -57zM423 328
q30 -25 58 -31t51 6t36 23t29 30t23 19q-54 49 -82 93q-13 23 -48 64l-10 -6q-10 -5 -25 -15.5t-31 -24.5t-27.5 -32.5t-16 -38t6 -42.5t36.5 -45z" />
    <glyph glyph-name="quotesingle" unicode="'" horiz-adv-x="223" 
d="M45 1158q-17 88 -36 150q-14 43 -19 69t-2 52.5t18 47.5q18 23 51 37.5t67.5 16.5t65.5 -16t43 -56q17 -62 -9 -128q-22 -57 -26 -89q-5 -31 -7 -59q-1 -36 -18 -47q-9 -7 -28.5 -12t-40.5 -5.5t-38.5 9.5t-20.5 30z" />
    <glyph glyph-name="parenleft" unicode="(" horiz-adv-x="633" 
d="M129 781q11 109 33 251q24 146 76 279q52 135 150 219q133 106 225 45q30 -19 60 -61q29 -41 30 -91q-1 -33 -17.5 -57.5t-54.5 -58.5q-45 -38 -105 -113l-4 -6q-4 -5 -11.5 -17t-17 -27.5t-21.5 -37t-23 -45t-23 -53t-22 -59.5q-54 -161 -54 -368q2 -165 51 -319
q26 -73 65 -153q40 -81 119 -274q42 -114 9 -173t-96 -71q-62 -12 -111 14q-88 58 -141 179q-52 118 -78 248q-23 115 -35 215q-7 33 -16 178q-7 142 12 356z" />
    <glyph glyph-name="parenright" unicode=")" horiz-adv-x="646" 
d="M514 781q19 -208 11 -357q-7 -142 -15 -178q-9 -73 -37 -215q-27 -133 -77 -248q-51 -119 -140 -178q-48 -27 -111 -15q-62 12 -97 71q-33 59 10 173q86 209 119 274q36 74 64 154q51 154 51 319q1 206 -53 368q-10 29 -22.5 58.5t-24 53t-23 45t-21 37t-17 27.5
t-11.5 18l-4 5q-61 79 -104 113q-37 33 -54 58t-18 58q2 52 30 92q30 42 60 61q93 63 224 -46q98 -83 150 -219q54 -139 76 -278q23 -135 34 -251z" />
    <glyph glyph-name="asterisk" unicode="*" horiz-adv-x="628" 
d="M600 1334q40 -11 52.5 -42.5t0 -64.5t-38.5 -50q-17 -11 -39.5 -13t-43 2t-56.5 13q-3 1 -58 14q1 -1 3 -4q18 -21 54 -50q44 -31 58 -81q10 -37 -14.5 -64t-60 -31t-65.5 5q-27 12 -40.5 37t-27.5 75q-2 10 -13 42q-7 -22 -12 -42q-14 -50 -27.5 -75t-40.5 -37
q-30 -9 -65.5 -5t-60 31t-14.5 64q14 50 58 81q36 29 54 50q1 1 3 4q-55 -13 -58 -14q-36 -9 -56.5 -13t-43 -2t-39.5 13q-26 17 -38.5 50t0 64.5t52.5 42.5q50 12 105 -6q37 -13 65 -16q-17 16 -33 30q-40 36 -57 59.5t-14 50.5q4 30 28.5 56t58 32t68.5 -21q39 -37 46 -87
q12 -50 20 -67q1 -1 1 -2v-1q1 0 1 1t1 2q8 17 20 67q7 50 46 87q35 27 68.5 21t58 -32t28.5 -56q3 -27 -14 -50.5t-57 -59.5q-17 -14 -33 -30q28 3 65 16q55 18 105 6z" />
    <glyph glyph-name="plus" unicode="+" horiz-adv-x="873" 
d="M797 880q57 -43 79 -112q23 -70 -5 -118q-16 -30 -71 -34q-54 -4 -184 3q-23 0 -34 1q-3 -114 -15 -168q-10 -53 -47 -82q-42 -33 -98 -44q-54 -9 -92 17q-23 19 -25 58t11 97q9 44 17 130q-122 1 -186 13q-58 12 -87 50q-33 41 -44 97q-9 54 17 92q19 24 58 26t97 -11
q68 -13 139 -19q-1 8 -10 65q-13 52 -11 92t24 74q43 57 112 79q70 23 118 -5q29 -16 34 -72q5 -61 -2 -184q-1 -6 -1.5 -19t-0.5 -19q25 3 41 7q51 12 92 10t74 -24z" />
    <glyph glyph-name="comma" unicode="," horiz-adv-x="467" 
d="M192 332q68 1 118 -18t75.5 -50t38.5 -71.5t13 -81.5t-6.5 -81t-16.5 -68.5t-19 -45.5q-43 -69 -121 -100q-75 -31 -141 -28q-62 3 -67 32q0 34 14.5 49.5t41.5 23.5q33 11 56 33t36 70q-103 -31 -152 3q-49 35 -62 99q-21 82 23 154q43 72 169 80z" />
    <glyph glyph-name="hyphen" unicode="-" horiz-adv-x="729" 
d="M101 615q27 12 49 10.5t68 -13.5q141 -26 129 -38h32q101 7 155 26q37 11 56 12t45 -12q49 -38 56 -107q8 -71 -29 -113q-15 -17 -49 -18q-25 -1 -115 7q-5 1 -15.5 1.5t-15.5 0.5q-150 19 -211 -6q-74 -20 -128 -5q-75 26 -98 80q-17 51 5 100q23 51 66 75z" />
    <glyph glyph-name="hyphen" unicode="&#xad;" horiz-adv-x="729" 
d="M101 615q27 12 49 10.5t68 -13.5q141 -26 129 -38h32q101 7 155 26q37 11 56 12t45 -12q49 -38 56 -107q8 -71 -29 -113q-15 -17 -49 -18q-25 -1 -115 7q-5 1 -15.5 1.5t-15.5 0.5q-150 19 -211 -6q-74 -20 -128 -5q-75 26 -98 80q-17 51 5 100q23 51 66 75z" />
    <glyph glyph-name="period" unicode="." horiz-adv-x="469" 
d="M439 233q22 -69 -19 -142q-40 -72 -150 -87q-95 -10 -173 7q-76 17 -98 81q-25 68 7 135q33 65 162 94q95 19 171 -2q76 -19 100 -86z" />
    <glyph glyph-name="slash" unicode="/" horiz-adv-x="773" 
d="M351 280q-18 -57 -31 -154q-16 -119 -74 -200q-54 -66 -110 -55t-96 65q-39 52 -47 119q-1 48 55 187q53 129 137 306q112 231 155 317q115 233 120 254q4 22 6 32q21 112 43 172t64 88q27 18 61.5 21.5t67.5 -8.5t59.5 -35.5t38.5 -66t2 -95.5q-11 -52 -37 -104t-55 -84
q-61 -73 -86 -119q-25 -43 -85 -179q-60 -135 -117 -273q-58 -141 -71 -188z" />
    <glyph glyph-name="zero" unicode="0" horiz-adv-x="1141" 
d="M973 1084q61 -126 91 -302q31 -173 -2 -348q-33 -174 -165 -295q-120 -103 -282 -129q-161 -24 -298 60q-44 28 -78 69.5t-56 82.5t-38 102t-24 106t-12.5 118.5t-5 115.5t-1.5 120q-6 154 13 288q19 136 116 243q72 75 170 109q101 36 206 17q45 -8 86.5 -28t72.5 -43
t62 -57.5t50 -60t41 -64.5t30.5 -56t23.5 -48zM650 383q56 112 59 272q3 162 -43 287q-9 21 -15.5 35t-26.5 49t-43 51.5t-46 9.5q-40 -18 -64 -98q-25 -82 -35 -180q-10 -96 -10 -177q-3 -75 5 -175q8 -97 48 -149q41 -43 90 -14q48 30 81 89z" />
    <glyph glyph-name="one" unicode="1" horiz-adv-x="1141" 
d="M789 352q25 -75 53 -114q33 -53 33 -95q-5 -63 -44.5 -100t-95.5 -40q-186 -10 -258 11q-70 23 -86 94q-11 37 28 96q44 67 58 136q36 204 5 417q-15 99 -5 164q1 2 0 2l-3 -4q-6 -11 -13 -21.5t-25.5 -25.5t-40 -21.5t-55.5 -1.5t-72 27q-44 25 -57.5 64.5t14.5 86.5
q17 24 35 35t44 17q32 7 87 40q45 35 65 103q6 90 54 150q49 61 117 61q72 0 121 -67q51 -66 51 -160q0 -3 -0.5 -14.5t-1 -34.5t-0.5 -48q-1 -31 -3 -127t-4 -159q-3 -106 -5 -309q-1 -135 4 -162z" />
    <glyph glyph-name="two" unicode="2" horiz-adv-x="1141" 
d="M1033 236q11 -65 -14 -131q-24 -67 -83 -96q-47 -20 -113 17q-21 11 -59 26q-115 14 -226 2q-111 -10 -194 -27q-74 -15 -119 -15q-41 0 -69 18q-33 17 -61 103q-15 51 -16 99t12.5 89.5t34.5 78.5t54 72t66.5 64t76.5 60q212 149 312 289q43 53 53 108q11 57 -65 130
q-34 29 -86 28q-50 -1 -91 -28q-54 -38 -56 -140q-2 -86 -39 -110q-23 -11 -52.5 -9t-61.5 21t-58 44.5t-43 62.5t-17 75q0 77 53 169q52 91 167 150q114 59 296 33q77 -12 139 -40.5t111 -78t74.5 -120.5t29.5 -168t-25 -220q-12 -53 -42 -100t-62 -77.5t-82 -61.5
t-80.5 -45.5t-78.5 -35.5q-2 -1 -8 -3.5t-9 -4.5q-42 -19 -90 -59q-44 -37 -70 -78l2 1q1 0 3.5 1.5t5.5 2.5q28 13 115 45q82 30 182 42q98 12 178 -26q79 -37 105 -157z" />
    <glyph glyph-name="three" unicode="3" horiz-adv-x="1141" 
d="M1064 507q11 -64 -6 -130t-54 -119.5t-79.5 -96t-88.5 -72.5q-152 -93 -327 -77q-173 16 -293 139q-86 94 -115 228t30 192q45 38 115 32q72 -6 121 -51q37 -37 45 -109q7 -71 45 -111q48 -46 120 -54q71 -7 137 34q26 20 38 79q13 57 7 118q-5 60 -32 80q-47 30 -129 13
q-79 -17 -129 9q-44 24 -69 70q-26 47 -15 93q12 38 40 57q31 21 42 25q45 21 96 19q50 16 83.5 55.5t36.5 91.5q2 71 -40 121q-42 51 -113 59q-67 4 -122 -40q-53 -44 -59 -113q0 -25 4 -44q-9 -63 -45 -82q-38 -19 -91.5 6.5t-91.5 80.5t-33 113q4 73 65 156
q60 82 178 127q117 46 298 8q76 -17 139.5 -52.5t111.5 -90.5t71.5 -124t14 -159.5t-56.5 -190.5q-11 -24 -41 -46q69 -41 122 -99t70 -145z" />
    <glyph glyph-name="four" unicode="4" horiz-adv-x="1141" 
d="M1144 805q20 -19 9 -101.5t-30 -103.5q-16 -14 -141 -62q4 -159 11 -309q9 -162 -18 -200q-26 -42 -76.5 -62.5t-78.5 -22t-44 0.5q-93 11 -165 75q-71 64 -88 152q-6 31 0.5 57t26.5 68q22 47 54 138q-146 -26 -274 -17q-131 9 -213 76q-84 68 -85 215q2 57 21 171
q13 78 25 179q11 94 4 148q-7 49 2.5 85t31 55t51.5 30t65 10t71 -6q156 -27 167 -93q0 -42 -28 -150q-17 -69 -27.5 -119t-20 -114.5t-4.5 -111t24 -71.5q42 -52 250 -10q5 108 5 231q0 74 2 172q4 118 19 172q15 50 40 66q51 35 133 15q70 -15 135 -65t72 -119
q3 -43 -38 -95q-49 -66 -58 -139q-1 -15 2 -163q135 35 168 18z" />
    <glyph glyph-name="five" unicode="5" horiz-adv-x="1141" 
d="M462 786q69 24 137.5 33t143.5 1t143 -50.5t115 -118.5q27 -44 32 -133q6 -88 -24 -190q-16 -52 -41.5 -97.5t-64.5 -89t-93.5 -74t-122.5 -49.5t-158.5 -18.5t-194.5 21.5q-119 30 -191 128q-71 99 -43 175q26 48 89 72q66 24 127 8q51 -19 81 -70q36 -56 82 -70
q59 -18 127 5q69 24 109 81q28 41 32.5 88.5t-21.5 94.5q-2 6 -13 17t-35.5 24.5t-51.5 16.5q-61 3 -167 -11q-14 -2 -39 -6t-44.5 -7.5t-36.5 -6.5q-66 -12 -71 -14q-81 72 -106 178q-24 104 -19 206q6 104 16 156q0 2 0.5 6.5t1.5 6.5q16 79 155 135q141 57 319 67
q181 12 330 -42q42 -17 69 -69.5t20 -105t-52 -68.5q-63 -18 -220 -26q-124 -6 -263 -8q-69 -2 -75 -3q7 -8 5 -47q-5 -58 13 -146z" />
    <glyph glyph-name="six" unicode="6" horiz-adv-x="1141" 
d="M810 57q-27 -12 -132 -30q-109 -17 -236 -7q-131 11 -239 84q-107 74 -140 243q-45 295 7 495q52 199 158 322q104 120 219 176q114 56 192 57q134 8 241 -54q108 -62 147 -206q13 -56 -18 -119t-92.5 -94.5t-124.5 0.5q-40 19 -71.5 76t-10.5 87q17 23 56 23q14 0 25 3
q-125 62 -205 35q-79 -27 -126 -107q-46 -79 -67 -176q-22 -99 -26 -174q-5 -85 -4 -101q13 19 89 82q74 62 180 111q105 49 220 32q112 -16 207 -154q50 -85 40 -184q-9 -98 -48 -187q-20 -54 -53 -103q-77 -102 -188 -130zM541 510q-69 -25 -98.5 -56.5t-20.5 -59.5
t38 -50.5t71 -34.5q77 -23 144 9q81 41 63 174q-5 31 -42 39t-76 0.5t-79 -21.5z" />
    <glyph glyph-name="seven" unicode="7" horiz-adv-x="1142" 
d="M1035 1145q-13 -97 -62 -170q-47 -72 -114 -147q-142 -158 -232 -325q-63 -113 -59 -201q5 -78 51 -153q36 -62 26 -99q-23 -58 -106 -77q-82 -21 -169 8q-8 3 -19 8t-37 21.5t-47.5 36t-43.5 52.5t-32 71q-18 66 19 153.5t181 325.5q173 298 290 432q-4 -2 -7 -3
q-32 -16 -114 -48q-82 -31 -182 -45q-100 -12 -179 28q-80 41 -105 167q-11 69 14 139q26 73 83 104q16 11 38 9t36.5 -8t38.5 -19q31 -16 60 -29q114 -15 225 -2q125 15 195 29q76 17 118 17q40 0 69 -20q33 -17 62 -110q9 -33 5 -68q4 -39 -3 -77z" />
    <glyph glyph-name="eight" unicode="8" horiz-adv-x="1141" 
d="M1047 531q8 -137 -65 -260q-72 -124 -163 -187q-131 -89 -249 -84q-55 3 -128 24q-74 21 -132 60q-92 63 -161 179q-71 120 -67 268q3 54 20 99t37 72.5t55 54.5t56.5 38.5t60.5 30.5q32 14 65 35q-4 3 -18 9q-23 9 -38.5 16.5t-44 29t-46 47t-31.5 70t-14 98.5
q1 96 58.5 170.5t141 110t175.5 36.5q203 2 309 -93q106 -94 93 -263q-13 -152 -171 -233q-10 -5 -16 -9q26 -17 61 -34q70 -30 130 -88q62 -58 82 -197zM459 1065q-2 -44 4 -87q8 -48 42 -73q36 -21 77 -7q40 14 70 44q32 37 34 114q1 76 -33 134q-35 59 -103 47
q-52 -17 -72 -66q-19 -48 -19 -106zM679 340q30 28 38 89t-5.5 119.5t-55 96.5t-100.5 24q-61 -16 -85 -72q-24 -55 -24 -120q-3 -41 5 -96q9 -53 50 -82q44 -25 94 -8q49 16 83 49z" />
    <glyph glyph-name="nine" unicode="9" horiz-adv-x="1142" 
d="M309 1405q29 12 132 30q103 19 236 7q131 -10 239 -88q109 -77 140 -253q46 -305 -7 -519q-53 -211 -158 -337q-104 -126 -219 -185q-114 -58 -191 -59q-135 -9 -242 55q-107 65 -146 217q-13 59 18 125t92.5 98.5t124.5 -0.5q39 -20 71 -79.5t11 -90.5q-18 -24 -56 -24
q-18 -2 -26 -4q151 -78 236 -37q84 41 119 140t43 199q8 99 6 138v5l-2 -2q-17 -28 -86 -84q-66 -54 -184 -68q-34 -1 -70.5 3.5t-86.5 20t-98 54.5t-81 97q-16 28 -27.5 83t-10 131.5t19 152.5t70 151t133.5 123zM578 930q69 26 98.5 59t21.5 62t-37 53t-72 37
q-78 23 -145 -10q-83 -43 -62 -182q4 -25 25 -36.5t52.5 -9t60 9t58.5 17.5z" />
    <glyph glyph-name="colon" unicode=":" horiz-adv-x="594" 
d="M527 416q22 -69 -19 -142q-40 -72 -150 -87q-95 -10 -173 7q-76 17 -98 81q-25 68 7 135q33 65 162 94q95 19 171 -2q76 -19 100 -86zM532 1177q22 -69 -19 -142q-41 -72 -150 -87q-95 -10 -173 7q-76 17 -98 81q-25 68 7 135q33 65 162 94q95 19 171 -2q76 -19 100 -86z
" />
    <glyph glyph-name="semicolon" unicode=";" horiz-adv-x="582" 
d="M280 332q-126 -8 -169 -80q-44 -72 -23 -154q13 -64 62 -99q49 -34 152 -3q-13 -48 -36 -70t-56 -33q-27 -8 -41.5 -23.5t-14.5 -49.5q5 -29 67 -32q66 -3 141 28q78 31 121 100q9 17 19 45.5t16.5 68.5t6.5 81t-13 81.5t-38.5 71.5t-75.5 50t-118 18zM517 927
q22 -69 -19 -142q-40 -72 -150 -87q-95 -10 -173 7q-76 17 -98 81q-25 68 7 135q33 65 162 94q95 19 171 -2q76 -19 100 -86z" />
    <glyph glyph-name="semicolon" unicode="&#x37e;" horiz-adv-x="582" 
d="M280 332q-126 -8 -169 -80q-44 -72 -23 -154q13 -64 62 -99q49 -34 152 -3q-13 -48 -36 -70t-56 -33q-27 -8 -41.5 -23.5t-14.5 -49.5q5 -29 67 -32q66 -3 141 28q78 31 121 100q9 17 19 45.5t16.5 68.5t6.5 81t-13 81.5t-38.5 71.5t-75.5 50t-118 18zM517 927
q22 -69 -19 -142q-40 -72 -150 -87q-95 -10 -173 7q-76 17 -98 81q-25 68 7 135q33 65 162 94q95 19 171 -2q76 -19 100 -86z" />
    <glyph glyph-name="less" unicode="&#x3c;" horiz-adv-x="1143" 
d="M44 686q40 74 168 166q122 88 290 170q164 80 309 117q146 39 223 9q42 -22 51 -78q9 -54 -8 -105q-17 -48 -77 -80q-62 -31 -192 -81q-122 -47 -184 -71.5t-105.5 -43.5t-55 -28t-10.5 -18q4 -25 112 -45q181 -36 361 -116q86 -41 122 -70t39 -60q6 -59 -46 -114
q-54 -57 -126 -79q-48 -14 -90 -1q-41 13 -107 45q-51 26 -168 74q-144 55 -231 78q-69 18 -125 43q-46 22 -85 73l-1 2l-4 4q-10 10 -20.5 22.5t-24 35t-21 45t-7.5 51.5t13 55z" />
    <glyph glyph-name="equal" unicode="=" horiz-adv-x="990" 
d="M158 616q27 11 49.5 10t67.5 -13q47 -12 105 -23q151 -32 256 -27q102 7 155 27q39 11 56.5 12t44.5 -12q49 -38 56 -108q9 -70 -29 -112q-15 -17 -49 -18q-33 -1 -115 6q-9 1 -31 3q-299 27 -353 18q-11 -3 -30.5 -7t-27.5 -6q-77 -21 -128 -5q-12 3 -27.5 10t-37.5 26
t-32 43q-17 51 5 100q23 51 65 76zM158 1000q27 12 49 10.5t68 -13.5q21 -6 104 -23q157 -30 257 -26q101 7 155 26q37 11 56 12t45 -12q49 -38 56 -107q8 -71 -29 -113q-15 -17 -49 -18q-25 -1 -115 7q-9 1 -31 3q-302 27 -354 17q-36 -7 -57 -13q-76 -21 -128 -4
q-23 5 -52.5 24t-45.5 55q-17 51 5 100q22 51 66 75z" />
    <glyph glyph-name="greater" unicode="&#x3e;" horiz-adv-x="1153" 
d="M1120 686q47 -94 -59 -209l-6 -6q-37 -51 -85 -73q-56 -25 -125 -43q-87 -23 -231 -78q-118 -49 -167 -74q-66 -32 -107 -45q-42 -13 -91 1q-72 22 -126 79q-52 55 -46 114q3 31 39 60t122 70q180 80 361 116q108 20 112 45q1 9 -10.5 18t-55 28t-105.5 43.5t-184 71.5
q-130 50 -192 81q-61 33 -76 80q-16 49 -9 105q9 56 52 78q77 30 222 -9q147 -38 308 -117q165 -80 290 -170q130 -93 169 -166z" />
    <glyph glyph-name="question" unicode="?" horiz-adv-x="964" 
d="M682 229q22 -66 -18 -133q-39 -67 -146 -81q-96 -9 -168 7q-74 16 -96 75q-23 66 8 126q32 62 157 88q96 17 167 -2q74 -20 96 -80zM850 1259q96 -145 87 -261q-7 -113 -69 -187q-60 -72 -122 -92q-38 -13 -69 -16q-54 -7 -77 -34q-32 -41 -21 -131q5 -41 10 -57
q6 -20 0 -33q-17 -26 -78 -39q-63 -14 -126 -7q-65 7 -99 46q-24 32 -24 90.5t11 103t23 67.5q29 60 84 100q20 13 32 19q54 28 111 76q60 50 77 125q13 82 -16 108q-29 28 -99 32q-22 2 -43.5 -4.5t-37 -14t-35 -28t-28.5 -30.5t-26 -38.5t-20 -33.5t-19 -33
q-15 -29 -21 -38q-24 -31 -61 -48.5t-75 -11.5q-52 11 -80 54q-27 41 -35 86q-13 100 60 190q75 92 170 140q96 50 215 59t230.5 -32t170.5 -127z" />
    <glyph glyph-name="at" unicode="@" horiz-adv-x="1615" 
d="M1448 1093q126 -214 70 -411q-42 -146 -166 -255q-76 -66 -146 -86q-49 -19 -106 -26q-59 -8 -102 19q-51 39 -66 66q-2 0 -3 -1l-6 -3q-49 -28 -84 -36q-34 -7 -92 -3q-57 3 -104.5 29.5t-78 69.5t-47.5 96t-17 112.5t18 115.5q53 165 115 211q65 48 137 23
q74 -24 154 -76q17 -11 32 -19l5 49q1 3 3.5 7t11.5 14t21 17.5t34 12t47 1.5q71 -14 102 -59q33 -45 15 -76q-21 -33 -48 -121q-26 -89 -36 -160q-6 -65 -7 -90q26 -13 72 -1t85 42q75 56 92 174q6 42 5 81v1q0 4 -1 13t-1 14q-1 3 -1 10v4l-1 3q-16 147 -123 269
q-116 134 -284 166q-177 31 -350 -74q-61 -37 -110 -83q-6 -5 -17.5 -16t-16.5 -17q-9 -9 -13 -14l-5 -5l-3 -4l-3 -3l-4 -5q-2 -2 -5.5 -6.5t-5.5 -6.5q-11 -13 -31 -41q-47 -70 -73 -131q-43 -103 -39 -197q4 -92 29 -187q44 -167 161 -242q118 -74 256 -91
q135 -16 244 -5q103 10 123 17q18 5 45 12l21 6l19 6q91 25 129 -7q23 -20 38 -53q17 -41 6 -71q-6 -10 -10 -15q-17 -21 -101 -44q-25 -8 -136 -27q-113 -20 -270 -21t-318 48q-159 49 -277 178q-117 130 -148 371q-31 225 61 428q60 125 170 226q105 96 242 155
q137 57 277 63q149 6 278 -46q212 -88 338 -295zM747 736q-2 -167 53 -213q56 -47 122 -18l22 298q-22 15 -50 25q-49 18 -95 -1t-52 -91z" />
    <glyph glyph-name="A" unicode="A" horiz-adv-x="1230" 
d="M1154 378q24 -201 9 -287q-14 -86 -56 -118q-68 -56 -158 -62q-91 -6 -143 43q-28 33 -16 188q8 86 3 171q-5 87 -44 141q-41 57 -141 56q-44 -2 -75.5 -12.5t-50.5 -24.5t-28.5 -39.5t-13 -45.5t0.5 -56t7.5 -56.5t12.5 -60.5q27 -117 15 -166q-11 -39 -77 -58
q-91 -26 -179 14q-129 59 -153 232q-5 35 -5 75q0 112 37 288q37 177 113 366q75 187 189 326q45 54 94 82t92.5 29t80.5 -7t71.5 -30.5t52.5 -36.5t35 -30l4 -4l3 -3q69 -65 120.5 -149t82 -161.5t55 -191t36 -195t26.5 -217.5zM736 717q14 36 -14 157q-18 73 -43.5 105.5
t-56.5 29.5q-31 3 -56.5 -30t-42.5 -105q-28 -121 -14 -157q37 18 72 26q28 6 41 7q14 -1 42 -7q35 -8 72 -26z" />
    <glyph glyph-name="B" unicode="B" horiz-adv-x="1148" 
d="M968 878q31 -19 76 -90q46 -72 71 -168q27 -97 3 -193q-42 -135 -181 -221q-141 -86 -313 -122q-171 -36 -319 -19q-144 16 -200 91q-14 22 -13.5 44t12.5 85q10 55 31 202q32 221 39 356q9 138 -19 246q-35 117 -66 170q-22 37 -28 61t4 60q18 44 111 84q89 39 224 59
q132 20 264 2q134 -18 234 -90q100 -71 130 -215q20 -122 -11 -182q-30 -61 -79 -85q-48 -23 -84 -31q-17 -3 -23.5 -6t-3.5 -8q3 -3 17 -1q12 4 44 1q36 -5 80 -30zM474 1272l31 -269q0 -5 15 -21q51 -57 113 29q18 25 36 61q83 166 -59 198q-47 10 -136 2zM702 451
q43 48 50.5 96.5t-17 89.5t-53.5 70t-67 55q-22 13 -43.5 3t-24.5 -36l-24 -335l4 -21q22 -55 99 4q34 27 76 74z" />
    <glyph glyph-name="C" unicode="C" horiz-adv-x="1250" 
d="M797 912q-60 33 -104 77q-11 12 -37 34q-55 41 -113 -9t-95 -152.5t-41 -212.5q-2 -65 10 -120.5t38.5 -102t75 -73t115.5 -25.5q30 0 49 8t26.5 24.5t9.5 31.5t1 39q-2 74 34 95q81 38 181 31q104 -8 175 -44q74 -36 68 -87q-21 -100 -72 -182t-122.5 -135t-160 -84.5
t-184.5 -30t-197 28.5q-138 44 -234 167q-97 124 -142 291l-1 -1v-1q-33 112 -31 235q-2 123 31 235v-1q1 0 1 -1q45 169 142 291q98 124 234 168q124 34 259 -1q129 -33 245 -109q113 -74 177 -154q65 -82 55 -139q-8 -37 -50.5 -67t-98.5 -45.5t-123 -11t-121 32.5z" />
    <glyph glyph-name="D" unicode="D" horiz-adv-x="1168" 
d="M65 1287q20 42 131 83t264 50q153 10 304 -38t251 -181q99 -132 104 -379q-5 -267 -94 -436q-87 -167 -226 -257q-136 -88 -280 -112q-146 -23 -257 1t-154 77q-15 19 -14 43q2 28 13 83q12 60 33 197q33 213 42 345q9 133 -21 240q-36 111 -71 165q-15 25 -22 41
t-9.5 38t6.5 40zM482 471q22 -40 90 -38q68 3 129 82q63 81 67 269q0 200 -113 246q-67 27 -138 -6q-41 -19 -47 -41q-4 -19 7 -51q9 -19 20 -71q9 -46 6 -103q-2 -57 -12 -148q-4 -58 -9 -85q-5 -42 0 -54z" />
    <glyph glyph-name="E" unicode="E" horiz-adv-x="1026" 
d="M913 368q42 -15 53 -69.5t-5.5 -114.5t-47.5 -95q-68 -72 -179 -99q-112 -28 -233 -18q-120 9 -215 48q-95 41 -126 101q-42 99 -53 336q-10 227 13 467q24 232 83 337q55 76 189 112q135 36 282 15t239 -116q31 -36 47.5 -96t5.5 -114.5t-53 -69.5q-55 -17 -196 40
q-27 10 -45.5 16.5t-42 13.5t-40 9.5t-34 2t-29.5 -6.5q-44 -20 -82 -84.5t-14 -134.5q8 -19 50 -27q1 -1 3 -1q51 -10 123 33q81 51 157 42q20 0 56.5 -15.5t61.5 -48.5q30 -47 26 -102q-3 -57 -37 -92q-35 -32 -100.5 -34.5t-136.5 13.5q-55 9 -82 18q-53 14 -79 3
q-44 -16 -58 -54q-22 -105 16 -189q39 -82 96 -101q48 -13 184 37q148 56 203 38z" />
    <glyph glyph-name="F" unicode="F" horiz-adv-x="1011" 
d="M485 72q7 -46 -60 -63q-65 -16 -151 -5q-82 10 -122 46q-75 83 -83 251q-7 164 28 357q33 180 82 341q47 149 80 202q54 76 189 112t282 15q146 -21 238 -117q31 -35 47.5 -95t5.5 -114.5t-53 -69.5q-52 -16 -195 39q-143 58 -192 36q-25 -12 -52 -43t-44.5 -78t1.5 -98
q8 -19 50 -28h2q52 -10 124 33q87 51 156 42q80 -11 118 -65q30 -46 26 -101q-3 -57 -37 -92q-37 -36 -101 -36q-68 2 -135 14q-40 8 -94 5t-101 -44q-45 -40 -55 -145q-9 -105 46 -299z" />
    <glyph glyph-name="G" unicode="G" horiz-adv-x="1207" 
d="M777 967q-152 78 -273 -25q-92 -86 -125 -229q-32 -143 12 -269q69 -167 238 -167q30 -1 51 12.5t31.5 30t16.5 48t7.5 49t2.5 52.5l1 21l-21 -5q-22 -6 -45 -18q-56 -29 -94 -16q-26 10 -37 48q-13 46 -2 108q12 61 40 99q85 102 210 92q100 -7 184 -61q83 -53 122 -114
q12 -19 21 -99q9 -78 -6 -180q-14 -101 -74 -193q-163 -232 -596 -147q-68 13 -129 57.5t-105.5 108.5t-76.5 134.5t-53 146.5l-12 42v-1q-21 92 -20 188q-1 91 19 184l1 -1l12 45q48 172 144 291q95 118 221 157q165 43 340 -12q178 -55 289 -157q86 -83 76 -140
q-12 -48 -84 -82q-57 -26 -137 -31q-77 -3 -149 33z" />
    <glyph glyph-name="H" unicode="H" horiz-adv-x="1195" 
d="M849 1406q81 12 132 -22q23 -15 35 -59q13 -40 11 -148q8 -220 -4 -275q-13 -76 -10 -146q11 -116 45 -218q46 -192 71 -244q17 -37 21 -57.5t-1 -51.5q-21 -74 -96 -125q-76 -52 -168 -53q-7 0 -17.5 0.5t-37.5 5t-50.5 12.5t-49 25.5t-39.5 40.5q-24 31 -8 173
q12 87 14 234q12 53 12 84t-18 43q-42 24 -119 5q-16 -1 -63 -20q-45 -17 -79 -63q-44 -68 -16 -179q21 -85 78 -155q22 -28 31.5 -47.5t6.5 -44.5q-5 -34 -34.5 -68t-72.5 -57t-95 -32.5t-102 4.5q-40 11 -72.5 35.5t-51 54.5t-25.5 44t-12 28q-12 38 -4 123q5 59 22 190
q27 175 30 315q-1 98 -9 172q-7 71 -8 153q-3 68 11 150q15 80 50 124q28 30 69.5 47.5t61 20t31.5 2.5q73 -2 129 -37q58 -36 70 -88q4 -22 -16 -59q-12 -20 -36 -76q-49 -112 -43 -216q2 -51 46 -137q159 -39 234 41q34 47 26 108q-3 46 -25 117q-21 74 -39 97
q-37 48 -33 85q12 58 78 96q68 39 139 48z" />
    <glyph glyph-name="I" unicode="I" horiz-adv-x="580" 
d="M477 659q7 -105 29 -225q25 -132 29 -240q6 -109 -41 -174q-28 -32 -96 -36q-67 -6 -133 10q-66 15 -95 48q-23 34 -23 128q0 86 8 216q11 160 6 294q-7 105 -29 225q-24 129 -30 239q-5 110 42 175q28 31 95 36q70 5 134 -11q66 -15 95 -47q23 -35 23 -129
q0 -86 -8 -216q-11 -161 -6 -293z" />
    <glyph glyph-name="J" unicode="J" horiz-adv-x="791" 
d="M126 36q-60 26 -92 98q-32 74 -21 157q11 84 83 137q39 30 111.5 27.5t84.5 -44.5q9 -33 -17 -75q-10 -17 -14 -30q7 0 11 -1q11 1 22.5 -0.5t23.5 5.5t23 17t20 35t15 59.5t9 89.5t1 126q-4 75 -44 187q-5 14 -15 44q-33 96 -71 141q-9 13 -13 19.5t-9.5 19t-6.5 25.5
t-1 33.5t3 48.5q11 82 83 140q74 60 169 68q4 -1 17.5 0.5t38.5 -3t49.5 -11t51 -24t42.5 -41.5q26 -33 19 -184q0 -31 1 -62q5 -101 4 -230q0 -149 -22 -306q-23 -164 -82 -292q-60 -130 -175 -185q-114 -55 -299 11z" />
    <glyph glyph-name="K" unicode="K" horiz-adv-x="1083" 
d="M638 706q32 -61 88.5 -107.5t139.5 -94.5q83 -46 145 -102q61 -54 63 -135q-2 -61 -41 -112q-40 -51 -103 -68q-48 -11 -86 3q-36 13 -58 27q-6 4 -13 6q-61 30 -152 175q-90 144 -159 316q1 -4 3 -14t3 -14q21 -94 32.5 -152t21.5 -139t3 -138.5t-31 -91.5
q-23 -31 -83.5 -41.5t-122.5 2t-89 42.5q-23 30 -22 106q2 87 10 183q18 233 6 332q-19 124 -67 265q-38 111 -59 221q-19 103 20 165q37 48 159.5 46.5t165.5 -46.5q25 -31 31 -127q7 -88 7 -215q0 -19 1 -57t1 -57q74 215 195 329q121 115 232 120q110 6 152 -106
q19 -72 -48 -141q-69 -71 -159 -133q-88 -61 -151 -125q-59 -62 -35 -122z" />
    <glyph glyph-name="L" unicode="L" horiz-adv-x="902" 
d="M877 375q42 -15 53 -69.5t-5.5 -114.5t-47.5 -95q-61 -69 -178.5 -98.5t-233.5 -19.5t-214.5 50.5t-125.5 99.5q-3 5 -5 10q-15 31 -22.5 54t-15 70t2 113t35.5 148q0 1 -1 1q-1 1 -2 1q1 3 3 11q19 65 23 156q-2 127 -25 237q-26 126 -45 179q-13 43 -15.5 64t5.5 55
q27 78 106 126q79 49 173 43q8 0 27.5 -4t51 -13.5t61.5 -33t46 -56.5q21 -36 -8 -185q-2 -11 -17 -61q-27 -81 -71 -265q-39 -165 -47 -353q1 -51 37 -83q34 -31 68 -42q48 -13 184 37q148 56 203 38z" />
    <glyph glyph-name="M" unicode="M" horiz-adv-x="1513" 
d="M1080 1376h1q69 -2 126 -32t96.5 -75.5t69.5 -115t48.5 -135.5t30 -153.5t16 -152.5t5.5 -148.5t-0.5 -126t-3.5 -98.5q-2 -54 -1 -62q7 -149 -19 -184q-52 -79 -199 -79q-93 7 -165 67q-72 61 -88 141q-5 28 1.5 52t26.5 64q27 49 70 171q11 36 26 128q14 92 19 199
q4 101 -19 159q-23 56 -85 11q-29 -23 -40.5 -70.5t-14.5 -136.5q-2 -63 -4 -95q-9 -173 -27 -266t-76 -118q-23 -10 -51 -10q-81 0 -167 65q-77 59 -82 118v3q0 7 1 10v1v1q1 13 2.5 48.5t2.5 57.5q6 95 6 120q-2 16 -7 65q-9 89 -23 135.5t-45 66.5q-66 40 -85 -17
q-18 -58 -8 -160q10 -97 32 -196q22 -97 34 -126q51 -118 82 -167q40 -66 35 -114q-11 -82 -78 -146q-67 -65 -159 -78q-7 -2 -27.5 -2t-53 3t-67 19.5t-56.5 44.5q-28 33 -32 183q0 10 -5 62q-9 73 -18 197q-8 135 -4 267q4 90 15.5 168t36.5 155.5t62 134t94.5 94
t131.5 44.5h1q1 1 3 1q131 0 217 -130q85 -131 100 -373q0 -7 3 -26.5t8.5 -54t8.5 -59.5q13 31 13 128q-1 86 8.5 158.5t25.5 123t37 91t44.5 65t47.5 42.5t45 26t37.5 12.5t26.5 4.5h10h3z" />
    <glyph glyph-name="N" unicode="N" horiz-adv-x="1216" 
d="M1063 744q-3 -134 15 -253q20 -139 37 -194q12 -44 14 -68t-8 -59q-31 -81 -112 -130q-82 -48 -175 -38q-7 1 -18.5 3.5t-36.5 11t-47 21t-44.5 35.5t-34.5 51q-5 14 -20 156q-3 27 -7 60t-9.5 74.5t-8.5 67.5q-15 125 -29 198q-35 158 -92 193q-58 37 -85 -56
q-26 -95 35 -325q39 -133 93 -207q20 -30 27.5 -49.5t4.5 -42.5q-11 -80 -71 -136q-58 -55 -152 -57q-7 0 -18.5 1t-38.5 6t-51 14t-52 28t-46 45q-25 34 -29 189q-7 408 31 640q39 227 98 324q60 96 117 114q59 18 91 11h9q23 3 84 -64q62 -65 139 -258q77 -192 138 -562
l1 110q-1 65 -3 225v34v25q-3 40 -6 97q-2 28 -4 66t-2 44q-17 122 -11 171q8 52 28 71q44 44 129 42q71 0 143 -35q71 -35 91 -101q5 -43 -36 -150q-72 -196 -78 -343z" />
    <glyph glyph-name="O" unicode="O" horiz-adv-x="1199" 
d="M1115 863l1 1q34 -101 32 -211q2 -111 -32 -212l-1 1v1q-26 -91 -80 -192q-52 -98 -157 -168q-103 -68 -281 -73q-201 2 -332 119q-131 119 -186 314l-1 -1v-1q-34 101 -32 212q-2 110 32 211v-1l1 -1q46 148 148 261q100 112 242 151q4 1 13.5 3t14.5 3h-1q21 4 41 6
q30 3 60 3q31 0 59 -3q22 -2 41 -6l27 -6q143 -39 243 -151q102 -113 148 -261v1zM597 389q63 0 105.5 30.5t59.5 79t19.5 107.5t-13.5 118t-39.5 107.5t-59 79t-72.5 30.5t-72.5 -30.5t-59 -79t-39.5 -107.5t-13 -118t19.5 -107.5t59 -79t105.5 -30.5z" />
    <glyph glyph-name="P" unicode="P" horiz-adv-x="998" 
d="M65 1265q20 45 119 85q104 42 241 61q143 20 278 2q137 -16 229 -90t96 -218q0 -63 -11 -118.5t-27.5 -96.5t-44.5 -76.5t-52.5 -59t-62 -44.5t-62.5 -32t-64 -22t-55.5 -15t-48.5 -10q-50 -8 -53 -17l-7 -96q1 -138 -4 -243q-2 -53 -1 -61q6 -145 -19 -185
q-55 -79 -200 -79q-92 9 -165 68q-71 60 -87 141q-6 36 22 86q22 37 48 125q1 0 1 1v1q32 221 39 356q9 138 -19 246q-35 118 -67 170q-14 26 -20.5 42t-9 38.5t6.5 40.5zM669 957q26 52 29.5 91t-12.5 60t-40.5 34.5t-55 16.5t-56 3t-43.5 -2t-17 -3l31 -269l13 -20
q48 -54 106 16q23 28 45 73z" />
    <glyph glyph-name="Q" unicode="Q" horiz-adv-x="1182" 
d="M923 102q36 -13 73 -40.5t60 -61.5q36 -63 16 -114.5t-71 -83.5t-101 -29q-46 5 -81 39.5t-84 109.5q-16 25 -59 86q-46 -9 -99 -9q-193 1 -320 128q-127 128 -179 337l-1 -1v-1q-33 108 -31 227q-2 118 31 226l1 -1q46 163 142 280q98 120 234 162q4 1 12.5 3t13.5 3v1
q25 4 40 5q25 4 57 4t57 -4q15 -1 40 -5v-1q4 -1 12.5 -3t13.5 -3q135 -42 233 -162q98 -119 143 -280l1 1q33 -108 31 -226q2 -119 -31 -227v1l-1 1q-21 -84 -65 -182q-42 -95 -118 -168q13 -6 30 -12zM577 1040q-36 0 -70 -36t-57 -94t-38.5 -128.5t-12.5 -141t19 -128.5
t57.5 -94t101.5 -36t101.5 36t57.5 94t18.5 128.5t-13 141t-38 128.5t-56.5 94t-70 36z" />
    <glyph glyph-name="R" unicode="R" horiz-adv-x="1167" 
d="M1204 78q1 -14 -1.5 -30.5t-8.5 -35.5t-22 -32.5t-38 -14.5h-21q-124 -2 -218 10q-97 12 -146 64t-23 174q50 221 -75 281q-44 18 -72 11q-12 37 -39 -3q1 -24 0 -97q-3 -130 -15 -239q-11 -110 -47 -145q-29 -23 -79 -33.5t-81 -8t-42 1.5q-92 10 -162 53q-69 43 -82 97
q-6 28 31 71q29 31 78 110q25 53 40 198q17 145 24 268q4 50 6 83q-4 35 -14 79q-35 118 -67 170q-21 38 -27 61t3 60q20 45 120 85q104 42 241 61q143 20 278 2q138 -17 229 -90q92 -74 96 -218q-3 -101 -52 -183t-104 -119q-24 -17 -104 -70q25 -11 67 -23q45 -12 118 -73
t67 -150q-4 -105 17 -201q21 -93 54 -110q34 -17 51.5 -31.5t19.5 -32.5zM643 931q20 51 20.5 88t-16 56t-38.5 27.5t-51 9.5q-24 0 -40 -16.5t-13 -39.5q16 -113 23 -245q22 -1 53 22q30 23 62 98z" />
    <glyph glyph-name="S" unicode="S" horiz-adv-x="1225" 
d="M417 946q-6 -44 11 -72q17 -26 55.5 -37.5t105.5 -14.5q127 -5 180 -1q21 1 57 1q20 0 50 -3t85.5 -13.5t109.5 -38t88 -68.5q54 -64 57 -161t-28.5 -184.5t-82.5 -160.5q-41 -58 -95 -103.5t-104.5 -70t-81 -36t-52.5 -16.5q-135 -34 -277 -13q-140 21 -246 83
q-105 64 -133 156q-19 79 13 157t95 101q59 14 117 -19q61 -32 98 -63q67 -55 93 -93q17 -24 32 -36.5t36 -15.5q67 -7 133 47q66 55 82 139q7 56 -16 112q-22 54 -70 73q-37 12 -94 -14q-2 -1 -6.5 -3t-7.5 -3q-112 -42 -243 -22q-132 21 -208 94q-43 44 -57 110.5
t-6.5 126t28 125.5t33.5 95t23 48q27 58 81 129q55 73 156 119q70 29 148.5 30t148 -22t128 -56.5t102.5 -75.5l11 -10q10 -11 19.5 -21t24 -27.5t26 -33.5t22.5 -36.5t17 -38t6 -36.5t-8 -34q-33 -53 -128 -62q-95 -8 -184 31q-57 28 -103 84q-20 25 -37.5 37.5t-42.5 12.5
q-59 -4 -106 -66q-46 -59 -55 -130z" />
    <glyph glyph-name="T" unicode="T" horiz-adv-x="1193" 
d="M1204 1260q26 -44 42 -101t7.5 -110.5t-49.5 -67.5q-32 -10 -78 2t-113 41q-63 28 -116 41t-81 -9q-34 -39 -18 -142q16 -96 53 -235q28 -104 51 -254q23 -152 23 -238q1 -88 -37 -145q-25 -33 -92 -42q-63 -10 -134 1q-66 10 -98 41q-37 50 -44 253q-8 226 -7 370
q2 188 -9 247q-16 56 -26 83v1l-6 3q-33 15 -81 -13q-49 -30 -99 -70q-116 -94 -172 -93q-44 3 -67.5 52.5t-21.5 108.5t14 108q38 114 152 184q117 71 268 101q150 31 308 26q154 -4 271 -42q119 -38 160 -101z" />
    <glyph glyph-name="U" unicode="U" horiz-adv-x="1151" 
d="M674 1214q20 67 54 102t72.5 37.5t79.5 -11.5t76.5 -41.5t62 -56.5t37.5 -52q34 -81 40 -287q6 -208 -25 -419q-31 -214 -108 -325q-55 -72 -156.5 -119t-212 -56.5t-217.5 34.5t-167 141q-50 76 -82 303q-31 222 10 594q13 123 38 193t75 98q67 33 153 9q85 -22 115 -99
q27 -91 9 -193q-16 -96 -49 -206q-16 -55 -23.5 -83.5t-18 -78t-11.5 -79.5t2 -71t16 -70t37 -60t59 -55q32 -22 71 -22.5t74 22.5q57 49 65 156t-9 212q-16 110 -25 147q-17 78 -26 107q-14 52 -20 85t-6 71t10 73z" />
    <glyph glyph-name="V" unicode="V" horiz-adv-x="1216" 
d="M1115 1397q43 -35 56 -121q15 -86 -9 -286q-15 -135 -26.5 -216t-36 -193.5t-55 -188.5t-82 -157.5t-120.5 -143.5q0 -1 -1 -1t-2 -1q-13 -13 -24.5 -22.5t-41 -29t-56 -30t-66.5 -16t-76.5 3.5t-80.5 38t-85 79q-114 146 -189 334q-76 194 -113 371q-37 179 -37 291
q0 201 135 280q87 50 188 33q72 -12 89 -47q5 -11 2 -22q-80 -350 39 -797q2 -8 5 -18.5t3 -12.5q34 -142 99 -140q31 -4 56.5 27.5t43.5 103.5q10 55 18 261q8 186 21 377q15 191 45 277q16 40 73 46t122 -17t106 -62z" />
    <glyph glyph-name="W" unicode="W" horiz-adv-x="1850" 
d="M1750 1431q42 -33 56 -119q13 -85 -9 -286q-12 -101 -19.5 -156t-22 -144.5t-29 -144t-38.5 -128.5t-52.5 -127t-69 -110t-89.5 -104l-3 -3q-11 -12 -24 -23.5t-41.5 -31t-56.5 -32.5t-67 -19.5t-76.5 0.5t-81 34t-83.5 75q-50 60 -82 113q-12 -12 -46 -44
q-40 -36 -74 -69l-3 -3q-13 -13 -24.5 -23.5t-40.5 -31t-56.5 -32.5t-67 -19t-76 0t-80.5 34t-85 75q-114 140 -189 325q-76 189 -113 366q-37 178 -37 289q0 203 137 287q87 54 187 41q72 -9 88 -44q5 -10 2 -21q-80 -350 39 -795q2 -7 4.5 -17t3.5 -13q18 -73 43.5 -105.5
t55.5 -29.5q31 -3 56.5 29.5t43.5 105.5q9 53 2 164q-4 94 -3 198q3 104 31 181q30 61 133 50.5t169 -69.5q37 -28 52 -99q16 -70 3 -224q20 -100 40 -171q2 -7 4.5 -17t3.5 -13q18 -73 43.5 -105.5t56.5 -29.5q31 -3 56.5 29.5t43.5 105.5q9 50 17 262q6 153 22 378
q14 194 45 279q16 40 73 49t122 -10.5t106 -56.5z" />
    <glyph glyph-name="X" unicode="X" horiz-adv-x="1222" 
d="M1218 330q84 -167 -39 -270q-5 -4 -14.5 -10.5t-33.5 -20t-47 -19.5t-55 -9.5t-58 9.5q-19 5 -45 32.5t-78 106.5l-2 5q-3 5 -5 10q-26 49 -74 129q-54 92 -139 199q-45 -121 -67 -265q-4 -29 -8 -38q-51 -141 -88 -163q-76 -50 -214 2q-85 45 -127 125q-44 83 -27 164
q12 56 47 97t153 131q76 59 135 140q-61 46 -178 181q-105 123 -139 159q-23 26 -36 58q-34 74 -10 165q24 89 95 151q52 34 86 47q68 24 123 3q20 -5 46.5 -33.5t75.5 -106.5q4 -7 16 -35q28 -76 70 -331q48 114 71 188q28 91 34 118q2 11 5 16q48 141 87 164q83 54 215 -2
q78 -40 98 -109q19 -67 0 -145q-11 -37 -77 -126q-61 -82 -151 -200q-16 -20 -47 -61.5t-47 -61.5q9 -7 65 -54t89 -74q107 -87 192 -162q87 -75 103 -104z" />
    <glyph glyph-name="Y" unicode="Y" horiz-adv-x="1042" 
d="M1079 1307q10 -8 9.5 -40.5t-15.5 -102.5q-135 -626 -377 -717q37 -134 72 -206q13 -31 13 -32q18 -84 18.5 -125t-8.5 -48q-14 -31 -43.5 -56t-60 -37t-49 -17.5t-26.5 -6.5q-91 -13 -169 24q-77 38 -105 107q-20 46 -11.5 97t60.5 187q22 55 33 115q-240 94 -373 715
q-24 110 -6 143q11 18 29 34.5t37.5 27.5t40.5 20t36.5 13.5t27.5 8t13 3.5q91 16 159 -14q67 -28 93 -86q10 -28 -15 -72q-40 -70 -54 -168q-12 -136 41 -225q52 -85 111 -208q57 119 110 208q54 89 42 225q-14 98 -54 168q-25 44 -15 72q26 58 93 86q68 30 159 14
q1 0 13 -3.5t27.5 -8t36.5 -13.5t40.5 -20t37.5 -27.5t29 -34.5z" />
    <glyph glyph-name="Z" unicode="Z" horiz-adv-x="1152" 
d="M1006 424q54 -20 72 -87q20 -66 6 -140q-12 -72 -51 -113q-85 -75 -242 -97q-154 -22 -325 -1q-170 21 -292 73q-123 52 -141 127q-5 49 59 144q61 93 162 212q104 121 198 221q80 86 164 172q39 41 59 63q-13 6 -27 9q-60 14 -227 -39q-180 -58 -252 -40q-53 19 -73 86
q-18 67 -6 140q14 74 52 114q83 74 240 97q155 22 326 1q169 -21 293 -74q123 -52 141 -126q5 -49 -59 -145q-68 -101 -163 -212q-83 -99 -197 -221q-26 -28 -164 -172q-38 -38 -59 -62q14 -6 27 -9q60 -14 227 39q180 58 252 40z" />
    <glyph glyph-name="bracketleft" unicode="[" horiz-adv-x="758" 
d="M670 1364q-55 -13 -112 1q-29 9 -50 3q-39 -20 -43 -146t3 -295q4 -117 4 -473q-3 -137 -10 -220q-12 -106 -4.5 -172.5t45.5 -90.5q34 -20 89 -12q64 8 96 -20q39 -37 42 -100q4 -61 -28 -112q-56 -71 -164 -74q-107 -5 -188 51q-62 42 -78 148q-16 109 -17 345
q0 21 -1 32q0 38 -1 57q-8 506 -6 734q1 229 27 373q26 145 89 179q39 19 118 31q50 9 111 7q58 -1 103 -40q35 -37 46 -90q11 -52 -15 -87q-23 -23 -56 -29z" />
    <glyph glyph-name="backslash" unicode="\" horiz-adv-x="569" 
d="M409 280q-16 51 -72 188q-51 126 -116 273q-60 136 -85 179q-27 46 -86 119q-30 33 -56.5 85t-35.5 103q-9 53 2.5 95.5t37.5 66t59 35.5t68 8.5t62 -21.5q42 -28 64 -88t42 -172q3 -10 7 -32q7 -28 120 -254q73 -147 154 -317q84 -177 137 -306q57 -135 55 -187
q-4 -47 -29.5 -92t-61 -71.5t-80 -20.5t-81.5 55q-60 82 -74 200q-13 97 -31 154z" />
    <glyph glyph-name="bracketright" unicode="]" horiz-adv-x="758" 
d="M117 1364q-33 6 -56 29q-25 35 -15 87q11 54 47 90q43 39 101 40q62 2 113 -7q78 -12 117 -31q64 -34 89 -179q24 -138 26 -373q2 -275 -5 -734q-1 -19 -1 -57q0 -21 -1 -32q-2 -240 -18 -345q-15 -106 -77 -148q-81 -56 -188 -51q-107 3 -164 74q-32 50 -29 112
q4 63 43 100q32 28 96 20q56 -7 89 12q38 24 46 90.5t-4 172.5q-9 108 -10 220q-1 315 4 473q6 162 1 295q-5 128 -42 147q-22 5 -50 -4q-56 -15 -112 -1z" />
    <glyph glyph-name="asciicircum" unicode="^" 
d="M362 1097q123 164 246 144h3q73 -14 119 -93q48 -81 84 -176q33 -75 47 -136q15 -63 -14 -119q-21 -37 -59 -61.5t-86 -23.5q-45 3 -82 28.5t-49 63.5q-6 23 -4 136q5 114 -9 119q-12 1 -22.5 -17.5t-23.5 -58.5q-18 -55 -52 -119q-32 -62 -98 -106q-60 -36 -128 -40
t-108 33q-9 10 -11.5 24.5t4.5 35t15 40t26 49t32 50.5t40 56t41.5 55t43.5 57q30 40 45 59z" />
    <glyph glyph-name="underscore" unicode="_" horiz-adv-x="1024" 
d="M990 -22q45 -6 62.5 -28.5t9 -44t-28.5 -26.5q-12 -1 -260 -1q-287 2 -439 1q-230 -2 -302 -10q-44 4 -53.5 27t6.5 45.5t36 26.5q25 2 151 -2q150 -4 276 -5q158 -3 306 0q144 3 236 17z" />
    <glyph glyph-name="grave" unicode="`" horiz-adv-x="1024" 
d="M555 1092q-96 41 -173 67q-76 25 -115 46t-49 51q-11 33 13 70t71 55t113 -1q75 -25 116 -80q37 -46 65 -68q32 -26 51 -39q13 -9 18.5 -13.5t9 -11t3.5 -13.5q-4 -26 -42.5 -53t-80.5 -10z" />
    <glyph glyph-name="a" unicode="a" horiz-adv-x="1043" 
d="M384 -1q-12 2 -26.5 4t-16.5 2q-152 12 -236 114q-83 104 -65 237q6 35 17 68t35 69t56 61t83 38t113 6.5t149.5 -39t188.5 -93.5q-7 52 -36.5 120.5t-73.5 84.5q-71 27 -175 19q-63 -4 -106.5 5t-78.5 45q-52 61 -24 113q28 53 108 87q81 35 362 -23q283 -58 331 -390
t-17 -421q-64 -87 -178 -113q-112 -25 -229 -16t-181 22zM417 316q-3 -50 19 -80t57 -37.5t73 -3t71 19.5q61 30 49 76q-12 47 -127 72q-47 9 -91 -1q-45 -9 -51 -46z" />
    <glyph glyph-name="b" unicode="b" horiz-adv-x="1183" 
d="M151 617q-2 140 -26 254q-25 133 -45 192q-14 46 -16.5 68.5t5.5 59.5q27 85 106 140q78 55 174 53q144 -18 186 -109q23 -38 -7 -200q-18 -103 -42 -255q-33 -207 -44 -279l2 2q1 0 2 1t9 7q28 23 62.5 48t94 61.5t127.5 61t127 26.5q89 5 160 -53q73 -59 110 -208
q40 -180 -57 -324q-27 -48 -65 -83q-90 -78 -203 -87q-136 -21 -251 37q-30 12 -65 31q-9 5 -27 17q-32 -51 -93 -81q-62 -32 -121 -36q-83 -9 -130 33q-22 18 -31 69q-7 51 3 174q15 145 33 211q19 86 22 169zM788 413q-2 24 -22 38t-51 15.5t-61 -1t-60 -9.5
q-114 -27 -127 -73t34 -87q48 -42 116 -55q69 -13 121 24q53 38 50 148z" />
    <glyph glyph-name="c" unicode="c" horiz-adv-x="1045" 
d="M1034 369q19 -44 -1 -93t-39 -73q-72 -113 -231 -190t-298 -48q-215 49 -318 180q-103 130 -108 293q-4 162 82 309q87 147 254 230q100 56 211 50q50 -5 94 -23q80 -25 135 -77t70 -126q27 -154 -58 -242q-60 -62 -140 -61q-76 2 -109 61q-11 20 -15 46q-5 41 51 66
q30 16 25 26q-46 79 -112 56t-118 -93q-54 -71 -61 -130q-11 -149 58 -218t174 -64q104 4 201 77q1 1 4 3q68 54 102.5 73.5t65.5 17.5q55 -6 81 -50z" />
    <glyph glyph-name="d" unicode="d" horiz-adv-x="1159" 
d="M1029 600q1 -80 22 -169q17 -66 33 -211q11 -125 2 -174q-8 -51 -30 -69q-47 -43 -131 -33q-59 4 -121 36q-61 30 -92 81q-18 -12 -27 -17q-36 -20 -66 -31q-115 -58 -250 -37q-113 9 -203 87q-37 34 -66 83q-100 146 -57 324q21 75 71.5 123t120 64.5t146.5 12.5
t161 -26q39 -13 99 -52q56 -37 92 -65q1 -1 2 -1l2 -2q-28 186 -43 279q-24 151 -42 255q-28 156 -8 200q42 91 187 109q94 1 173 -54q78 -55 107 -139q8 -37 5 -60.5t-16 -67.5q-22 -66 -46 -192q-23 -116 -25 -254zM392 396q-4 -111 48 -148q53 -38 122 -24q68 13 116 55
q46 41 33 87t-126 73q-29 7 -59.5 9.5t-61.5 1t-51 -15.5t-21 -38z" />
    <glyph glyph-name="e" unicode="e" horiz-adv-x="1027" 
d="M398 -62q-205 78 -291 221q-85 143 -67 305q20 162 124 295q108 135 283 193q105 42 215 21q48 -11 90 -36q147 -70 175 -228q10 -69 -17 -128.5t-83 -102.5t-126.5 -74t-155.5 -50q-108 -24 -175 -17q1 -2 5 -6q26 -40 69 -82q45 -42 123 -53q78 -9 193 55q0 1 2 1
q1 0 2 1q74 44 111 59t68 9q55 -13 73 -61q13 -46 -14 -92t-48 -67q-55 -65 -151 -114.5t-202.5 -65t-202.5 16.5zM669 639q-26 64 -92 56q-66 -6 -136 -49t-109 -91q-39 -47 -12 -66q28 -18 155 25q37 14 67 26.5t64 30.5t51.5 35.5t11.5 32.5z" />
    <glyph glyph-name="f" unicode="f" horiz-adv-x="868" 
d="M721 917q77 -5 100 -53q24 -47 11 -98q-12 -51 -43 -66q-27 -11 -86 1q-45 9 -141 18q-11 -2 -71 -22q-1 0 -2.5 -0.5t-2.5 -1.5q20 -149 51 -241q34 -96 70 -142q21 -28 27.5 -54.5t0.5 -90.5q-10 -80 -85 -141q-75 -60 -167 -67q-15 -2 -43.5 -0.5t-79 21t-76.5 58.5
q-27 34 -20 184q1 8 -1 64q-6 119 -2 318q-47 -6 -63 -8q-76 4 -99 52q-24 49 -11 99q12 51 42 66q24 11 87 -1q21 -4 58 -9q13 137 42 268q28 128 85 228q56 97 152 133t243 -18q61 -24 117 -87q56 -64 68 -136q12 -73 -58 -125q-28 -18 -73.5 -25.5t-83.5 3.5t-40 40v1
q0 32 -11 44t-54 15q-16 2 -25.5 0t-21.5 -16.5t-19 -43.5t-12.5 -84t-6.5 -135q124 40 244 52z" />
    <glyph glyph-name="g" unicode="g" horiz-adv-x="1116" 
d="M779 909q55 46 123 40t109 -47t14 -102q-11 -34 8 -161q15 -118 22 -243q9 -139 -13 -276q-23 -140 -98 -248q-69 -91 -194 -153q-126 -64 -264 -77q-138 -14 -248 39q-108 52 -146 194q-12 51 22 108t92 81.5t126 -3.5q40 -21 69.5 -71.5t8.5 -78.5q-18 -19 -57 -19
q-9 0 -25 -2q121 -56 202 -25q82 31 131 106q48 71 71 147q22 72 22 100q-44 -42 -153 -85q-162 -65 -311 -22q-151 44 -218 197q-64 175 17 335q24 54 56 92q80 89 190 113q130 37 253 -7q35 -8 69 -23q35 -15 67 -35q0 75 55 126zM627 406q102 52 105 93t-52 62
q-53 21 -124 13q-70 -8 -111 -52q-43 -44 -14 -133q8 -25 45 -26t76 11.5t75 31.5z" />
    <glyph glyph-name="h" unicode="h" horiz-adv-x="1084" 
d="M1040 134q15 -49 8.5 -84.5t-23 -58.5t-47 -36.5t-63 -18.5t-71.5 -4q-71 2 -119.5 20t-57.5 50q-9 47 -4 163q6 201 -14 292q-15 49 -71 47q-54 0 -121 -41q6 -28 9 -43q17 -70 32 -211q12 -123 3 -174q-7 -51 -30 -69q-47 -43 -131 -33q-71 6 -142 48q-70 41 -87 108
q-8 43 26 100q41 72 40 145q-1 20 -21 150t-45 291q-26 166 -45 272q-28 165 -7 200q42 91 187 109q95 2 173 -53q79 -55 107 -140q8 -37 5 -59.5t-16 -68.5q-22 -66 -46 -192q-15 -79 -23 -178q58 32 86 47q52 28 60 32q78 46 153.5 61t138.5 -2.5t101 -83.5t37 -175
q0 -39 -1 -64q-3 -89 -2 -176q2 -97 21 -170z" />
    <glyph glyph-name="i" unicode="i" horiz-adv-x="528" 
d="M260 883q-70 -2 -119.5 -22.5t-58.5 -55.5q-11 -85 8 -190q34 -203 -6 -333q1 0 -0.5 -4.5t-4.5 -15.5q-24 -83 -25 -123q2 -73 50 -111q50 -39 117 -51q65 -13 123 -5q56 8 69 28q15 29 17 60.5t-5 56.5t-21 60q-27 63 -31 131q-1 82 37 192q19 58 45 155q16 55 9.5 95
t-23.5 66.5t-47.5 41.5t-63 20.5t-70.5 4.5zM517 1183q23 -71 -18 -143q-41 -71 -151 -87q-95 -10 -173 7q-74 18 -98 82q-24 67 8 134q32 66 161 95q97 18 172 -3q76 -19 99 -85z" />
    <glyph glyph-name="j" unicode="j" horiz-adv-x="653" 
d="M585 582q4 92 -1 129t-18 56q-17 24 -43 41t-50.5 23.5t-49 11t-38.5 3t-18 -0.5q-93 -7 -171 -67q-76 -58 -81 -141q-1 -42 28 -103q27 -44 70 -184q55 -201 50 -312q-5 -107 -40 -135q-36 -28 -52 11t-21 62q-8 28 -45.5 38.5t-81 3.5t-70.5 -25q-72 -54 -69 -122
q1 -67 35 -142q32 -75 94 -92q180 -39 292 31q113 69 171 201q61 132 83 278q25 150 26 264q3 109 1 158q-1 7 -1 13zM580 1179q21 -71 -19 -143q-41 -71 -151 -86q-97 -10 -172 6q-75 18 -99 82q-24 67 8 134q32 66 162 95q96 18 171 -3q76 -19 100 -85z" />
    <glyph glyph-name="k" unicode="k" horiz-adv-x="1008" 
d="M708 524q30 -18 56.5 -37.5t56 -47t52.5 -56.5t42.5 -66.5t29 -76.5t8 -86.5t-15.5 -97.5q-18 -57 -78 -90q-58 -34 -126 -25q-36 7 -67 29t-43.5 37.5t-18.5 25.5q-31 51 -25 120q5 62 -18 109q-31 54 -102 85q-23 11 -43 23q1 -15 1 -29q0 -77 41 -145q33 -56 25 -100
q-17 -68 -87 -108q-71 -43 -142 -47q-82 -12 -130 32q-22 18 -31 69q-7 51 3 174q15 145 33 211q19 86 22 169q-2 140 -26 254q-25 134 -45 192q-14 46 -16.5 68.5t5.5 59.5q49 168 234 163q4 0 15.5 -3.5t32 -15t41 -30.5t39 -54t28.5 -80.5t7 -115.5t-23 -153
q-21 -93 -27 -198q27 22 54 34q72 37 102 96q24 52 18 120q-6 78 25 134q5 11 18 28.5t44 41.5t67 32q71 11 137 -26q67 -36 67 -101q-20 -212 -93 -336q-71 -123 -147 -182z" />
    <glyph glyph-name="l" unicode="l" horiz-adv-x="581" 
d="M125 861q-25 133 -45 192q-26 80 -11 128q27 84 106 139q79 56 174 54q51 -8 66 -13q89 -29 120 -96q10 -9 10 -54.5t-17 -145.5q-29 -166 -46 -272q-23 -145 -45 -292q-18 -118 -20 -149q0 -75 40 -145q34 -57 26 -100q-17 -69 -87 -109q-72 -41 -142 -47
q-83 -9 -130 33q-22 18 -31 69q-7 51 3 174q15 145 33 211q20 92 21 169q0 138 -25 254z" />
    <glyph glyph-name="m" unicode="m" horiz-adv-x="1674" 
d="M1600 184q16 -50 9.5 -85.5t-23 -59t-47 -36.5t-63.5 -18t-71 -3q-70 1 -119 19t-58 50q-9 47 -4 163q2 77 0 155q-1 78 -15 137q-7 28 -44 45t-82.5 8.5t-71.5 -46.5q-35 -65 -22 -152q13 -89 36 -159q3 -10 6 -18q15 -50 8.5 -85.5t-23 -59t-47 -36.5t-63 -18t-71.5 -3
q-70 1 -119 19t-58 50q-9 47 -4 163q6 202 -14 292q-18 59 -71 60t-129 -61q-4 -4 -19 -37v-61q0 -37 24 -141q32 -124 19 -161q-13 -42 -63 -83q-48 -40 -152 -35q-97 8 -140 40.5t-43 77.5q0 7 13 133q1 10 6.5 59t7.5 72q6 60 6 70q-19 119 -35 183q-22 88 -8 139
q16 57 87 96q70 39 149 34q77 -4 121 -80q14 -24 3 -132q91 69 166 115q89 51 170.5 65t148 -19t95.5 -117q-1 2 -1 5v12q1 2 56 31q57 30 135 56q81 27 166 25q86 -2 149 -59q64 -58 82 -200q4 -48 1 -136q-6 -187 16 -273z" />
    <glyph glyph-name="n" unicode="n" horiz-adv-x="1104" 
d="M1013 612q0 -39 -1 -64q-4 -65 -2 -176q1 -95 21 -169q15 -50 8.5 -85.5t-23 -58.5t-47 -36.5t-63 -18.5t-71.5 -4q-71 2 -119.5 20t-57.5 50q-9 47 -4 163q6 206 -15 292q-16 59 -69.5 59.5t-129.5 -60.5q-4 -4 -19 -37v-62q0 -36 24 -140q32 -124 19 -161
q-14 -44 -63 -84q-49 -38 -152 -34q-183 16 -183 118q0 7 13 133q2 15 7 61t7 69q6 61 6 70q-19 119 -35 183q-22 88 -8 140q16 57 87 96q70 39 149 34q77 -4 121 -80q14 -25 3 -132q85 65 166 114q79 46 154.5 61t138.5 -2t101 -83.5t37 -175.5z" />
    <glyph glyph-name="o" unicode="o" horiz-adv-x="906" 
d="M846 610q25 -73 24 -151q2 -77 -24 -151l-1 1v1q-11 -33 -21 -58.5t-28 -59t-38 -59t-50.5 -51.5t-66 -43t-84 -28t-104.5 -11q-151 1 -251 85q-99 85 -141 225v-1v-1q-26 76 -25 151q-1 75 25 151v-1q36 107 112 186t184 108q3 1 9.5 2t10.5 2v1q11 1 31 3q22 3 45 3
t45 -3q11 -1 31 -3v-1q4 -1 10 -2t10 -2q107 -28 184 -108q76 -79 112 -186q0 1 1 1zM390 283q111 -3 148 49t24 121q-14 70 -54 116q-40 48 -87 34q-45 -13 -74 -126q-6 -30 -9 -60.5t-1 -61.5t15.5 -51t37.5 -21z" />
    <glyph glyph-name="p" unicode="p" horiz-adv-x="1146" 
d="M111 283q-1 76 -21 168q-18 68 -33 212q-11 123 -3 174q9 51 31 69q46 42 130 32q58 -4 121 -35q62 -30 93 -81q18 12 27 17q35 19 65 31q115 57 251 36q113 -9 202 -86q37 -35 66 -83q100 -145 57 -324q-25 -179 -102 -256q-76 -76 -180 -79q-104 -2 -212 28
q-42 14 -99 51q-56 37 -92 65l-2 2l-2 2q19 -129 41 -171q20 -38 40 -145q29 -161 7 -200q-13 -28 -36.5 -49.5t-46.5 -32t-47.5 -17.5t-37.5 -8.5t-18 -1.5q-94 -3 -174 53q-79 55 -106 140q-8 36 -5.5 59.5t16.5 67.5q19 59 45 192q25 116 25 170zM749 486q3 110 -50 148
q-52 37 -121 24q-70 -14 -116 -54q-47 -41 -34 -87q13 -45 127 -74q30 -6 59.5 -9t61 -1t51.5 15.5t22 37.5z" />
    <glyph glyph-name="q" unicode="q" horiz-adv-x="1185" 
d="M1058 193q6 -12 8 -19q15 -93 29 -143q17 -59 27 -123q11 -65 2 -100q-28 -85 -107 -140q-80 -56 -173 -53q-5 0 -18 1.5t-38 8.5t-48 17.5t-46.5 32t-36.5 49.5q-21 40 8 200q17 87 37 140q19 104 43 251l-2 -2l-2 -2q-36 -28 -92 -65q-57 -38 -99 -51
q-84 -23 -161 -26.5t-146.5 13t-120 64t-71.5 123.5q-43 179 57 324q29 48 66 83q91 77 203 86q135 21 250 -36q30 -11 66 -31q9 -5 27 -17q31 51 92 81q63 31 121 35q85 10 131 -32q22 -18 30 -69q9 -49 -2 -174q-25 -230 -46 -333q-8 -48 12 -93zM400 442q1 -24 21 -37.5
t51.5 -15.5t61.5 1t59 9q113 29 126 74q13 47 -33 87t-116 54q-69 14 -122 -24q-52 -37 -48 -148z" />
    <glyph glyph-name="r" unicode="r" horiz-adv-x="832" 
d="M763 818q35 -30 48 -74t6 -87q-2 -15 -8 -34t-26.5 -48.5t-51.5 -46.5q-4 -4 -19.5 -9t-43 -8t-56.5 6q-31 11 -54 52q-14 24 -32 34q-53 20 -80 9.5t-32.5 -41.5t-2 -65t10.5 -60l8 -26q35 -112 47.5 -168.5t11 -77t-13.5 -49.5q-1 -1 -1 -3t-1 -3q-15 -44 -64 -84
q-47 -39 -151 -34q-50 4 -86.5 25t-54.5 50.5t-25.5 57t-5.5 50.5q4 47 20 80q12 32 16.5 53.5t5 69.5t-15.5 125t-48 188q-17 70 23 116q41 47 106 58q64 12 122 -26q57 -37 72 -137q0 106 106 150h1q43 15 127 6q86 -9 142 -49z" />
    <glyph glyph-name="s" unicode="s" horiz-adv-x="988" 
d="M84 762q22 46 59.5 84t70.5 59.5t80.5 41t69 25.5t55.5 15q267 71 386 -39q39 -36 62 -88q24 -53 1 -108q-30 -54 -96 -75q-64 -21 -123 -3q-41 16 -63 42q-40 38 -84 46q-62 12 -94 -20q-18 -22 -18 -55.5t18 -61.5q20 -30 56 -42t101 -18q153 -18 261 -67
q52 -24 80.5 -42.5t45.5 -45.5q44 -80 14 -177q-30 -94 -98 -166q-136 -142 -418 -118q-53 5 -109 19t-113 37t-97 59.5t-47 80.5q-7 46 17 92q23 45 67 65q48 17 104 -3t94 -46q42 -29 63 -47q46 -45 84 -41q29 3 62 29q19 11 44 43t19 65q-14 46 -94 68q-59 19 -130 12
q-35 -3 -69 -2q-112 10 -177 41q-54 27 -84 67q-27 36 -35 82t2 89.5t17.5 64.5t15.5 38z" />
    <glyph glyph-name="t" unicode="t" horiz-adv-x="769" 
d="M719 1186q78 -5 100 -52q24 -47 11 -98q-12 -51 -43 -67q-27 -11 -86 1q-45 9 -138 18q-12 -74 -20 -107q-21 -89 -22 -169q2 -138 25 -254q24 -126 46 -192q13 -46 16 -68.5t-5 -59.5q-28 -85 -107 -140q-78 -55 -173 -53q-145 18 -187 109q-20 38 7 200q27 150 53 322
q28 175 48 313q-64 -17 -148 -23q-77 5 -100 52q-23 48 -10 98q12 50 42 67q27 11 87 -1q47 -9 122 -17q-10 24 -23 47q-34 57 -26 100q16 68 87 108q71 43 142 47q82 12 131 -32q38 -33 33 -170q59 15 138 21z" />
    <glyph glyph-name="u" unicode="u" horiz-adv-x="1105" 
d="M87 249q0 38 1 63q3 70 1 176q-2 100 -20 170q-16 49 -9.5 84.5t23.5 59t47.5 36.5t63 18t71.5 4q71 -2 119.5 -19.5t57.5 -49.5q8 -56 4 -163q-2 -102 -1 -156q1 -79 15 -136q16 -60 70 -60.5t130 61.5q4 4 19 37v61q0 42 -25 140q-30 129 -18 161q14 44 62 83
q50 41 153 36q97 -8 139.5 -40.5t42.5 -78.5q0 -22 -13 -132q-1 -14 -13 -132q-6 -60 -6 -69q19 -119 35 -183q22 -88 8 -140q-18 -56 -88 -95t-148 -34q-78 4 -121 79q-14 25 -3 133q-93 -71 -167 -115q-62 -36 -123 -54t-117 -14t-98.5 31.5t-67.5 88t-24 149.5z" />
    <glyph glyph-name="v" unicode="v" horiz-adv-x="1002" 
d="M973 867q0 -1 1 -2q25 -45 -6 -143q-91 -281 -160 -432q-71 -156 -124 -222q-54 -66 -95 -80t-71 -11h-10q-12 0 -19 -1q-31 -4 -73 9q-41 12 -95 78q-55 69 -121 222q-69 159 -152 437q-30 102 -5 144q0 1 1 1q9 19 25.5 36t33 28t35.5 20t33 13.5t25 7.5l12 4
q80 15 142 -14t84 -87q8 -30 -11 -71q-42 -94 -9 -208q15 -47 29.5 -91t26.5 -81t16 -49l22 -64q-4 17 86 317q32 112 -4 186q-15 42 -8 61q24 59 85.5 87.5t140.5 13.5l11 -4q11 -3 25 -7.5t33 -13.5t36.5 -20t33.5 -28t26 -36z" />
    <glyph glyph-name="w" unicode="w" horiz-adv-x="1575" 
d="M1565 838q17 -31 -5 -144q-56 -280 -119 -431q-63 -153 -126 -219q-63 -64 -117 -78t-90 -9h-14h-15h-32t-37 4.5t-44.5 13.5t-46 28t-50.5 46t-50.5 70t-52.5 98q-40 -135 -87 -191t-67 -57q-2 -1 -5 -1t-4 -1q-31 -11 -93 -9t-139 59q-77 58 -160 216q-81 155 -155 462
q-25 111 -7 143q11 19 29.5 35.5t38 27.5t41 20.5t37 14.5t29.5 8l13 4q94 16 164 -12q71 -28 96 -84q10 -22 -21 -60q-23 -26 -41 -68q-18 -43 -5 -115q38 -179 66 -242q30 -63 53 -46q45 26 81 299q0 4 0.5 6t1 5.5t0.5 5.5q1 14 3 22q-3 11 -7 35q-22 113 -5 144
q18 35 59.5 61.5t70.5 36t37 9.5q82 16 144 -14q62 -29 85 -86q9 -28 -14 -73q-36 -68 -49 -168q-11 -138 37 -227q50 -89 101 -89q52 0 100 89q49 88 38 227q-13 100 -49 168q-23 45 -14 73q24 59 86 87t143 13q8 0 37 -9.5t70 -36t60 -61.5z" />
    <glyph glyph-name="x" unicode="x" horiz-adv-x="1029" 
d="M713 497q95 -94 156 -172.5t83.5 -124.5t26.5 -83t-1 -50t-13 -23q-1 -2 -3 -4q-35 -57 -131 -64q-96 -8 -181 43q-30 19 -45.5 44t-31.5 69q-18 55 -73 155q0 1 -1 2t-1 2t-1 1l-1 2q-48 -55 -63 -128q-16 -71 -60 -103q-62 -42 -145 -57t-145 36q-36 33 -47.5 84
t4.5 98q11 33 33.5 53.5t66.5 44.5q31 17 82 53q78 59 132 123q-50 55 -112 101q-48 34 -83 53q-43 25 -66 45.5t-34 52.5q-16 47 -4 98t47 84q62 51 146 36q84 -14 144 -57q44 -31 60 -103q7 -45 41 -100q47 93 61 134q16 44 31.5 69t45.5 45q85 49 181 42t131 -64
q1 0 1 -1t1 -2q8 -11 13 -23t2 -48.5t-24 -80t-77.5 -118.5t-145.5 -164z" />
    <glyph glyph-name="y" unicode="y" horiz-adv-x="996" 
d="M973 886q17 -29 -5 -130q-16 -78 -58 -226q-43 -156 -112 -331q-70 -180 -166 -327q-97 -150 -219 -214q-123 -66 -271 6q-56 32 -82 109q-25 75 -7 157q19 80 96 127q42 26 113.5 17t80.5 -52q5 -37 -25 -74q-8 -11 -16 -28q7 -33 19.5 -46t31.5 -6q37 13 60 71
q25 64 52 178q-56 5 -129 50q-76 48 -151 181q-75 134 -137 408q-21 105 -5 130q6 10 14.5 20t18 17.5t20.5 14.5t21 12.5t21.5 10t20.5 8t18 6t15 4t11 3.5l5 1q80 14 141 -11.5t85 -78.5q9 -27 -14 -66q-36 -65 -48 -153q-11 -124 37 -204q48 -81 121 -142q29 63 51 130
q23 69 63 216q-13 93 -48 153q-23 39 -14 66q24 53 85 78.5t141 11.5l5 -1q5 -2 11 -3.5t15 -4t18 -6t20.5 -8t21.5 -10t21 -12.5t20.5 -14.5t18 -17.5t14.5 -20z" />
    <glyph glyph-name="z" unicode="z" horiz-adv-x="846" 
d="M595 277q104 1 137.5 -3t45.5 -19q35 -50 11 -132q-22 -80 -87 -115q-34 -15 -89 5q-43 19 -137 27q-28 1 -66 -4q-40 -7 -149 -17q-119 -13 -159.5 -11t-55.5 21q-15 18 -18.5 46.5t0 48.5t8.5 34q-1 6 5 17q12 29 77 94q13 13 39 41q89 90 169 192q62 90 84 157
q2 4 13 32q-43 -7 -140 -17q-119 -12 -159.5 -9.5t-55.5 20.5q-36 42 -11 129q18 75 75 108q39 18 108 4q3 0 10 -1.5t11 -2.5q44 -8 99 -2q110 11 256 12q103 3 137 -1.5t46 -19.5q28 -35 20 -95t-41 -106q-8 -24 -78 -98q-46 -50 -148 -154q-119 -122 -140 -149
q-12 -16 -32 -41q60 4 215 9z" />
    <glyph glyph-name="braceleft" unicode="{" 
d="M655 1305q1 -25 6 -108q4 -81 15 -167q10 -86 24 -117q28 -51 40 -66q17 -23 16 -39q-3 -31 -34 -62t-60 -47l-29 -16q38 0 69 -6q1 0 11 -3t22.5 -8.5t20.5 -11.5q37 -31 -23 -163q-31 -79 -54 -202q-24 -130 -31 -225q-7 -102 7 -132q1 -3 7 -9.5t20 -16t29 -12.5
q29 -5 70 18q34 21 64 20q39 -4 69 -36q29 -31 31 -69q-5 -56 -65 -90q-60 -35 -124 -45q-113 -12 -214 41q-102 53 -121 132q-6 39 11 120q15 66 44 171q32 116 50 207q21 97 7 148q-5 17 -23 38q-32 32 -103 34q-59 6 -75 23q-23 30 -9 74q13 44 53 70q27 14 55 15
q39 2 68 23q21 19 34 48q10 39 -8 136q-16 95 -45 196q-28 100 -48 156q-42 143 22 221q28 33 71.5 52t90 23t75 4t54.5 -3q48 -6 98.5 -20.5t92.5 -42.5t43 -61q-2 -43 -46 -77q-44 -35 -99 -38q-45 2 -75 18q-35 19 -59 10q-45 -20 -45 -105z" />
    <glyph glyph-name="bar" unicode="|" 
d="M640 -283q-17 -89 -76 -117q-58 -28 -118 -13q-58 13 -72 51q-3 17 -3 149q0 63 2 333q3 396 0 812q-1 413 -26 559q16 87 75 101q60 13 118 -15q60 -29 73 -66q5 -31 -6 -279q-7 -218 -15 -512q-6 -281 2 -566q9 -276 46 -437z" />
    <glyph glyph-name="braceright" unicode="}" 
d="M400 1305q0 86 -45 106q-21 7 -59 -10q-32 -18 -75 -19q-56 5 -100 38q-43 34 -45 77q1 25 25 47t61 37.5t75 25.5t73 15q210 20 290 -77q25 -30 35 -66.5t5.5 -71.5t-8.5 -51.5t-9 -31.5q-19 -56 -48 -156q-27 -96 -46 -196q-17 -97 -7 -135q11 -29 34 -48
q25 -18 68 -24q26 -1 55 -15q38 -24 52 -69q14 -46 -8 -74q-18 -21 -75 -23q-74 -6 -103 -35q-18 -21 -23 -38q-14 -49 6 -147q21 -98 51 -207q31 -113 43 -172q18 -79 12 -120q-19 -79 -121 -132q-100 -52 -214 -40q-63 9 -125 45q-60 35 -65 89q2 38 32 70q29 30 69 35
q29 1 64 -20q39 -22 70 -18q8 2 16 5.5t13.5 7.5t11 8.5t8 7.5t5.5 6l2 3q14 28 6 132t-30 225q-22 118 -55 203q-59 132 -22 163q12 8 54 22q30 6 69 6l-6 3q-7 4 -17 10t-23 15t-26 20t-24 23t-18.5 26.5t-8.5 27.5q-1 16 16 39q11 15 40 66q13 31 24 117t15 167
q4 83 6 108z" />
    <glyph glyph-name="asciitilde" unicode="~" 
d="M838 847q25 -11 28 -64q4 -78 -50 -133q-60 -61 -172 -61q-78 0 -109 15t-49 36q-18 18 -46 34q-19 9 -89 -27q-35 -19 -82 -35q-40 -13 -69 7q-9 8 -12 33t2 55t30.5 59.5t68.5 42.5q24 7 45 16q51 23 113 31t117 -50t106 -42t93 51q53 40 75 32z" />
    <glyph glyph-name="exclamdown" unicode="&#xa1;" horiz-adv-x="632" 
d="M193 791q-23 71 18 142q40 72 151 87q99 11 173 -7q76 -17 98 -81q25 -68 -8 -135q-31 -65 -161 -94q-95 -19 -172 2q-75 21 -99 86zM515 609q54 -28 86 -140l-43 -484q-1 -90 3 -142q5 -43 0.5 -74t-24.5 -53q-52 -50 -139 -52q-87 -1 -163 42q-21 11 -50 36t-46 71
q-9 41 -3 67.5t29 76.5q20 42 49 125q43 150 54 236q15 110 16 156q2 52 9.5 78.5t27.5 45.5q39 32 94 35t100 -24z" />
    <glyph glyph-name="cent" unicode="&#xa2;" horiz-adv-x="1142" 
d="M607 276h6q104 4 201 77q1 1 4 3q66 53 101 73t66 18q56 -6 82 -50q19 -44 -2 -93q-20 -47 -38 -73q-45 -71 -134 -134q-84 -59 -191 -92q-96 -29 -186 -15q-3 -15 -7 -45q-14 -118 -74 -200q-52 -66 -109 -55q-56 11 -96 65q-39 52 -47 119q-2 52 55 187l16 40
q-41 31 -74 73q-104 131 -108 292q-4 162 82 309q87 147 254 230q98 56 210 50q28 -2 53 -9q10 48 24 88q23 65 67 96q27 18 61.5 21.5t67.5 -8.5t59.5 -35.5t38.5 -66t3 -95.5q-10 -53 -38 -106q-22 -42 -47 -73q4 -12 10 -38q19 -118 -22 -193q-40 -71 -106 -97
q-39 -15 -76 -13q-45 -102 -101 -239q-4 -8 -5 -11zM579 786q-12 -2 -19 -5q-67 -23 -119 -93q-53 -69 -60 -130q-7 -87 14 -149q110 226 134 275q11 22 50 102z" />
    <glyph glyph-name="sterling" unicode="&#xa3;" horiz-adv-x="1212" 
d="M1174 283q18 -9 27.5 -43.5t1.5 -80t-32 -89t-81.5 -73.5t-138.5 -30q-112 0 -163 18q-50 17 -91 44q-9 5 -29 17q-17 8 -39.5 9t-52 -6t-55 -15.5t-62.5 -22.5q-100 -42 -174 -44q-119 18 -149 95q-29 78 30 137l2 2q142 122 166 204q37 125 -4 158q-21 17 -79 -7
q-61 -28 -94 -10q-30 17 -44.5 67t-6.5 101.5t35 72.5q32 22 105 -9q69 -30 97 -9q16 14 17 45t-7 69q-21 97 -6 184q22 113 105 202q81 87 195 122q111 31 228 2t163 -120q19 -41 17 -101q-1 -55 -38 -96q-20 -22 -49.5 -32.5t-57.5 -2.5q-26 9 -49 50q-16 36 -45 51
q-38 15 -84 -1q-45 -15 -73 -52q-21 -33 -15 -91q6 -47 -5 -168q-2 -14 -3 -20q-6 -38 3 -50q21 -27 107 -4q101 29 148 -4q47 -45 47 -128q1 -82 -43 -122q-37 -26 -120 10q-82 36 -119 7q-19 -16 -24 -71q1 -51 -33 -135q-4 -7 -21 -33q19 8 36 15q56 30 115 27
q60 -3 158 -92q53 -45 102 -29q50 17 93 48q62 43 89 34z" />
    <glyph glyph-name="currency" unicode="&#xa4;" 
d="M755 523q42 -25 97 -65q50 -34 66 -63q16 -43 -15 -76q-33 -33 -78 -37q-47 -3 -196 143q-51 -20 -130 -22q-73 0 -132 24q-151 -148 -199 -145q-45 4 -78 37q-31 32 -14 76q17 30 67 65q47 33 100 65q-33 45 -51 101l-1 -1q-20 55 -19 109q-1 53 19 108h1v-1
q13 37 37 74q-54 33 -93 62q-46 35 -60 60q-17 43 14 75q32 34 78 38q32 -2 84 -42q48 -37 95 -84q30 17 76 29q3 1 8 2t8 1l24 3q12 1 36 1q23 0 35 -1l24 -3q2 0 7.5 -1t8.5 -2q41 -10 74 -28q41 41 94 83q53 41 83 42q46 -4 78 -38q31 -33 15 -75q-14 -26 -60 -59
q-43 -32 -91 -61q25 -38 38 -76q1 0 1 1q20 -55 19 -108q1 -54 -19 -109v1h-1q-18 -55 -50 -103zM426 582q52 -2 92 7t63 26.5t37 41.5t14 51t-6 55q-16 68 -65 115q-48 46 -101 31q-54 -15 -85 -129q-8 -31 -11 -61.5t-1 -62.5t18 -52.5t45 -21.5z" />
    <glyph glyph-name="yen" unicode="&#xa5;" horiz-adv-x="1142" 
d="M1009 1307q16 -30 -4 -143q-116 -626 -321 -717q33 -137 61 -206q11 -30 11 -32q24 -136 9 -173q-16 -41 -55.5 -70.5t-61.5 -36.5t-35 -10q-78 -13 -144 24q-66 38 -90 107q-17 45 -9.5 97t52.5 187q18 55 27 115q-203 94 -317 715q-20 113 -4 143q9 18 24.5 34.5
t31.5 27t34 20t31 14t24 7.5l11 4q76 16 135 -14q58 -28 79 -86q9 -26 -13 -72q-35 -72 -45 -168q-11 -137 34 -225q40 -75 95 -208q50 123 93 208q46 87 35 225q-10 96 -45 168q-22 46 -13 72q21 58 79 86q59 30 135 14l11 -4q11 -3 24 -7.5t31 -14t34 -20t31.5 -27
t24.5 -34.5zM1041 512q45 -6 62.5 -28.5t9 -44t-28.5 -26.5q-12 -1 -260 -1q-287 2 -439 1q-230 -2 -302 -10q-34 3 -47.5 18t-9 32t18 31.5t27.5 17.5q25 2 151 -2q119 -3 276 -6q174 -2 306 1q144 3 236 17zM1041 730q45 -6 62.5 -28.5t9 -44t-28.5 -26.5q-12 -1 -260 -1
q-287 2 -439 1q-230 -2 -302 -10q-44 4 -53.5 27t6.5 45.5t36 26.5q25 2 151 -2q119 -3 276 -6q174 -2 306 1q144 3 236 17z" />
    <glyph glyph-name="brokenbar" unicode="&#xa6;" 
d="M640 625q-17 -38 -76 -50t-118 -6t-72 22q-6 16 -1 208q3 170 0 349q-1 177 -26 240q17 38 75 44q61 6 118 -7q60 -12 73 -28q5 -13 -6 -120q-8 -96 -15 -220q-6 -121 2 -244q9 -119 46 -188zM640 -352q-17 -38 -76 -50t-118 -6t-72 22q-6 14 -1 207q3 171 0 350
q-1 177 -26 240q17 38 75 44q61 6 118 -7q60 -12 73 -28q5 -14 -6 -120q-8 -96 -15 -220q-6 -121 2 -244q9 -118 46 -188z" />
    <glyph glyph-name="section" unicode="&#xa7;" horiz-adv-x="1197" 
d="M1071 721q65 -83 57 -192q-6 -108 -53 -211q51 -64 53 -160t-29.5 -182t-81.5 -158q-41 -58 -95 -103.5t-104.5 -70t-81 -36t-52.5 -16.5q-135 -34 -278 -13q-140 21 -245 84q-105 62 -133 155q-19 78 13 158q32 77 94 100q60 14 118 -19q59 -31 97 -63q68 -56 93 -93
q18 -24 33 -36.5t36 -15.5q67 -7 133 48q65 54 82 138q7 56 -16 113q-22 54 -70 73q-40 10 -94 -15q-2 -1 -6.5 -3t-7.5 -3q-112 -42 -243 -22q-132 21 -208 94q-125 129 -17 418q-59 85 -49 191t44 193q33 85 43 101q25 55 80 129q56 73 157 119q71 29 149 30t147.5 -22
t127.5 -56.5t103 -75.5l11 -11q10 -10 19.5 -20t24 -27.5t26 -33.5t22.5 -36.5t17 -38t6 -36.5t-8 -34q-33 -53 -128 -62q-96 -8 -184 31q-55 26 -103 84q-21 26 -38 38t-42 12q-59 -4 -106 -66q-46 -59 -55 -130q-6 -44 11 -72q17 -26 55 -37.5t106 -14.5q127 -5 180 -1
q21 1 57 1q19 0 49.5 -3.5t85.5 -14t109 -38t89 -68.5zM501 447q127 -5 180 -1q17 1 47 1q3 55 -21 105q-23 50 -66 66q-38 12 -94 -14q-2 -1 -7 -3t-7 -3q-94 -36 -204 -26v-1q-6 -44 11 -72q17 -26 55 -37.5t106 -14.5z" />
    <glyph glyph-name="dieresis" unicode="&#xa8;" horiz-adv-x="1024" 
d="M480 1330q14 -56 -13 -110q-25 -55 -99 -67q-151 -19 -179 68q-16 52 5 104q23 51 107 72q66 16 115 -1t64 -66zM846 1321q14 -56 -13 -110q-25 -55 -99 -67q-151 -19 -179 68q-16 52 5 104q23 51 107 72q66 16 115 -1t64 -66z" />
    <glyph glyph-name="copyright" unicode="&#xa9;" horiz-adv-x="1491" 
d="M1084 581q12 -29 -1 -60t-25 -47q-47 -72 -146 -122q-96 -49 -196 -32q-89 19 -152.5 66.5t-91.5 108t-30.5 131.5t21.5 136t74.5 122t120.5 90q64 36 136 32q31 -1 61 -15q52 -16 87.5 -49t44.5 -81q14 -104 -34 -153q-46 -49 -104 -43q-57 6 -70 69q-3 24 33 43
q20 9 16 16q-30 51 -72 36q-43 -15 -77 -60q-35 -45 -39 -84q-7 -69 19 -115t69 -59.5t95 -3t97 44.5l1 1q1 1 2 1q43 35 65.5 48t42.5 11q37 -4 53 -32zM1357 995q37 -82 48.5 -171.5t8.5 -205.5v-25q-1 -169 -98 -294q-95 -125 -247 -197q-152 -71 -322 -81
q-98 -5 -190 12t-175.5 61t-147 110t-104 166t-47.5 223q-15 246 58 402q58 121 160 214q16 14 56.5 38.5t101 54t140 50t151.5 20.5q71 0 150 -20.5t139 -50t100.5 -54t56.5 -38.5q104 -95 161 -214zM747 133q142 8 268 66.5t207.5 167t81.5 243.5v21q1 101 -8 174t-40 141
q-48 98 -134 178q-14 12 -47 32t-84 45.5t-116.5 42.5t-125.5 16q-109 2 -221.5 -49.5t-152.5 -86.5q-86 -80 -134 -178q-61 -134 -48 -336q7 -127 57 -224t128 -152t172 -80.5t197 -20.5z" />
    <glyph glyph-name="ordfeminine" unicode="&#xaa;" horiz-adv-x="684" 
d="M228 862q-19 3 -28 3q-101 8 -156 68q-55 61 -43 143q6 31 19 58.5t45 53t76 33.5t118 -10.5t166 -69.5q-4 31 -23.5 71.5t-48.5 52.5q-52 16 -116 11q-43 -3 -71 2.5t-51 27.5q-32 37 -16 67.5t71 52.5q51 21 239 -14q186 -34 218 -234q32 -201 -11 -252
q-42 -53 -117 -68q-73 -15 -151 -10q-69 6 -120 14zM250 1052q-1 -30 13.5 -48t37.5 -23t47.5 -2t46.5 12q41 18 33 45q-7 27 -84 44q-34 6 -62 -1t-32 -27zM564 738q22 -6 31 -28.5t5 -44t-14 -26.5q-7 -1 -130 -1q-143 2 -220 1q-114 -2 -151 -10q-22 5 -26.5 28t3 44.5
t18.5 26.5q11 2 75 -2q319 -17 409 12z" />
    <glyph glyph-name="guillemotleft" unicode="&#xab;" horiz-adv-x="1054" 
d="M509 149q-3 -7 -11 -11t-25 -1t-40 16q-116 67 -192.5 116t-117 78t-59.5 53.5t-21.5 36t-1.5 31.5v11v11q-1 23 1 36.5t21.5 43t58.5 58.5t117.5 75t193.5 102q61 30 76 4q42 -71 -86 -171q-26 -21 -56 -42t-68.5 -43t-51.5 -29.5t-53 -28.5t-24 -13q-3 -1 -4 -2h-1
l21 -12q21 -13 55.5 -34.5t75 -49t79 -59.5t68.5 -62.5t43 -61t2 -52.5zM931 149q-3 -7 -11 -11t-25 -1t-40 16q-116 67 -192.5 116t-117 78t-59.5 53.5t-21.5 36t-1.5 31.5v11v11q-1 23 1 36.5t21.5 43t58.5 58.5t117.5 75t193.5 102q61 30 76 4q42 -71 -86 -171
q-26 -21 -56 -42t-68.5 -43t-51.5 -29.5t-53 -28.5t-24 -13q-3 -1 -4 -2h-1l21 -12q21 -13 55.5 -34.5t75 -49t79 -59.5t68.5 -62.5t43 -61t2 -52.5z" />
    <glyph glyph-name="logicalnot" unicode="&#xac;" 
d="M133 807q29 7 57 3q90 -12 349 -3q141 6 222 7h12h35h11q51 0 86.5 -31.5t38.5 -78.5q3 -99 6 -180q8 -209 4 -230q-8 -27 -48.5 -50.5t-88 -20t-67.5 48.5q-12 26 -7 56q11 86 15 274q0 16 -18 16q-140 0 -205 -1q-122 -1 -303 -1q-119 0 -134 3q-18 4 -31.5 21
t-17 40.5t1 48t26 46t56.5 32.5z" />
    <glyph glyph-name="registered" unicode="&#xae;" horiz-adv-x="1674" 
d="M1497 1036q40 -86 52.5 -180.5t9.5 -218.5v-26q-2 -179 -105 -311t-266 -208q-160 -75 -345 -86q-174 -9 -333 50q-156 58 -261 196q-103 136 -120 359q-16 261 62 425q62 125 172 225q27 23 90.5 59.5t177.5 75t214 38.5q101 0 214 -38.5t177 -75t89 -59.5
q110 -100 172 -225zM843 125q113 5 220 43.5t191.5 102t136 157t50.5 201.5q-1 7 -1 22q5 210 -51 333q-51 104 -144 188q-42 37 -162 91.5t-238 52.5q-94 0 -180 -31q-89 -31 -146 -64q-60 -35 -76 -49q-93 -84 -144 -188q-66 -142 -51 -355q6 -108 42 -196t93 -146.5
t132 -97t157.5 -54t170.5 -10.5zM1207 419q0 -53 -43 -55h-13h-43.5t-40 1t-38.5 2.5t-33.5 4.5t-30.5 7.5t-23.5 10.5t-19 15.5t-10.5 20.5t-4.5 26t5.5 33q33 109 -46 137q-29 10 -43 5q-7 19 -24 -1q1 -6 -1 -47q-2 -72 -8 -117q-8 -55 -30 -71q-18 -11 -48.5 -16
t-49.5 -4t-26 1q-57 5 -99 26t-50 47q-5 15 19 35q18 15 47 53q16 26 25 97q11 71 15 131l2.5 25t1.5 16q-3 18 -9 38q-21 57 -41 83q-25 36 -15 59q8 18 55 35.5t112.5 29t140 12t137.5 -12t104.5 -49.5t41.5 -93q-1 -49 -31 -89q-10 -13 -21.5 -24.5t-19.5 -18.5
t-23.5 -16t-20.5 -12t-23 -12l-20 -10q26 -8 41 -11q28 -6 72 -36q45 -29 42 -73q-3 -53 10 -98q14 -46 33 -54q43 -15 44 -31zM863 836q41 84 -52 88q-16 0 -25.5 -8t-7.5 -19q10 -57 14 -120q37 -2 71 59z" />
    <glyph glyph-name="overscore" unicode="&#xaf;" horiz-adv-x="729" 
d="M99 1450q27 12 49 10.5t68 -13.5q141 -26 129 -38h32q101 7 155 26q37 11 56 12t45 -12q49 -38 56 -107q8 -71 -29 -113q-15 -17 -49 -18q-25 -1 -115 7q-5 1 -15.5 1.5t-15.5 0.5q-150 19 -211 -6q-74 -20 -128 -5q-75 26 -98 80q-17 51 5 100q23 51 66 75z" />
    <glyph glyph-name="degree" unicode="&#xb0;" horiz-adv-x="674" 
d="M583 1390q52 -70 51 -160q2 -88 -51 -159q-61 -74 -159 -94q-97 -18 -185 11q-28 8 -80 39q-54 34 -85 102q-21 51 -18 101q-3 54 18 101q31 68 85 102q51 32 80 40q86 28 185 10q98 -18 159 -93zM436 1309q-22 35 -61 46t-71 -5q-15 -4 -33.5 -22t-29.5 -48
q-8 -14 -7 -50q-1 -31 7 -50q11 -30 29.5 -47.5t33.5 -22.5q32 -16 71 -5t61 46q20 35 20 79t-20 79z" />
    <glyph glyph-name="plusminus" unicode="&#xb1;" horiz-adv-x="873" 
d="M787 880q57 -43 79 -112q23 -70 -5 -118q-16 -30 -71 -34q-54 -4 -184 3q-23 0 -34 1q-3 -114 -15 -168q-10 -53 -47 -82q-42 -33 -98 -44q-54 -9 -92 17q-23 19 -25 58t11 97q9 44 17 130q-122 1 -186 13q-58 12 -87 50q-33 41 -44 97q-9 54 17 92q19 24 58 26t97 -11
q68 -13 139 -19q-1 8 -10 65q-13 52 -11 92t24 74q43 57 112 79q70 23 118 -5q29 -16 34 -72q5 -61 -2 -184q-1 -6 -1.5 -19t-0.5 -19q25 3 41 7q51 12 92 10t74 -24zM125 193q27 12 49 10.5t68 -13.5q21 -6 104 -23q157 -30 257 -26q101 7 155 26q37 11 56 12t45 -12
q49 -38 56 -107q8 -71 -29 -113q-15 -17 -49 -18q-25 -1 -115 7q-5 1 -15.5 1.5t-15.5 0.5q-300 28 -354 18q-36 -7 -57 -13q-74 -20 -128 -5q-75 26 -98 80q-17 51 5 100q23 51 66 75z" />
    <glyph glyph-name="uni00B2" unicode="&#xb2;" horiz-adv-x="1142" 
d="M885 829q7 -43 -9.5 -85.5t-51.5 -62.5q-23 -6 -34.5 -3.5t-36.5 14.5q-18 10 -37 18q-104 13 -264 -17q-46 -9 -74 -9q-25 0 -44 11q-20 11 -38 67q-26 94 14.5 166t128.5 135q132 96 196 187q27 35 33 70q7 35 -40 85q-22 18 -54.5 18t-57.5 -18q-34 -27 -34 -92
q-2 -54 -25 -71q-24 -14 -58.5 0.5t-61 50t-26.5 75.5q0 30 11.5 64t37.5 68.5t62 60t92 36.5t121 0q129 -19 187 -118.5t20 -288.5q-10 -42 -34 -77t-58.5 -60.5t-62 -40.5t-62.5 -30q-3 -1 -11 -5q-28 -13 -56.5 -38t-43.5 -51q1 0 7 3q16 8 34 15.5t52.5 19t65.5 17.5
t67.5 5.5t64.5 -11t50 -38t30 -70.5z" />
    <glyph glyph-name="uni00B3" unicode="&#xb3;" horiz-adv-x="1142" 
d="M915 995q14 -82 -36 -158t-121 -118q-106 -62 -226 -52q-119 10 -202 92q-59 63 -79 151t21 127q31 25 79 21q48 -3 83 -33q24 -24 32 -73q6 -48 31 -73q34 -31 83 -35t94 22q27 16 32 91t-23 92q-31 19 -89 9q-51 -13 -89 5q-31 18 -48 48t-10 60q7 22 24.5 36t31.5 19
q35 14 67 13q35 10 58 36t25 60q1 48 -28.5 81.5t-77.5 38.5q-47 1 -84 -27q-36 -28 -41 -75q0 -15 3 -29q-7 -43 -31 -54q-43 -19 -98.5 27t-50.5 106q3 37 26.5 76t69.5 74.5t114.5 47.5t162.5 -6q66 -15 118 -48.5t84.5 -84t31.5 -122t-41 -153.5q-8 -17 -29 -31
q113 -62 133 -161z" />
    <glyph glyph-name="acute" unicode="&#xb4;" horiz-adv-x="1024" 
d="M403 1107q-42 -17 -80.5 10t-42.5 53q0 7 3.5 13.5t9 11t18.5 13.5q19 14 51 39q28 22 65 68q41 55 116 80q66 19 112.5 1t71 -55t14.5 -70q-11 -30 -50.5 -51t-114.5 -46q-77 -26 -173 -67z" />
    <glyph glyph-name="mu" unicode="&#xb5;" horiz-adv-x="1180" 
d="M1118 263q24 -23 15 -72q-9 -47 -57 -82q-47 -33 -141 -10q-22 8 -59 81q-10 25 -17 30q-24 -68 -70 -102.5t-103 -34t-113.5 18t-113.5 50.5q-19 11 -32.5 26t-49.5 64q8 -101 23 -179q37 -56 56 -112q13 -44 16 -67t-5 -60q-28 -85 -107 -140q-80 -56 -173 -53
q-5 0 -18 1.5t-38 8.5t-48 17.5t-46.5 32t-36.5 49.5q-21 40 8 200q8 29 34 191q26 161 45 291q19 129 21 151q1 73 -40 145q-34 57 -26 99q17 69 87 109q72 41 142 47q85 10 131 -32q22 -18 30 -69q9 -49 -2 -174q-10 -83 -31 -143q-26 -74 -11 -111q14 -33 44 -47t60 -10
t55.5 21t32.5 42q20 90 14 292q-4 108 4 163q9 33 58 50.5t119 18.5q39 2 71.5 -3t63 -18t47 -36.5t23 -59t-8.5 -85.5q-18 -65 -31 -137.5t-12 -150.5t25 -114q34 -44 120 -76q31 -10 45 -21z" />
    <glyph glyph-name="paragraph" unicode="&#xb6;" horiz-adv-x="1024" 
d="M486 1435h443v-70h-127v-1365h-82v1365h-166v-1365h-84v738q-174 8 -276 102q-101 95 -101 246q0 157 107 253q108 96 286 96z" />
    <glyph glyph-name="middot" unicode="&#xb7;" horiz-adv-x="508" 
d="M476 772q21 -70 -17 -142q-37 -72 -141 -87q-88 -10 -161 7q-69 16 -92 81q-23 70 7 135q31 66 151 94q89 19 160 -2q70 -19 93 -86z" />
    <glyph glyph-name="middot" unicode="&#x2219;" horiz-adv-x="508" 
d="M476 772q21 -70 -17 -142q-37 -72 -141 -87q-88 -10 -161 7q-69 16 -92 81q-23 70 7 135q31 66 151 94q89 19 160 -2q70 -19 93 -86z" />
    <glyph glyph-name="cedilla" unicode="&#xb8;" horiz-adv-x="1024" 
d="M570 -11q20 -20 -27 -73q-13 -14 -7 -13q39 11 89 -2q49 -13 74 -34q37 -39 29 -101q-7 -60 -48 -107q-39 -44 -104 -60t-118 -4.5t-69 40.5q-10 22 -3.5 48t25.5 40q10 7 39 5q18 -2 51 0q65 4 77 13q3 3 5 6q7 15 -2 33t-29 28q-30 11 -66 11q-39 0 -66 12
q-10 6 9.5 71.5t34.5 84.5q18 18 50.5 19t55.5 -17z" />
    <glyph glyph-name="uni00B9" unicode="&#xb9;" horiz-adv-x="1142" 
d="M709 1015q19 -40 36 -58q22 -27 22 -49q-3 -32 -30 -51t-64 -20q-123 -6 -171 5q-46 10 -58 48q-7 17 19 50q28 32 38 70q23 100 4 213q-10 49 -4 85q-1 0 -2 -2q-4 -7 -12.5 -14.5t-24.5 -15t-42 -6.5t-58 14q-30 14 -38.5 33.5t9.5 44.5q19 20 53 27q22 3 58 20
q29 17 43 53q5 46 37.5 77t77.5 31q47 0 80 -34q34 -34 34 -82q0 -20 -1 -50q0 -17 -1 -39.5t-2 -54.5t-2 -53q-2 -87 -3 -159q-1 -69 2 -83z" />
    <glyph glyph-name="ordmasculine" unicode="&#xba;" horiz-adv-x="634" 
d="M585 1252q17 -46 16 -90q1 -45 -16 -91q0 1 -1 1q-12 -35 -27.5 -63t-44 -57.5t-76 -47t-110.5 -18.5q-97 0 -163.5 50t-95.5 136v-1q-17 46 -16 91q-1 44 16 90v-1q24 66 75 113t120 64q3 0 7.5 1t6.5 1v1q3 1 9.5 1t10.5 1q10 1 30 1t30 -1q4 -1 10.5 -1t9.5 -1v-1
q3 0 7.5 -1t6.5 -1q69 -17 119.5 -64t74.5 -113q1 0 1 1zM285 1056q98 -5 113 61q11 47 -23 95q-32 46 -68 37q-34 -10 -51 -77q-25 -111 29 -116zM562 777q22 -6 31 -40.5t4.5 -68t-14.5 -39.5q-6 -3 -130 -1q-107 2 -220 0q-115 -2 -150 -14q-22 6 -27 40.5t3 68t18 39.5
q9 2 75 -3q317 -27 410 18z" />
    <glyph glyph-name="guillemotright" unicode="&#xbb;" horiz-adv-x="1053" 
d="M51 149q-26 61 98 164q79 67 246 167q-65 32 -145 79q-257 160 -199 250q15 25 76 -4q114 -56 192.5 -102t117 -75t58.5 -58.5t22 -43t2 -36.5v-11v-11q1 -20 -1.5 -31.5t-21.5 -36t-59.5 -53.5t-117 -78t-192.5 -116q-23 -13 -40 -16t-25 1t-11 11zM473 149
q-26 61 98 164q79 67 246 167q-65 32 -145 79q-257 160 -199 250q15 25 76 -4q114 -56 192.5 -102t117 -75t58.5 -58.5t22 -43t2 -36.5v-11v-11q1 -20 -1.5 -31.5t-21.5 -36t-59.5 -53.5t-117 -78t-192.5 -116q-23 -13 -40 -16t-25 1t-11 11z" />
    <glyph glyph-name="onequarter" unicode="&#xbc;" horiz-adv-x="1708" 
d="M467 1105q19 -40 36 -58q22 -27 22 -49q-3 -32 -30 -51t-64 -20q-123 -6 -171 5q-46 10 -58 48q-7 17 19 50q28 32 38 70q23 100 4 213q-10 49 -4 85q-1 0 -2 -2q-4 -7 -12.5 -14.5t-24.5 -15t-42 -6.5t-58 14q-30 14 -38.5 33.5t9.5 44.5q19 20 53 27q22 3 58 20
q29 17 43 53q5 46 37.5 77t77.5 31q47 0 80 -34q34 -34 34 -82q0 -20 -1 -50q0 -17 -1 -39.5t-2 -54.5t-2 -53q-2 -87 -3 -159q-1 -69 2 -83zM489 409q-39 -53 -109 -165q-27 -46 -75 -109q-47 -60 -93 -105q-78 -71 -115 -59q-36 10 -38 69q-1 58 29 128q27 54 146 200
q109 134 275 327q36 42 97 112.5t109 125.5t89 102q134 153 159 182q65 73 75 90q16 24 23 35q75 118 126 182t100 95q62 39 105 16q47 -25 22 -108q-15 -47 -51 -104q-38 -56 -89 -114q-47 -53 -87 -88q-80 -71 -132 -127q-51 -55 -165 -191q-162 -194 -242 -293
q-120 -147 -159 -201zM1604 525q12 -9 5 -56.5t-18 -58.5q-10 -8 -87 -35q3 -119 7 -176q5 -93 -11 -112q-17 -23 -47.5 -35t-49 -13t-26.5 0q-57 5 -102 42q-44 38 -54 86q-5 30 17 71q14 26 33 78q-65 -13 -128 -11t-113 15t-80.5 52t-30.5 99q2 36 13 97q24 133 18 185
q-7 44 12.5 70t52.5 29.5t71 -1.5q96 -14 102 -52q1 -22 -17 -85q-51 -191 -17 -235q25 -29 154 -6q3 55 3 131q0 70 1 97q5 116 36 134q32 21 83 9q41 -7 82 -37q41 -29 45 -67q1 -23 -23 -54q-31 -33 -36 -78q-1 -5 1 -93q84 20 104 10z" />
    <glyph glyph-name="onehalf" unicode="&#xbd;" horiz-adv-x="1708" 
d="M467 1105q19 -40 36 -58q22 -27 22 -49q-3 -32 -30 -51t-64 -20q-123 -6 -171 5q-46 10 -58 48q-7 17 19 50q28 32 38 70q23 100 4 213q-10 49 -4 85q-1 0 -2 -2q-4 -7 -12.5 -14.5t-24.5 -15t-42 -6.5t-58 14q-30 14 -38.5 33.5t9.5 44.5q19 20 53 27q22 3 58 20
q29 17 43 53q5 46 37.5 77t77.5 31q47 0 80 -34q34 -34 34 -82q0 -20 -1 -50q0 -17 -1 -39.5t-2 -54.5t-2 -53q-2 -87 -3 -159q-1 -69 2 -83zM489 409q-39 -53 -109 -165q-27 -46 -75 -109q-47 -60 -93 -105q-78 -71 -115 -59q-36 10 -38 69q-1 58 29 128q27 54 146 200
q109 134 275 327q36 42 97 112.5t109 125.5t89 102q134 153 159 182q65 73 75 90q16 24 23 35q75 118 126 182t100 95q62 39 105 16q47 -25 22 -108q-15 -47 -51 -104q-38 -56 -89 -114q-47 -53 -87 -88q-80 -71 -132 -127q-51 -55 -165 -191q-162 -194 -242 -293
q-120 -147 -159 -201zM1572 204q7 -43 -9.5 -85.5t-51.5 -62.5q-23 -6 -34.5 -3.5t-36.5 14.5q-18 10 -37 18q-104 13 -264 -17q-47 -9 -74 -9q-25 0 -44 11q-20 11 -38 67q-26 94 14.5 166t128.5 135q132 96 196 187q27 35 33 70q7 35 -40 85q-22 18 -54.5 18t-57.5 -18
q-34 -27 -34 -92q-2 -54 -25 -71q-24 -14 -58.5 0.5t-61 50t-26.5 75.5q0 30 11.5 64t37.5 68.5t62 60t92 36.5t121 0q129 -19 187 -118.5t20 -288.5q-10 -42 -34 -77t-58.5 -60.5t-62 -40.5t-62.5 -30q-3 -1 -11 -5q-28 -13 -56.5 -38t-43.5 -51q1 0 7 3q16 8 34 15.5
t52.5 19t65.5 17.5t67.5 5.5t64.5 -11t50 -38t30 -70.5z" />
    <glyph glyph-name="threequarters" unicode="&#xbe;" horiz-adv-x="1708" 
d="M467 1105q19 -40 36 -58q22 -27 22 -49q-3 -32 -30 -51t-64 -20q-123 -6 -171 5q-46 10 -58 48q-7 17 19 50q28 32 38 70q23 100 4 213q-10 49 -4 85q-1 0 -2 -2q-4 -7 -12.5 -14.5t-24.5 -15t-42 -6.5t-58 14q-30 14 -38.5 33.5t9.5 44.5q19 20 53 27q22 3 58 20
q29 17 43 53q5 46 37.5 77t77.5 31q47 0 80 -34q34 -34 34 -82q0 -20 -1 -50q0 -17 -1 -39.5t-2 -54.5t-2 -53q-2 -87 -3 -159q-1 -69 2 -83zM489 409q-39 -53 -109 -165q-27 -46 -75 -109q-47 -60 -93 -105q-78 -71 -115 -59q-36 10 -38 69q-1 58 29 128q27 54 146 200
q109 134 275 327q36 42 97 112.5t109 125.5t89 102q134 153 159 182q65 73 75 90q16 24 23 35q75 118 126 182t100 95q62 39 105 16q47 -25 22 -108q-15 -47 -51 -104q-38 -56 -89 -114q-47 -53 -87 -88q-80 -71 -132 -127q-51 -55 -165 -191q-162 -194 -242 -293
q-120 -147 -159 -201zM1526 372q11 -72 -33.5 -137t-109.5 -104q-96 -54 -206 -45q-112 11 -184 80q-55 57 -72.5 132t18.5 111q29 23 72 18q45 -3 77 -29q22 -22 28 -63q5 -41 28 -64q31 -27 76.5 -31t85.5 19q24 15 28.5 80t-20.5 80q-30 17 -81 8q-50 -9 -82 5
q-28 15 -43.5 41.5t-8.5 52.5q13 35 51 48q29 12 61 10q31 9 52 32t23 53q1 41 -25.5 70.5t-70.5 33.5q-44 2 -77 -23t-36 -66q-1 -12 2 -25q-5 -37 -28 -47q-38 -16 -89 24t-47 92q3 32 24.5 66.5t63.5 65.5t104.5 41t147.5 -6q81 -17 136.5 -62.5t73 -120t-33.5 -173.5
q-8 -14 -26 -26q101 -55 121 -141z" />
    <glyph glyph-name="questiondown" unicode="&#xbf;" horiz-adv-x="975" 
d="M281 807q-21 66 18 132q39 67 147 81q95 11 167 -6q74 -17 96 -76q24 -64 -8 -126q-31 -62 -156 -87q-97 -17 -168 2q-74 20 -96 80zM113 -223q65 -90 172 -128q108 -39 227 -30q118 7 218 58q97 50 169 140q73 89 61 190q-7 41 -36 85q-28 43 -79 55q-38 6 -75 -11.5
t-61 -48.5q-12 -20 -22 -38q-19 -36 -34.5 -61t-43 -59t-60.5 -50t-70 -12q-71 4 -100 32q-29 25 -15 108q16 75 76 124q57 47 112 77q7 4 17.5 10.5t14.5 8.5q54 41 83 100q12 23 23.5 67.5t11.5 102.5t-24 90q-33 38 -99 46q-66 7 -127 -6t-78 -40q-5 -9 1 -33
q5 -15 10 -57q9 -90 -21 -130q-24 -27 -78 -34q-31 -3 -68 -16q-62 -19 -123 -93q-60 -72 -69 -187q-8 -114 87 -260z" />
    <glyph glyph-name="Agrave" unicode="&#xc0;" horiz-adv-x="1230" 
d="M1154 378q-15 136 -26.5 217.5t-36 195t-55 191t-82 161.5t-120.5 149l-3 3q-70 64 -128 88q-165 70 -302 -91q-114 -139 -189 -326q-76 -189 -113 -366q-37 -176 -37 -288q0 -214 134 -294q86 -51 186 -31q72 15 91 54q2 4 3 8q12 49 -15 166q-9 40 -12.5 60.5
t-7.5 56.5t-0.5 56t13 45.5t28.5 39.5t50.5 24.5t75.5 12.5q100 1 141 -56q39 -54 44 -141q5 -85 -3 -171q-12 -155 16 -188q52 -49 143 -43q90 6 158 62q42 32 56 118q15 86 -9 287zM736 717q-37 18 -72 26q-28 6 -42 7q-13 -1 -41 -7q-35 -8 -72 -26q-14 36 14 157
q17 72 42.5 105t56.5 30q31 3 56.5 -29.5t43.5 -105.5q28 -121 14 -157zM647 1502q-96 41 -173 67q-76 25 -115 46t-49 51q-11 33 13 70t71 55t113 -1q75 -25 116 -80q37 -46 65 -68q32 -26 51 -39q13 -9 18.5 -13.5t9 -11t3.5 -13.5q-4 -26 -42.5 -53t-80.5 -10z" />
    <glyph glyph-name="Aacute" unicode="&#xc1;" horiz-adv-x="1230" 
d="M1154 378q-15 136 -26.5 217.5t-36 195t-55 191t-82 161.5t-120.5 149l-3 3q-70 64 -128 88q-165 70 -302 -91q-114 -139 -189 -326q-76 -189 -113 -366q-37 -176 -37 -288q0 -214 134 -294q86 -51 186 -31q72 15 91 54q2 4 3 8q12 49 -15 166q-9 40 -12.5 60.5
t-7.5 56.5t-0.5 56t13 45.5t28.5 39.5t50.5 24.5t75.5 12.5q100 1 141 -56q39 -54 44 -141q5 -85 -3 -171q-12 -155 16 -188q52 -49 143 -43q90 6 158 62q42 32 56 118q15 86 -9 287zM736 717q-37 18 -72 26q-28 6 -42 7q-13 -1 -41 -7q-35 -8 -72 -26q-14 36 14 157
q17 72 42.5 105t56.5 30q31 3 56.5 -29.5t43.5 -105.5q28 -121 14 -157zM584 1517q-42 -17 -80.5 10t-42.5 53q0 7 3.5 13.5t9 11t18.5 13.5q20 14 51 39q28 22 65 68q41 55 116 80q66 19 112.5 1t71 -55t14.5 -70q-11 -30 -50.5 -51t-114.5 -46q-77 -26 -173 -67z" />
    <glyph glyph-name="Acircumflex" unicode="&#xc2;" horiz-adv-x="1230" 
d="M1154 378q-15 136 -26.5 217.5t-36 195t-55 191t-82 161.5t-120.5 149l-3 3q-70 64 -128 88q-165 70 -302 -91q-114 -139 -189 -326q-76 -189 -113 -366q-37 -176 -37 -288q0 -214 134 -294q86 -51 186 -31q72 15 91 54q2 4 3 8q12 49 -15 166q-9 40 -12.5 60.5
t-7.5 56.5t-0.5 56t13 45.5t28.5 39.5t50.5 24.5t75.5 12.5q100 1 141 -56q39 -54 44 -141q5 -85 -3 -171q-12 -155 16 -188q52 -49 143 -43q90 6 158 62q42 32 56 118q15 86 -9 287zM736 717q-37 18 -72 26q-28 6 -42 7q-13 -1 -41 -7q-35 -8 -72 -26q-14 36 14 157
q17 72 42.5 105t56.5 30q31 3 56.5 -29.5t43.5 -105.5q28 -121 14 -157zM491 1749q22 38 47.5 62.5t44 30.5t35 8.5t21.5 -2.5h2q51 -11 91 -64q42 -54 78 -120q3 -4 10.5 -17t11.5 -19q22 -33 28 -53t-2 -53q-8 -21 -24 -29t-49 -6q-31 4 -62 38q-30 34 -43 62
q-8 19 -18 52q-21 62 -30 63t-17.5 -12.5t-21.5 -44.5q-40 -102 -96 -144q-24 -17 -42 -24.5t-37.5 -5t-38.5 19.5q-22 22 -2 68q21 45 60 102q31 47 54 88z" />
    <glyph glyph-name="Atilde" unicode="&#xc3;" horiz-adv-x="1230" 
d="M1154 378q-15 136 -26.5 217.5t-36 195t-55 191t-82 161.5t-120.5 149l-3 3q-70 64 -128 88q-165 70 -302 -91q-114 -139 -189 -326q-76 -189 -113 -366q-37 -176 -37 -288q0 -214 134 -294q86 -51 186 -31q72 15 91 54q2 4 3 8q12 49 -15 166q-9 40 -12.5 60.5
t-7.5 56.5t-0.5 56t13 45.5t28.5 39.5t50.5 24.5t75.5 12.5q100 1 141 -56q39 -54 44 -141q5 -85 -3 -171q-12 -155 16 -188q52 -49 143 -43q90 6 158 62q42 32 56 118q15 86 -9 287zM736 717q-37 18 -72 26q-28 6 -42 7q-13 -1 -41 -7q-35 -8 -72 -26q-14 36 14 157
q17 72 42.5 105t56.5 30q31 3 56.5 -29.5t43.5 -105.5q28 -121 14 -157zM363 1578q30 65 83.5 119.5t103.5 45.5q30 -8 64.5 -38.5t45.5 -45.5q6 -8 8 -10q13 -18 23 -19q19 0 42 40q32 50 61 55q22 3 44.5 -11t35.5 -34q26 -48 3 -107q-22 -57 -79 -83q-54 -19 -115.5 6.5
t-94.5 70.5q-3 4 -7.5 11t-5.5 9q-6 12 -11 17.5t-11 4.5q-10 0 -19 -38q-10 -66 -49 -91q-33 -20 -74 -15t-60 29q-16 26 12 84z" />
    <glyph glyph-name="Adieresis" unicode="&#xc4;" horiz-adv-x="1230" 
d="M1154 378q-15 136 -26.5 217.5t-36 195t-55 191t-82 161.5t-120.5 149l-3 3q-70 64 -128 88q-165 70 -302 -91q-114 -139 -189 -326q-76 -189 -113 -366q-37 -176 -37 -288q0 -214 134 -294q86 -51 186 -31q72 15 91 54q2 4 3 8q12 49 -15 166q-9 40 -12.5 60.5
t-7.5 56.5t-0.5 56t13 45.5t28.5 39.5t50.5 24.5t75.5 12.5q100 1 141 -56q39 -54 44 -141q5 -85 -3 -171q-12 -155 16 -188q52 -49 143 -43q90 6 158 62q42 32 56 118q15 86 -9 287zM736 717q-37 18 -72 26q-28 6 -42 7q-13 -1 -41 -7q-35 -8 -72 -26q-14 36 14 157
q17 72 42.5 105t56.5 30q31 3 56.5 -29.5t43.5 -105.5q28 -121 14 -157zM596 1740q14 -56 -13 -110q-25 -55 -99 -67q-151 -19 -179 68q-16 52 5 104q23 51 107 72q66 16 115 -1t64 -66zM962 1731q14 -56 -13 -110q-25 -55 -99 -67q-151 -19 -179 68q-16 52 5 104
q23 51 107 72q66 16 115 -1t64 -66z" />
    <glyph glyph-name="Aring" unicode="&#xc5;" horiz-adv-x="1230" 
d="M1154 378q24 -201 9 -287q-14 -86 -56 -118q-68 -56 -158 -62q-91 -6 -143 43q-28 33 -16 188q8 86 3 171q-5 87 -44 141q-41 57 -141 56q-44 -2 -75.5 -12.5t-50.5 -24.5t-28.5 -39.5t-13 -45.5t0.5 -56t7.5 -56.5t12.5 -60.5q27 -117 15 -166q-11 -39 -77 -58
q-91 -26 -179 14q-129 59 -153 232q-5 35 -5 75q0 112 37 288q37 177 113 366q75 187 189 326q45 54 94 82t92.5 29t80.5 -7t71.5 -30.5t52.5 -36.5t35 -30l4 -4l3 -3q69 -65 120.5 -149t82 -161.5t55 -191t36 -195t26.5 -217.5zM736 717q14 36 -14 157q-18 73 -43.5 105.5
t-56.5 29.5q-31 3 -56.5 -30t-42.5 -105q-28 -121 -14 -157q37 18 72 26q28 6 41 7q14 -1 42 -7q35 -8 72 -26zM812 1746q44 -46 42 -108q1 -61 -42 -109q-50 -50 -132 -64q-81 -12 -152 7q-24 5 -67 27t-69 70q-16 26 -15 69q-1 43 15 69q26 47 69 69t67 27q74 20 152 7
q82 -12 132 -64zM691 1691q-19 25 -51 32t-58 -3q-38 -13 -53 -48q-6 -23 -5 -34q-1 -11 5 -34q16 -39 53 -48q26 -11 57.5 -3.5t51.5 31.5q16 23 16 54t-16 53z" />
    <glyph glyph-name="AE" unicode="&#xc6;" horiz-adv-x="1647" 
d="M1154 378q24 -201 9 -287q-14 -86 -56 -118q-68 -56 -158 -62q-91 -6 -143 43q-28 33 -16 188q8 86 3 171q-5 87 -44 141q-41 57 -141 56q-44 -2 -75.5 -12.5t-50.5 -24.5t-28.5 -39.5t-13 -45.5t0.5 -56t7.5 -56.5t12.5 -60.5q27 -117 15 -166q-11 -39 -77 -58
q-91 -26 -179 14q-129 59 -153 232q-5 35 -5 75q0 112 37 288q37 177 113 366q75 187 189 326q45 54 94 82t92.5 29t80.5 -7t71.5 -30.5t52.5 -36.5t35 -30l4 -4l3 -3q69 -65 120.5 -149t82 -161.5t55 -191t36 -195t26.5 -217.5zM736 717q14 36 -14 157q-18 73 -43.5 105.5
t-56.5 29.5q-31 3 -56.5 -30t-42.5 -105q-28 -121 -14 -157q37 18 72 26q28 6 41 7q14 -1 42 -7q35 -8 72 -26zM1545 368q42 -15 53 -69.5t-5.5 -114.5t-47.5 -95q-68 -72 -179 -99q-112 -28 -233 -18q-120 9 -215 48q-95 41 -126 101q-42 99 -53 336q-10 227 13 467
q24 232 83 337q55 76 189 112q135 36 282 15t239 -116q31 -36 47.5 -96t5.5 -114.5t-53 -69.5q-55 -17 -196 40q-27 10 -45.5 16.5t-42 13.5t-40 9.5t-34 2t-29.5 -6.5q-44 -20 -82 -84.5t-14 -134.5q8 -19 50 -27q1 -1 3 -1q51 -10 123 33q81 51 157 42q20 0 56.5 -15.5
t61.5 -48.5q30 -47 26 -102q-3 -57 -37 -92q-35 -32 -100.5 -34.5t-136.5 13.5q-55 9 -82 18q-53 14 -79 3q-44 -16 -58 -54q-22 -105 16 -189q39 -82 96 -101q48 -13 184 37q148 56 203 38z" />
    <glyph glyph-name="Ccedilla" unicode="&#xc7;" horiz-adv-x="1250" 
d="M797 912q-60 33 -104 77q-11 12 -37 34q-55 41 -113 -9t-95 -152.5t-41 -212.5q-2 -65 10 -120.5t38.5 -102t75 -73t115.5 -25.5q30 0 49 8t26.5 24.5t9.5 31.5t1 39q-2 74 34 95q81 38 181 31q104 -8 175 -44q74 -36 68 -87q-21 -100 -72 -182t-122.5 -135t-160 -84.5
t-184.5 -30t-197 28.5q-138 44 -234 167q-97 124 -142 291l-1 -1v-1q-33 112 -31 235q-2 123 31 235v-1q1 0 1 -1q45 169 142 291q98 124 234 168q124 34 259 -1q129 -33 245 -109q113 -74 177 -154q65 -82 55 -139q-8 -37 -50.5 -67t-98.5 -45.5t-123 -11t-121 32.5z
M632 -11q20 -20 -27 -73q-13 -14 -7 -13q39 11 89 -2q49 -13 74 -34q37 -39 29 -101q-7 -60 -48 -107q-39 -44 -104 -60t-118 -4.5t-69 40.5q-10 22 -3.5 48t25.5 40q10 7 39 5q18 -2 51 0q65 4 77 13q3 3 5 6q7 15 -2 33t-29 28q-30 11 -66 11q-39 0 -66 12q-10 6 9.5 71.5
t34.5 84.5q18 18 50.5 19t55.5 -17z" />
    <glyph glyph-name="Egrave" unicode="&#xc8;" horiz-adv-x="1026" 
d="M913 368q-55 18 -203 -38q-136 -50 -184 -37q-57 19 -96 101q-38 84 -16 189q14 38 58 54q26 11 79 -3q27 -9 82 -18q71 -16 136.5 -13.5t100.5 34.5q34 35 37 92q4 55 -26 102q-25 33 -61.5 48.5t-56.5 15.5q-76 9 -157 -42q-72 -43 -123 -33q-2 0 -3 1q-42 8 -50 27
q-24 70 14 134.5t82 84.5q12 6 29.5 6.5t34 -2t40 -9.5t42 -13.5t45.5 -16.5q141 -57 196 -40q42 15 53 69.5t-5.5 114.5t-47.5 96q-92 95 -239 116t-282 -15q-134 -36 -189 -112q-59 -105 -83 -337q-23 -240 -13 -467q11 -237 53 -336q31 -60 126 -101q95 -39 215 -48
q121 -10 233 18q111 27 179 99q31 35 47.5 95t5.5 114.5t-53 69.5zM568 1502q-96 41 -173 67q-76 25 -115 46t-49 51q-11 33 13 70t71 55t113 -1q75 -25 116 -80q37 -46 65 -68q31 -26 51 -39q13 -9 18.5 -13.5t9 -11t3.5 -13.5q-4 -26 -42.5 -53t-80.5 -10z" />
    <glyph glyph-name="Eacute" unicode="&#xc9;" horiz-adv-x="1026" 
d="M913 368q-55 18 -203 -38q-136 -50 -184 -37q-57 19 -96 101q-38 84 -16 189q14 38 58 54q26 11 79 -3q27 -9 82 -18q71 -16 136.5 -13.5t100.5 34.5q34 35 37 92q4 55 -26 102q-25 33 -61.5 48.5t-56.5 15.5q-76 9 -157 -42q-72 -43 -123 -33q-2 0 -3 1q-42 8 -50 27
q-24 70 14 134.5t82 84.5q12 6 29.5 6.5t34 -2t40 -9.5t42 -13.5t45.5 -16.5q141 -57 196 -40q42 15 53 69.5t-5.5 114.5t-47.5 96q-92 95 -239 116t-282 -15q-134 -36 -189 -112q-59 -105 -83 -337q-23 -240 -13 -467q11 -237 53 -336q31 -60 126 -101q95 -39 215 -48
q121 -10 233 18q111 27 179 99q31 35 47.5 95t5.5 114.5t-53 69.5zM506 1517q-42 -17 -80.5 10t-42.5 53q0 7 3.5 13.5t9 11t18.5 13.5q20 14 51 39q28 22 65 68q41 55 116 80q66 19 112.5 1t71 -55t14.5 -70q-11 -30 -50.5 -51t-114.5 -46q-77 -26 -173 -67z" />
    <glyph glyph-name="Ecircumflex" unicode="&#xca;" horiz-adv-x="1026" 
d="M913 368q-55 18 -203 -38q-136 -50 -184 -37q-57 19 -96 101q-38 84 -16 189q14 38 58 54q26 11 79 -3q27 -9 82 -18q71 -16 136.5 -13.5t100.5 34.5q34 35 37 92q4 55 -26 102q-25 33 -61.5 48.5t-56.5 15.5q-76 9 -157 -42q-72 -43 -123 -33q-2 0 -3 1q-42 8 -50 27
q-24 70 14 134.5t82 84.5q12 6 29.5 6.5t34 -2t40 -9.5t42 -13.5t45.5 -16.5q141 -57 196 -40q42 15 53 69.5t-5.5 114.5t-47.5 96q-92 95 -239 116t-282 -15q-134 -36 -189 -112q-59 -105 -83 -337q-23 -240 -13 -467q11 -237 53 -336q31 -60 126 -101q95 -39 215 -48
q121 -10 233 18q111 27 179 99q31 35 47.5 95t5.5 114.5t-53 69.5zM412 1749q22 38 47.5 62.5t44 30.5t35 8.5t21.5 -2.5h2q51 -11 91 -64q42 -54 78 -120q3 -4 10.5 -17t11.5 -19q22 -33 28 -53t-2 -53q-8 -21 -24 -29t-49 -6q-31 4 -62 38q-30 34 -43 62q-8 19 -18 52
q-21 62 -30 63t-17.5 -12.5t-21.5 -44.5q-40 -102 -96 -144q-24 -17 -42 -24.5t-37.5 -5t-38.5 19.5q-22 22 -2 68q21 45 60 102q31 47 54 88z" />
    <glyph glyph-name="Edieresis" unicode="&#xcb;" horiz-adv-x="1026" 
d="M913 368q-55 18 -203 -38q-136 -50 -184 -37q-57 19 -96 101q-38 84 -16 189q14 38 58 54q26 11 79 -3q27 -9 82 -18q71 -16 136.5 -13.5t100.5 34.5q34 35 37 92q4 55 -26 102q-25 33 -61.5 48.5t-56.5 15.5q-76 9 -157 -42q-72 -43 -123 -33q-2 0 -3 1q-42 8 -50 27
q-24 70 14 134.5t82 84.5q12 6 29.5 6.5t34 -2t40 -9.5t42 -13.5t45.5 -16.5q141 -57 196 -40q42 15 53 69.5t-5.5 114.5t-47.5 96q-92 95 -239 116t-282 -15q-134 -36 -189 -112q-59 -105 -83 -337q-23 -240 -13 -467q11 -237 53 -336q31 -60 126 -101q95 -39 215 -48
q121 -10 233 18q111 27 179 99q31 35 47.5 95t5.5 114.5t-53 69.5zM518 1740q14 -56 -13 -110q-25 -55 -99 -67q-151 -19 -179 68q-16 52 5 104q23 51 107 72q66 16 115 -1t64 -66zM884 1731q14 -56 -13 -110q-25 -55 -99 -67q-151 -19 -179 68q-16 52 5 104q23 51 107 72
q66 16 115 -1t64 -66z" />
    <glyph glyph-name="Igrave" unicode="&#xcc;" horiz-adv-x="599" 
d="M444 659q-5 132 6 293q8 130 8 216q0 94 -23 129q-29 32 -95 47q-64 16 -134 11q-67 -5 -95 -36q-47 -65 -42 -175q6 -110 30 -239q22 -120 29 -225q4 -134 -6 -294q-8 -130 -8 -216q0 -94 23 -128q29 -33 95 -48q66 -16 133 -10q67 4 96 36q47 65 41 174q-4 108 -29 240
q-22 120 -29 225zM317 1502q-96 41 -173 67q-76 25 -115 46t-49 51q-11 33 13 70t71 55t113 -1q75 -25 116 -80q37 -46 65 -68q32 -26 51 -39q13 -9 18.5 -13.5t9 -11t3.5 -13.5q-4 -26 -42.5 -53t-80.5 -10z" />
    <glyph glyph-name="Iacute" unicode="&#xcd;" horiz-adv-x="601" 
d="M477 659q-5 132 6 293q8 130 8 216q0 94 -23 129q-29 32 -95 47q-64 16 -134 11q-67 -5 -95 -36q-47 -65 -42 -175q6 -110 30 -239q22 -120 29 -225q5 -134 -6 -294q-8 -130 -8 -216q0 -94 23 -128q29 -33 95 -48q66 -16 133 -10q68 4 96 36q47 65 41 174q-4 108 -29 240
q-22 120 -29 225zM288 1517q-42 -17 -80.5 10t-42.5 53q0 7 3.5 13.5t9 11t18.5 13.5q20 14 51 39q28 22 65 68q41 55 116 80q66 19 112.5 1t71 -55t14.5 -70q-11 -30 -50.5 -51t-114.5 -46q-77 -26 -173 -67z" />
    <glyph glyph-name="Icircumflex" unicode="&#xce;" horiz-adv-x="604" 
d="M470 659q-5 132 6 293q8 130 8 216q0 94 -23 129q-29 32 -95 47q-64 16 -134 11q-67 -5 -95 -36q-47 -65 -42 -175q6 -110 30 -239q22 -120 29 -225q4 -134 -6 -294q-8 -130 -8 -216q0 -94 23 -128q29 -33 95 -48q66 -16 133 -10q67 4 96 36q47 65 41 174q-4 108 -29 240
q-22 120 -29 225zM187 1749q22 38 47.5 62.5t44 30.5t35 8.5t21.5 -2.5h2q51 -11 91 -64q42 -54 78 -120q3 -4 10.5 -17t11.5 -19q22 -33 28 -53t-2 -53q-8 -21 -24 -29t-49 -6q-31 4 -62 38q-30 34 -43 62q-8 19 -18 52q-21 62 -30 63t-17.5 -12.5t-21.5 -44.5
q-40 -102 -96 -144q-24 -17 -42 -24.5t-37.5 -5t-38.5 19.5q-22 22 -2 68q21 45 60 102q31 47 54 88z" />
    <glyph glyph-name="Idieresis" unicode="&#xcf;" horiz-adv-x="623" 
d="M454 659q-5 132 6 293q8 130 8 216q0 94 -23 129q-29 32 -95 47q-64 16 -134 11q-67 -5 -95 -36q-47 -65 -42 -175q6 -110 30 -239q22 -120 29 -225q4 -134 -6 -294q-8 -130 -8 -216q0 -94 23 -128q29 -33 95 -48q66 -16 133 -10q67 4 96 36q47 65 41 174q-4 108 -29 240
q-22 120 -29 225zM277 1740q14 -56 -13 -110q-25 -55 -99 -67q-151 -19 -179 68q-17 53 6 104q21 51 106 72q66 16 115 -1t64 -66zM643 1731q14 -56 -13 -110q-25 -55 -99 -67q-151 -19 -179 68q-16 52 5 104q23 51 107 72q66 16 115 -1t64 -66z" />
    <glyph glyph-name="Eth" unicode="&#xd0;" horiz-adv-x="1204" 
d="M541 629h-12q-1 -3 -1.5 -9.5t-0.5 -9.5q-4 -58 -9 -85q-5 -42 0 -54q22 -40 90 -38q68 3 129 82q63 81 67 269q0 200 -113 246q-67 27 -138 -6q-41 -19 -47 -41q-4 -19 7 -51q9 -19 20 -71q9 -44 7 -102q-1 -5 -1 -13q83 4 137 23q28 -6 38.5 -38t5.5 -63t-18 -38
q-6 -3 -161 -1zM217 749q1 5 1 15q9 132 -21 239q-36 111 -71 165q-15 25 -22 41t-9.5 38t6.5 40q20 42 131 83t264 50q153 10 304 -38t251 -181q99 -132 104 -379q-5 -267 -94 -436q-87 -167 -226 -257q-136 -88 -280 -112q-146 -23 -257 1t-154 77q-15 19 -14 43
q2 28 13 83q12 60 33 197q20 133 29 211q-89 -3 -123 -13q-27 6 -33 38t4 63t23 38q10 1 93 -3q23 -2 48 -3z" />
    <glyph glyph-name="Ntilde" unicode="&#xd1;" horiz-adv-x="1216" 
d="M1063 744q6 147 78 343q41 107 36 150q-20 66 -91 101q-72 35 -143 35q-85 2 -129 -42q-20 -19 -28 -71q-6 -49 11 -171q0 -6 2 -44t4 -66q3 -57 6 -97v-25q4 -369 2 -369q-61 370 -138 562q-77 193 -139 258q-61 67 -84 64h-9q-32 7 -91 -11q-57 -18 -117 -114
q-59 -97 -98 -324q-38 -232 -31 -640q4 -155 29 -189q18 -26 46 -45t52 -28t51 -14t38.5 -6t18.5 -1q94 2 152 57q60 56 71 136q3 23 -4.5 42.5t-27.5 49.5q-54 74 -93 207q-61 230 -35 325q27 93 85 56q57 -35 92 -193q14 -73 29 -198q3 -26 8.5 -67.5t9.5 -74.5t7 -60
q15 -142 20 -156q12 -28 34.5 -51t44.5 -35.5t47 -21t36.5 -11t18.5 -3.5q93 -10 175 38q81 49 112 130q10 35 8 59t-14 68q-17 55 -37 194q-18 119 -15 253zM336 1578q30 65 83.5 119.5t103.5 45.5q30 -8 64.5 -38.5t45.5 -45.5q6 -8 8 -10q13 -18 23 -19q19 0 42 40
q32 50 61 55q22 3 44.5 -11t35.5 -34q26 -48 3 -107q-22 -57 -79 -83q-54 -19 -115.5 6.5t-94.5 70.5q-3 4 -7.5 11t-5.5 9q-6 12 -11 17.5t-11 4.5q-10 0 -19 -38q-10 -66 -49 -91q-33 -20 -74 -15t-60 29q-16 26 12 84z" />
    <glyph glyph-name="Ograve" unicode="&#xd2;" horiz-adv-x="1199" 
d="M1116 864l-1 -1v-1q-46 148 -148 261q-100 112 -243 151l-27 6q-19 4 -41 6q-29 3 -59 3t-60 -3q-20 -2 -41 -6h1q-5 -1 -14.5 -3t-13.5 -3q-142 -39 -242 -151q-102 -113 -148 -261l-1 1v1q-34 -101 -32 -211q-2 -111 32 -212v1l1 1q55 -195 186 -314q131 -117 332 -119
q178 5 281 73q105 70 157 168q54 101 80 192v-1l1 -1q34 101 32 212q2 110 -32 211zM597 389q-63 0 -105.5 30.5t-59 79t-19.5 107.5t13 118t39.5 107.5t59 79t72.5 30.5t72.5 -30.5t59 -79t39.5 -107.5t13.5 -118t-19.5 -107.5t-59.5 -79t-105.5 -30.5zM628 1502
q-96 41 -173 67q-76 25 -115 46t-49 51q-11 33 13 70t71 55t113 -1q75 -25 116 -80q37 -46 65 -68q31 -26 51 -39q13 -9 18.5 -13.5t9 -11t3.5 -13.5q-4 -26 -42.5 -53t-80.5 -10z" />
    <glyph glyph-name="Oacute" unicode="&#xd3;" horiz-adv-x="1199" 
d="M1116 864l-1 -1v-1q-46 148 -148 261q-100 112 -243 151l-27 6q-19 4 -41 6q-29 3 -59 3t-60 -3q-20 -2 -41 -6h1q-5 -1 -14.5 -3t-13.5 -3q-142 -39 -242 -151q-102 -113 -148 -261l-1 1v1q-34 -101 -32 -211q-2 -111 32 -212v1l1 1q55 -195 186 -314q131 -117 332 -119
q178 5 281 73q105 70 157 168q54 101 80 192v-1l1 -1q34 101 32 212q2 110 -32 211zM597 389q-63 0 -105.5 30.5t-59 79t-19.5 107.5t13 118t39.5 107.5t59 79t72.5 30.5t72.5 -30.5t59 -79t39.5 -107.5t13.5 -118t-19.5 -107.5t-59.5 -79t-105.5 -30.5zM566 1517
q-42 -17 -80.5 10t-42.5 53q0 7 3.5 13.5t9 11t18.5 13.5q20 14 51 39q28 22 65 68q41 55 116 80q66 19 112.5 1t71 -55t14.5 -70q-11 -30 -50.5 -51t-114.5 -46q-77 -26 -173 -67z" />
    <glyph glyph-name="Ocircumflex" unicode="&#xd4;" horiz-adv-x="1199" 
d="M1116 864l-1 -1v-1q-46 148 -148 261q-100 112 -243 151l-27 6q-19 4 -41 6q-29 3 -59 3t-60 -3q-20 -2 -41 -6h1q-5 -1 -14.5 -3t-13.5 -3q-142 -39 -242 -151q-102 -113 -148 -261l-1 1v1q-34 -101 -32 -211q-2 -111 32 -212v1l1 1q55 -195 186 -314q131 -117 332 -119
q178 5 281 73q105 70 157 168q54 101 80 192v-1l1 -1q34 101 32 212q2 110 -32 211zM597 389q-63 0 -105.5 30.5t-59 79t-19.5 107.5t13 118t39.5 107.5t59 79t72.5 30.5t72.5 -30.5t59 -79t39.5 -107.5t13.5 -118t-19.5 -107.5t-59.5 -79t-105.5 -30.5zM472 1749
q22 38 47.5 62.5t44 30.5t35 8.5t21.5 -2.5h2q51 -11 91 -64q42 -54 78 -120q3 -4 10.5 -17t11.5 -19q22 -33 28 -53t-2 -53q-8 -21 -24 -29t-49 -6q-31 4 -62 38q-30 34 -43 62q-8 19 -18 52q-21 62 -30 63t-17.5 -12.5t-21.5 -44.5q-40 -102 -96 -144q-24 -17 -42 -24.5
t-37.5 -5t-38.5 19.5q-22 22 -2 68q21 45 60 102q31 47 54 88z" />
    <glyph glyph-name="Otilde" unicode="&#xd5;" horiz-adv-x="1199" 
d="M1116 864l-1 -1v-1q-46 148 -148 261q-100 112 -243 151l-27 6q-19 4 -41 6q-29 3 -59 3t-60 -3q-20 -2 -41 -6h1q-5 -1 -14.5 -3t-13.5 -3q-142 -39 -242 -151q-102 -113 -148 -261l-1 1v1q-34 -101 -32 -211q-2 -111 32 -212v1l1 1q55 -195 186 -314q131 -117 332 -119
q178 5 281 73q105 70 157 168q54 101 80 192v-1l1 -1q34 101 32 212q2 110 -32 211zM597 389q-63 0 -105.5 30.5t-59 79t-19.5 107.5t13 118t39.5 107.5t59 79t72.5 30.5t72.5 -30.5t59 -79t39.5 -107.5t13.5 -118t-19.5 -107.5t-59.5 -79t-105.5 -30.5zM344 1578
q30 65 83.5 119.5t103.5 45.5q30 -8 64.5 -38.5t45.5 -45.5q6 -8 8 -10q13 -18 23 -19q19 0 42 40q32 50 61 55q22 3 44.5 -11t35.5 -34q26 -48 3 -107q-22 -57 -79 -83q-54 -19 -115.5 6.5t-94.5 70.5q-3 4 -7.5 11t-5.5 9q-6 12 -11 17.5t-11 4.5q-10 0 -19 -38
q-10 -66 -49 -91q-33 -20 -74 -15t-60 29q-16 26 12 84z" />
    <glyph glyph-name="Odieresis" unicode="&#xd6;" horiz-adv-x="1199" 
d="M1116 864l-1 -1v-1q-46 148 -148 261q-100 112 -243 151l-27 6q-19 4 -41 6q-29 3 -59 3t-60 -3q-20 -2 -41 -6h1q-5 -1 -14.5 -3t-13.5 -3q-142 -39 -242 -151q-102 -113 -148 -261l-1 1v1q-34 -101 -32 -211q-2 -111 32 -212v1l1 1q55 -195 186 -314q131 -117 332 -119
q178 5 281 73q105 70 157 168q54 101 80 192v-1l1 -1q34 101 32 212q2 110 -32 211zM597 389q-63 0 -105.5 30.5t-59 79t-19.5 107.5t13 118t39.5 107.5t59 79t72.5 30.5t72.5 -30.5t59 -79t39.5 -107.5t13.5 -118t-19.5 -107.5t-59.5 -79t-105.5 -30.5zM578 1740
q14 -56 -13 -110q-25 -55 -99 -67q-151 -19 -179 68q-16 52 5 104q23 51 107 72q66 16 115 -1t64 -66zM944 1731q14 -56 -13 -110q-25 -55 -99 -67q-151 -19 -179 68q-16 52 5 104q23 51 107 72q66 16 115 -1t64 -66z" />
    <glyph glyph-name="multiply" unicode="&#xd7;" 
d="M657 703q246 -238 184 -332l-2 -2q-27 -43 -104 -49q-75 -6 -143 32q-24 16 -36.5 35t-25.5 52q-14 37 -48 102q-26 -41 -32 -76q-14 -55 -48 -79q-49 -32 -115 -44q-66 -11 -115 28q-28 26 -37 65t3 75q9 25 27 40.5t52 33.5q38 22 66 41q51 36 89 77q-47 54 -104 94
q-41 28 -66 41q-33 18 -51.5 34t-27.5 40q-13 35 -4 74.5t38 65.5q49 39 115 27q65 -10 115 -43q34 -23 47 -79q14 -57 50 -98l2 2l1 1q1 1 1 2q42 73 58 119q13 34 25 52.5t36 34.5q68 38 143 32q77 -6 104 -49l2 -2q7 -9 11 -18.5t0.5 -38t-21.5 -63.5t-66 -95t-123 -132z
" />
    <glyph glyph-name="Oslash" unicode="&#xd8;" horiz-adv-x="1199" 
d="M588 389h9q72 0 117.5 41t59 101.5t5.5 133.5q-7 59 -27 111q-10 -22 -15 -34q-63 -141 -117 -274q-20 -48 -32 -79zM412 609q42 88 125 256q25 50 36 73q-29 -7 -59 -37q-80 -85 -98 -236q-4 -25 -4 -56zM965 1126l2 -2q102 -114 148 -262v1l1 1q34 -101 32 -211
q2 -111 -32 -212l-1 1v1q-26 -91 -80 -192q-52 -98 -157 -168q-103 -68 -281 -73q-57 0 -106 10q-18 -53 -48 -94q-37 -49 -81.5 -55t-80 20.5t-61 71.5t-29.5 92q-1 36 29 120q-96 108 -141 268l-1 -1v-1q-34 101 -32 212q-2 110 32 211v-1l1 -1q46 148 148 261
q100 112 242 151l28 6h-1q21 4 41 6q30 3 60 3q31 0 59 -3q13 -1 37 -5q2 7 5.5 18.5t4.5 15.5q23 65 68 96q26 18 60.5 21.5t67.5 -8.5t59.5 -35.5t38.5 -66t3 -95.5q-11 -54 -35 -101z" />
    <glyph glyph-name="Ugrave" unicode="&#xd9;" horiz-adv-x="1151" 
d="M674 1214q-10 -35 -10 -73t6 -71t20 -85q9 -29 26 -107q9 -37 25 -147q17 -105 9 -212t-65 -156q-35 -23 -74 -22.5t-71 22.5q-35 24 -59 55t-37 60t-16 70t-2 71t11.5 79.5t18 78t23.5 83.5q33 110 49 206q18 102 -9 193q-30 77 -115 99q-86 24 -153 -9q-50 -28 -75 -98
t-38 -193q-41 -372 -10 -594q32 -227 82 -303q60 -97 167 -141t217.5 -34.5t212 56.5t156.5 119q77 111 108 325q31 211 25 419q-6 206 -40 287q-11 23 -37.5 52t-62 56.5t-76.5 41.5t-79.5 11.5t-72.5 -37.5t-54 -102zM637 1502q-96 41 -173 67q-76 25 -115 46t-49 51
q-11 33 13 70t71 55t113 -1q75 -25 116 -80q37 -46 65 -68q32 -26 51 -39q13 -9 18.5 -13.5t9 -11t3.5 -13.5q-4 -26 -42.5 -53t-80.5 -10z" />
    <glyph glyph-name="Uacute" unicode="&#xda;" horiz-adv-x="1151" 
d="M674 1214q-10 -35 -10 -73t6 -71t20 -85q9 -29 26 -107q9 -37 25 -147q17 -105 9 -212t-65 -156q-35 -23 -74 -22.5t-71 22.5q-35 24 -59 55t-37 60t-16 70t-2 71t11.5 79.5t18 78t23.5 83.5q33 110 49 206q18 102 -9 193q-30 77 -115 99q-86 24 -153 -9q-50 -28 -75 -98
t-38 -193q-41 -372 -10 -594q32 -227 82 -303q60 -97 167 -141t217.5 -34.5t212 56.5t156.5 119q77 111 108 325q31 211 25 419q-6 206 -40 287q-11 23 -37.5 52t-62 56.5t-76.5 41.5t-79.5 11.5t-72.5 -37.5t-54 -102zM574 1517q-42 -17 -80.5 10t-42.5 53q0 7 3.5 13.5
t9 11t18.5 13.5q20 14 51 39q28 22 65 68q41 55 116 80q66 19 112.5 1t71 -55t14.5 -70q-11 -30 -50.5 -51t-114.5 -46q-77 -26 -173 -67z" />
    <glyph glyph-name="Ucircumflex" unicode="&#xdb;" horiz-adv-x="1151" 
d="M674 1214q-10 -35 -10 -73t6 -71t20 -85q9 -29 26 -107q9 -37 25 -147q17 -105 9 -212t-65 -156q-35 -23 -74 -22.5t-71 22.5q-35 24 -59 55t-37 60t-16 70t-2 71t11.5 79.5t18 78t23.5 83.5q33 110 49 206q18 102 -9 193q-30 77 -115 99q-86 24 -153 -9q-50 -28 -75 -98
t-38 -193q-41 -372 -10 -594q32 -227 82 -303q60 -97 167 -141t217.5 -34.5t212 56.5t156.5 119q77 111 108 325q31 211 25 419q-6 206 -40 287q-11 23 -37.5 52t-62 56.5t-76.5 41.5t-79.5 11.5t-72.5 -37.5t-54 -102zM481 1749q22 38 47.5 62.5t44 30.5t35 8.5t21.5 -2.5
h2q51 -11 91 -64q42 -54 78 -120q3 -4 10.5 -17t11.5 -19q22 -33 28 -53t-2 -53q-8 -21 -24 -29t-49 -6q-31 4 -62 38q-30 34 -43 62q-8 19 -18 52q-21 62 -30 63t-17.5 -12.5t-21.5 -44.5q-40 -102 -96 -144q-24 -17 -42 -24.5t-37.5 -5t-38.5 19.5q-22 22 -2 68
q21 45 60 102q31 47 54 88z" />
    <glyph glyph-name="Udieresis" unicode="&#xdc;" horiz-adv-x="1151" 
d="M674 1214q-10 -35 -10 -73t6 -71t20 -85q9 -29 26 -107q9 -37 25 -147q17 -105 9 -212t-65 -156q-35 -23 -74 -22.5t-71 22.5q-35 24 -59 55t-37 60t-16 70t-2 71t11.5 79.5t18 78t23.5 83.5q33 110 49 206q18 102 -9 193q-30 77 -115 99q-86 24 -153 -9q-50 -28 -75 -98
t-38 -193q-41 -372 -10 -594q32 -227 82 -303q60 -97 167 -141t217.5 -34.5t212 56.5t156.5 119q77 111 108 325q31 211 25 419q-6 206 -40 287q-11 23 -37.5 52t-62 56.5t-76.5 41.5t-79.5 11.5t-72.5 -37.5t-54 -102zM586 1740q14 -56 -13 -110q-25 -55 -99 -67
q-151 -19 -179 68q-16 52 5 104q23 51 107 72q66 16 115 -1t64 -66zM952 1731q14 -56 -13 -110q-25 -55 -99 -67q-151 -19 -179 68q-16 52 5 104q23 51 107 72q66 16 115 -1t64 -66z" />
    <glyph glyph-name="Yacute" unicode="&#xdd;" horiz-adv-x="1042" 
d="M1079 1307q-11 18 -29 34.5t-37.5 27.5t-40.5 20t-36.5 13.5t-27.5 8t-13 3.5q-91 16 -159 -14q-67 -28 -93 -86q-10 -28 15 -72q40 -70 54 -168q12 -136 -42 -225q-53 -89 -110 -208q-59 123 -111 208q-53 89 -41 225q14 98 54 168q25 44 15 72q-26 58 -93 86
q-68 30 -159 14q-1 0 -13 -3.5t-27.5 -8t-36.5 -13.5t-40.5 -20t-37.5 -27.5t-29 -34.5q-18 -33 6 -143q133 -621 373 -715q-11 -60 -33 -115q-52 -136 -60.5 -187t11.5 -97q28 -69 105 -107q78 -37 169 -24q8 1 26.5 6.5t49 17.5t60 37t43.5 56q9 7 8.5 48t-18.5 125
q0 1 -13 32q-35 72 -72 206q242 91 377 717q15 70 15.5 102.5t-9.5 40.5zM529 1517q-42 -17 -80.5 10t-42.5 53q0 7 3.5 13.5t9 11t18.5 13.5q19 14 51 39q28 22 65 68q41 55 116 80q66 19 112.5 1t71 -55t14.5 -70q-11 -30 -50.5 -51t-114.5 -46q-77 -26 -173 -67z" />
    <glyph glyph-name="Thorn" unicode="&#xde;" horiz-adv-x="1153" 
d="M525 944q139 19 274 0q136 -18 225 -91q90 -73 94 -217q0 -63 -11 -118.5t-27.5 -96.5t-45 -76.5t-53 -59t-62 -44.5t-62 -32t-63 -22t-55 -15t-48.5 -10q-51 -7 -54 -17l-7 -96v-40h-2q0 -8 -0.5 -23.5t-1.5 -22.5q-2 -54 -1 -62q7 -152 -19 -185q-53 -79 -199 -79
q-94 7 -165 68q-72 61 -88 140q-6 37 22 87q24 40 49 124v2v1q0 5 1 8q0 3 1 8t1 8q10 118 9.5 228.5t-7 194t-22 165t-29.5 135t-35.5 111t-34 85t-30.5 65.5q-31 58 -29 81q17 82 87 140q73 61 165 68q14 2 43 0.5t79.5 -21t76.5 -58.5q26 -35 19 -184l2 -62q2 -37 3 -87z
M759 488q83 164 -59 198q-48 11 -136 3l31 -269l14 -21q50 -56 110 23q20 27 40 66z" />
    <glyph glyph-name="germandbls" unicode="&#xdf;" horiz-adv-x="1161" 
d="M862 734q84 14 147 -48t88.5 -158.5t12.5 -191.5q-4 -101 -33.5 -175t-78.5 -116t-115.5 -59t-142.5 -8.5t-159 39.5q-60 26 -92 98q-32 74 -21 157q11 84 83 137q39 30 111.5 27.5t84.5 -44.5q9 -33 -17 -75q-10 -19 -14 -30q-10 -28 16 -50q30 -26 62 -1q16 12 28 38
q30 92 1 191q-13 39 -82 74q-47 26 -78.5 54.5t-47.5 76.5q-13 49 43 141q59 98 45 153q-10 37 -34.5 64t-56.5 30q-104 -2 -147 -111q-42 -110 -48 -272q-6 -163 0 -325q4 -126 1 -234q-3 -99 -29 -134q-39 -46 -140 -32t-139 64q-21 35 -25 183q-4 151 3 337q8 194 22 326
h1q1 37 20 100q58 182 181 297q121 114 263 146q141 32 251 -35q112 -66 150 -246q9 -49 10 -94t-4 -78t-16.5 -64t-22 -50t-27 -38.5t-24.5 -27.5t-21 -19q-15 -16 -9 -17z" />
    <glyph glyph-name="agrave" unicode="&#xe0;" horiz-adv-x="1043" 
d="M384 -1q64 -13 181 -22t229 16q114 26 178 113q65 89 17 421t-331 390q-281 58 -362 23q-80 -34 -108 -87q-28 -52 24 -113q35 -36 78.5 -45t106.5 -5q104 8 175 -19q44 -16 73.5 -84.5t36.5 -120.5q-101 61 -188.5 93.5t-149.5 39t-113 -6.5t-83 -38t-56 -61t-35 -69
t-17 -68q-18 -133 65 -237q84 -102 236 -114q2 0 16.5 -2t26.5 -4zM417 316q6 37 51 46q44 10 91 1q115 -25 127 -72q12 -46 -49 -76q-33 -15 -71 -19.5t-73 3t-57 37.5t-19 80zM554 1092q-96 41 -173 67q-76 25 -115 46t-49 51q-11 33 13 70t71 55t113 -1q75 -25 116 -80
q37 -46 65 -68q31 -26 51 -39q13 -9 18.5 -13.5t9 -11t3.5 -13.5q-4 -26 -42.5 -53t-80.5 -10z" />
    <glyph glyph-name="aacute" unicode="&#xe1;" horiz-adv-x="1043" 
d="M384 -1q64 -13 181 -22t229 16q114 26 178 113q65 89 17 421t-331 390q-281 58 -362 23q-80 -34 -108 -87q-28 -52 24 -113q35 -36 78.5 -45t106.5 -5q104 8 175 -19q44 -16 73.5 -84.5t36.5 -120.5q-101 61 -188.5 93.5t-149.5 39t-113 -6.5t-83 -38t-56 -61t-35 -69
t-17 -68q-18 -133 65 -237q84 -102 236 -114q2 0 16.5 -2t26.5 -4zM417 316q6 37 51 46q44 10 91 1q115 -25 127 -72q12 -46 -49 -76q-33 -15 -71 -19.5t-73 3t-57 37.5t-19 80zM492 1107q-42 -17 -80.5 10t-42.5 53q0 7 3.5 13.5t9 11t18.5 13.5q20 14 51 39q28 22 65 68
q41 55 116 80q66 19 112.5 1t71 -55t14.5 -70q-11 -30 -50.5 -51t-114.5 -46q-77 -26 -173 -67z" />
    <glyph glyph-name="acircumflex" unicode="&#xe2;" horiz-adv-x="1043" 
d="M384 -1q64 -13 181 -22t229 16q114 26 178 113q65 89 17 421t-331 390q-281 58 -362 23q-80 -34 -108 -87q-28 -52 24 -113q35 -36 78.5 -45t106.5 -5q104 8 175 -19q44 -16 73.5 -84.5t36.5 -120.5q-101 61 -188.5 93.5t-149.5 39t-113 -6.5t-83 -38t-56 -61t-35 -69
t-17 -68q-18 -133 65 -237q84 -102 236 -114q2 0 16.5 -2t26.5 -4zM417 316q6 37 51 46q44 10 91 1q115 -25 127 -72q12 -46 -49 -76q-33 -15 -71 -19.5t-73 3t-57 37.5t-19 80zM398 1339q22 38 47.5 62.5t44 30.5t35 8.5t21.5 -2.5h2q51 -11 91 -64q42 -54 78 -120
q3 -4 10.5 -17t11.5 -19q22 -33 28 -53t-2 -53q-8 -21 -24 -29t-49 -6q-31 4 -62 38q-30 34 -43 62q-7 19 -18 52q-21 62 -30 63t-17.5 -12.5t-21.5 -44.5q-40 -102 -96 -144q-24 -17 -42 -24.5t-37.5 -5t-38.5 19.5q-22 22 -2 68q21 45 60 102q31 47 54 88z" />
    <glyph glyph-name="atilde" unicode="&#xe3;" horiz-adv-x="1043" 
d="M384 -1q64 -13 181 -22t229 16q114 26 178 113q65 89 17 421t-331 390q-281 58 -362 23q-80 -34 -108 -87q-28 -52 24 -113q35 -36 78.5 -45t106.5 -5q104 8 175 -19q44 -16 73.5 -84.5t36.5 -120.5q-101 61 -188.5 93.5t-149.5 39t-113 -6.5t-83 -38t-56 -61t-35 -69
t-17 -68q-18 -133 65 -237q84 -102 236 -114q2 0 16.5 -2t26.5 -4zM417 316q6 37 51 46q44 10 91 1q115 -25 127 -72q12 -46 -49 -76q-33 -15 -71 -19.5t-73 3t-57 37.5t-19 80zM270 1168q30 65 83.5 119.5t103.5 45.5q30 -8 64.5 -38.5t45.5 -45.5q6 -8 8 -10
q13 -18 23 -19q19 0 42 40q32 50 61 55q22 3 44.5 -11t35.5 -34q26 -48 3 -107q-22 -57 -79 -83q-54 -19 -115.5 6.5t-94.5 70.5q-3 4 -7.5 11t-5.5 9q-6 12 -11 17.5t-11 4.5q-10 0 -19 -38q-10 -66 -49 -91q-33 -20 -74 -15t-60 29q-16 26 12 84z" />
    <glyph glyph-name="adieresis" unicode="&#xe4;" horiz-adv-x="1048" 
d="M389 -1q64 -13 181 -22t229 16q114 26 178 113q65 89 17 421t-331 390q-281 58 -362 23q-79 -34 -108 -87q-28 -52 24 -113q35 -36 78.5 -45t106.5 -5q104 8 175 -19q44 -16 73.5 -84.5t36.5 -120.5q-101 61 -188.5 93.5t-149.5 39t-113 -6.5t-83 -38t-56 -61t-35 -69
t-17 -68q-18 -133 65 -237q84 -102 236 -114q2 0 16.5 -2t26.5 -4zM422 316q6 37 51 46q44 10 91 1q115 -25 127 -72q12 -46 -49 -76q-33 -15 -71 -19.5t-73 3t-57 37.5t-19 80zM509 1330q14 -56 -13 -110q-25 -55 -99 -67q-151 -19 -179 68q-16 52 5 104q23 51 107 72
q66 16 115 -1t64 -66zM875 1321q14 -56 -13 -110q-25 -55 -99 -67q-151 -19 -179 68q-16 52 5 104q23 51 107 72q66 16 115 -1t64 -66z" />
    <glyph glyph-name="aring" unicode="&#xe5;" horiz-adv-x="1043" 
d="M384 -1q-12 2 -26.5 4t-16.5 2q-152 12 -236 114q-83 104 -65 237q6 35 17 68t35 69t56 61t83 38t113 6.5t149.5 -39t188.5 -93.5q-7 52 -36.5 120.5t-73.5 84.5q-71 27 -175 19q-63 -4 -106.5 5t-78.5 45q-52 61 -24 113q28 53 108 87q81 35 362 -23q283 -58 331 -390
t-17 -421q-64 -87 -178 -113q-112 -25 -229 -16t-181 22zM417 316q-3 -50 19 -80t57 -37.5t73 -3t71 19.5q61 30 49 76q-12 47 -127 72q-47 9 -91 -1q-45 -9 -51 -46zM720 1336q44 -46 42 -108q1 -61 -42 -109q-50 -50 -132 -64q-81 -12 -152 7q-24 5 -67 27t-69 70
q-16 26 -15 69q-1 43 15 69q26 47 69 69t67 27q74 20 152 7q82 -12 132 -64zM599 1281q-19 25 -51 32t-58 -3q-38 -13 -53 -48q-6 -23 -5 -34q-1 -11 5 -34q16 -39 53 -48q26 -11 57.5 -3.5t51.5 31.5q16 23 16 54t-16 53z" />
    <glyph glyph-name="ae" unicode="&#xe6;" horiz-adv-x="1655" 
d="M384 -1q-12 2 -26.5 4t-16.5 2q-152 12 -236 114q-83 104 -65 237q6 35 17 68t35 69t56 61t83 38t113 6.5t149.5 -39t188.5 -93.5q-7 52 -36.5 120.5t-73.5 84.5q-71 27 -175 19q-63 -4 -106.5 5t-78.5 45q-52 61 -24 113q28 53 108 87q81 35 362 -23q283 -58 331 -390
t-17 -421q-64 -87 -178 -113q-112 -25 -229 -16t-181 22zM417 316q-3 -50 19 -80t57 -37.5t73 -3t71 19.5q61 30 49 76q-12 47 -127 72q-47 9 -91 -1q-45 -9 -51 -46zM1026 -62q-205 78 -291 221q-85 143 -67 305q20 162 124 295q108 135 283 193q105 42 215 21
q48 -11 90 -36q147 -70 175 -228q10 -69 -17 -128.5t-83 -102.5t-126.5 -74t-155.5 -50q-108 -24 -175 -17q1 -2 5 -6q26 -40 69 -82q45 -42 123 -53q78 -9 193 55q0 1 2 1t2 1q74 44 111 59t68 9q55 -13 73 -61q13 -46 -14 -92t-48 -67q-55 -65 -151 -114.5t-202.5 -65
t-202.5 16.5zM1297 639q-26 64 -92 56q-66 -6 -136 -49t-109 -91q-39 -47 -12 -66q28 -18 155 25q37 14 67 26.5t64 30.5t51.5 35.5t11.5 32.5z" />
    <glyph glyph-name="ccedilla" unicode="&#xe7;" horiz-adv-x="1045" 
d="M1034 369q19 -44 -1 -93t-39 -73q-72 -113 -231 -190t-298 -48q-215 49 -318 180q-103 130 -108 293q-4 162 82 309q87 147 254 230q100 56 211 50q50 -5 94 -23q80 -25 135 -77t70 -126q27 -154 -58 -242q-60 -62 -140 -61q-76 2 -109 61q-11 20 -15 46q-5 41 51 66
q30 16 25 26q-46 79 -112 56t-118 -93q-54 -71 -61 -130q-11 -149 58 -218t174 -64q104 4 201 77q1 1 4 3q68 54 102.5 73.5t65.5 17.5q55 -6 81 -50zM555 -11q20 -20 -27 -73q-13 -14 -7 -13q39 11 89 -2q49 -13 74 -34q37 -39 29 -101q-7 -60 -48 -107q-39 -44 -104 -60
t-118 -4.5t-69 40.5q-10 22 -3.5 48t25.5 40q10 7 39 5q18 -2 51 0q65 4 77 13q3 3 5 6q7 15 -2 33t-29 28q-30 11 -66 11q-39 0 -66 12q-10 6 9.5 71.5t34.5 84.5q18 18 50.5 19t55.5 -17z" />
    <glyph glyph-name="egrave" unicode="&#xe8;" horiz-adv-x="1040" 
d="M411 -62q96 -32 202.5 -16.5t202.5 65t151 114.5q21 21 48 67t14 92q-18 48 -73 61q-31 6 -68 -9t-111 -59q-1 -1 -2 -1t-2 -1q-115 -64 -193 -55q-78 11 -123 53q-43 42 -69 82q-4 4 -5 6q67 -7 175 17q85 19 155.5 50t126.5 74t83 102.5t17 128.5q-28 158 -175 228
q-42 25 -90 36q-110 21 -215 -21q-175 -58 -283 -193q-104 -133 -124 -295q-18 -162 67 -305q86 -143 291 -221zM682 639q6 -15 -11.5 -32.5t-51.5 -35.5t-64 -30.5t-67 -26.5q-127 -43 -155 -25q-27 19 12 66q39 48 109 91t136 49q66 8 92 -56zM573 1092q-96 41 -173 67
q-76 25 -115 46t-49 51q-11 33 13 70t71 55t113 -1q75 -25 116 -80q37 -46 65 -68q32 -26 51 -39q13 -9 18.5 -13.5t9 -11t3.5 -13.5q-4 -26 -42.5 -53t-80.5 -10z" />
    <glyph glyph-name="eacute" unicode="&#xe9;" horiz-adv-x="1027" 
d="M398 -62q96 -32 202.5 -16.5t202.5 65t151 114.5q21 21 48 67t14 92q-18 48 -73 61q-31 6 -68 -9t-111 -59q-1 -1 -2 -1q-2 0 -2 -1q-115 -64 -193 -55q-78 11 -123 53q-43 42 -69 82q-4 4 -5 6q67 -7 175 17q85 19 155.5 50t126.5 74t83 102.5t17 128.5
q-28 158 -175 228q-42 25 -90 36q-110 21 -215 -21q-175 -58 -283 -193q-104 -133 -124 -295q-18 -162 67 -305q86 -143 291 -221zM669 639q6 -15 -11.5 -32.5t-51.5 -35.5t-64 -30.5t-67 -26.5q-127 -43 -155 -25q-27 19 12 66q39 48 109 91t136 49q66 8 92 -56zM497 1107
q-42 -17 -80.5 10t-42.5 53q0 7 3.5 13.5t9 11t18.5 13.5q19 14 51 39q28 22 65 68q41 55 116 80q66 19 112.5 1t71 -55t14.5 -70q-11 -30 -50.5 -51t-114.5 -46q-77 -26 -173 -67z" />
    <glyph glyph-name="ecircumflex" unicode="&#xea;" horiz-adv-x="1027" 
d="M398 -62q96 -32 202.5 -16.5t202.5 65t151 114.5q21 21 48 67t14 92q-18 48 -73 61q-31 6 -68 -9t-111 -59q-1 -1 -2 -1q-2 0 -2 -1q-115 -64 -193 -55q-78 11 -123 53q-43 42 -69 82q-4 4 -5 6q67 -7 175 17q85 19 155.5 50t126.5 74t83 102.5t17 128.5
q-28 158 -175 228q-42 25 -90 36q-110 21 -215 -21q-175 -58 -283 -193q-104 -133 -124 -295q-18 -162 67 -305q86 -143 291 -221zM669 639q6 -15 -11.5 -32.5t-51.5 -35.5t-64 -30.5t-67 -26.5q-127 -43 -155 -25q-27 19 12 66q39 48 109 91t136 49q66 8 92 -56zM404 1339
q22 38 47.5 62.5t44 30.5t35 8.5t21.5 -2.5h2q51 -11 91 -64q42 -54 78 -120q3 -4 10.5 -17t11.5 -19q22 -33 28 -53t-2 -53q-8 -21 -24 -29t-49 -6q-31 4 -62 38q-30 34 -43 62q-7 19 -18 52q-21 62 -30 63t-17.5 -12.5t-21.5 -44.5q-40 -102 -96 -144q-24 -17 -42 -24.5
t-37.5 -5t-38.5 19.5q-22 22 -2 68q21 45 60 102q31 47 54 88z" />
    <glyph glyph-name="edieresis" unicode="&#xeb;" horiz-adv-x="1040" 
d="M411 -62q96 -32 202.5 -16.5t202.5 65t151 114.5q21 21 48 67t14 92q-18 48 -73 61q-31 6 -68 -9t-111 -59q-1 -1 -2 -1t-2 -1q-115 -64 -193 -55q-78 11 -123 53q-43 42 -69 82q-4 4 -5 6q67 -7 175 17q85 19 155.5 50t126.5 74t83 102.5t17 128.5q-28 158 -175 228
q-42 25 -90 36q-110 21 -215 -21q-175 -58 -283 -193q-104 -133 -124 -295q-18 -162 67 -305q86 -143 291 -221zM682 639q6 -15 -11.5 -32.5t-51.5 -35.5t-64 -30.5t-67 -26.5q-127 -43 -155 -25q-27 19 12 66q39 48 109 91t136 49q66 8 92 -56zM522 1330q14 -56 -13 -110
q-25 -55 -99 -67q-151 -19 -179 68q-16 52 5 104q23 51 107 72q66 16 115 -1t64 -66zM888 1321q14 -56 -13 -110q-25 -55 -99 -67q-151 -19 -179 68q-16 52 5 104q23 51 107 72q66 16 115 -1t64 -66z" />
    <glyph glyph-name="igrave" unicode="&#xec;" horiz-adv-x="549" 
d="M313 922q-71 -3 -120 -24t-58 -58q-11 -87 8 -198q34 -211 -6 -347q1 0 0 -4.5t-5 -16.5q-24 -83 -25 -128q2 -76 50 -116q48 -39 117 -53q65 -13 123 -5q55 7 69 29q15 30 17 63t-5 59.5t-21 62.5q-27 64 -31 137q-1 84 37 200q19 59 45 161q16 58 9.5 99.5t-23.5 69
t-47.5 43t-63 21.5t-70.5 5zM344 1092q-96 41 -173 67q-76 25 -115 46t-49 51q-11 33 13 70t71 55t113 -1q75 -25 116 -80q37 -46 65 -68q31 -26 51 -39q13 -9 18.5 -13.5t9 -11t3.5 -13.5q-4 -26 -42.5 -53t-80.5 -10z" />
    <glyph glyph-name="iacute" unicode="&#xed;" horiz-adv-x="568" 
d="M287 922q-71 -3 -120 -24t-58 -58q-11 -87 8 -198q34 -211 -6 -347q1 0 0 -4.5t-5 -16.5q-24 -83 -25 -128q2 -76 50 -116q48 -39 117 -53q65 -13 123 -5q55 7 69 29q15 30 17 63t-5 59.5t-21 62.5q-27 64 -31 137q-1 84 37 200q19 59 45 161q16 58 9.5 99.5t-23.5 69
t-47.5 43t-63 21.5t-70.5 5zM255 1107q-42 -17 -80.5 10t-42.5 53q0 7 3.5 13.5t9 11t18.5 13.5q19 14 51 39q28 22 65 68q41 55 116 80q66 19 112.5 1t71 -55t14.5 -70q-11 -30 -50.5 -51t-114.5 -46q-77 -26 -173 -67z" />
    <glyph glyph-name="icircumflex" unicode="&#xee;" horiz-adv-x="604" 
d="M318 922q-71 -3 -120 -24t-58 -58q-11 -87 8 -198q34 -211 -6 -347q1 0 -0.5 -4.5t-4.5 -16.5q-24 -83 -25 -128q2 -76 50 -116q48 -39 117 -53q65 -13 123 -5q55 7 69 29q15 30 17 63t-5 59.5t-21 62.5q-27 64 -31 137q-1 84 37 200q19 59 45 161q16 58 9.5 99.5
t-23.5 69t-47.5 43t-63 21.5t-70.5 5zM193 1339q22 38 47.5 62.5t44 30.5t35 8.5t21.5 -2.5h2q51 -11 91 -64q42 -54 78 -120q3 -4 10.5 -17t11.5 -19q22 -33 28 -53t-2 -53q-8 -21 -24 -29t-49 -6q-31 4 -62 38q-30 34 -43 62q-8 19 -18 52q-21 62 -30 63t-17.5 -12.5
t-21.5 -44.5q-40 -102 -96 -144q-24 -17 -42 -24.5t-37.5 -5t-38.5 19.5q-22 22 -2 68q21 45 60 102q31 47 54 88z" />
    <glyph glyph-name="idieresis" unicode="&#xef;" horiz-adv-x="607" 
d="M324 922q-71 -3 -120 -24t-58 -58q-11 -87 8 -198q34 -211 -6 -347q1 0 -0.5 -4.5t-4.5 -16.5q-24 -83 -25 -128q2 -76 50 -116q48 -39 117 -53q65 -13 123 -5q55 7 69 29q15 30 17 63t-5 59.5t-21 62.5q-27 64 -31 137q-1 84 37 200q19 59 45 161q16 58 9.5 99.5
t-23.5 69t-47.5 43t-63 21.5t-70.5 5zM304 1330q14 -56 -13 -110q-25 -55 -99 -67q-151 -19 -179 68q-16 52 5 104q23 51 107 72q66 16 115 -1t64 -66zM670 1321q14 -56 -13 -110q-25 -55 -99 -67q-151 -19 -179 68q-16 52 5 104q23 51 107 72q66 16 115 -1t64 -66z" />
    <glyph glyph-name="eth" unicode="&#xf0;" horiz-adv-x="1131" 
d="M924 996q101 -107 151 -285q49 -175 6 -432q-33 -151 -141 -216q-107 -65 -238 -74q-131 -11 -236 6q-107 15 -132 25q-111 26 -188 116q-32 41 -53 92q-38 77 -49 166q-9 89 41 163q95 122 207 137t219 -29q112 -46 181 -98q75 -55 89 -72q2 34 -10 137q-12 106 -63 213
q-89 -77 -182 -125q-67 -20 -104 16q-37 37 -46 88q-9 52 10 75q19 19 72 26q47 7 124 28q4 1 17 13q-48 29 -115 30q-52 1 -91 11.5t-60.5 27.5t-35 35.5t-16.5 39.5t-2.5 35.5t3.5 28.5q11 41 62 45q52 4 112 -3q14 -2 49 -4q127 -6 270 -93q70 57 144 94q65 20 102 -16
q38 -37 47 -87q10 -50 -10 -75q-15 -16 -72 -27q-32 -6 -62 -12zM613 245q33 8 59.5 22.5t39.5 33.5t10 39.5t-33 42.5t-86 40q-40 13 -79 20t-76 -0.5t-42 -35.5q-19 -119 63 -154q66 -28 144 -8z" />
    <glyph glyph-name="ntilde" unicode="&#xf1;" horiz-adv-x="1104" 
d="M1013 612q1 109 -37 175.5t-101 83.5t-138.5 2t-154.5 -61q-81 -49 -166 -114q11 107 -3 132q-44 76 -121 80q-79 5 -149 -34q-71 -39 -87 -96q-14 -52 8 -140q16 -64 35 -183q0 -9 -6 -70q-2 -23 -7 -69t-7 -61q-13 -126 -13 -133q0 -102 183 -118q103 -4 152 34
q49 40 63 84q13 37 -19 161q-24 104 -24 140v62q15 33 19 37q76 61 129.5 60.5t69.5 -59.5q21 -86 15 -292q-5 -116 4 -163q9 -32 57.5 -50t119.5 -20q39 -1 71.5 4t63 18.5t47 36.5t23 58.5t-8.5 85.5q-20 74 -21 169q-2 111 2 176q1 25 1 64zM292 1168q30 65 83.5 119.5
t103.5 45.5q30 -8 64.5 -38.5t45.5 -45.5q6 -8 8 -10q13 -18 23 -19q19 0 42 40q32 50 61 55q22 3 44.5 -11t35.5 -34q26 -48 3 -107q-22 -57 -79 -83q-54 -19 -115.5 6.5t-94.5 70.5q-3 4 -7.5 11t-5.5 9q-6 12 -11 17.5t-11 4.5q-10 0 -19 -38q-10 -66 -49 -91
q-33 -20 -74 -15t-60 29q-16 26 12 84z" />
    <glyph glyph-name="ograve" unicode="&#xf2;" horiz-adv-x="911" 
d="M851 610q-1 0 -1 -1q-36 107 -112 186q-77 80 -184 108q-3 1 -9.5 2t-10.5 2v1q-20 2 -31 3q-23 3 -45 3t-45 -3q-20 -2 -31 -3v-1q-3 -1 -9.5 -2t-10.5 -2q-108 -29 -184 -108t-112 -186v1q-26 -76 -25 -151q-1 -75 25 -151v1v1q42 -140 141 -225q100 -84 251 -85
q56 0 104.5 11t84 28t66 43t50.5 51.5t38 59t28 59t21 58.5v-1l1 -1q26 74 24 151q1 78 -24 151zM395 283q-24 1 -37.5 21t-15.5 51t1 61.5t9 60.5q29 113 74 126q47 14 87 -34q40 -46 54 -116q13 -69 -24 -121t-148 -49zM489 1092q-96 41 -173 67q-76 25 -115 46t-49 51
q-11 33 13 70t71 55t113 -1q75 -25 116 -80q37 -46 65 -68q32 -26 51 -39q13 -9 18.5 -13.5t9 -11t3.5 -13.5q-4 -26 -42.5 -53t-80.5 -10z" />
    <glyph glyph-name="oacute" unicode="&#xf3;" horiz-adv-x="906" 
d="M846 610q-1 0 -1 -1q-36 107 -112 186q-77 80 -184 108q-4 1 -10 2t-10 2v1q-20 2 -31 3q-22 3 -45 3t-45 -3q-20 -2 -31 -3v-1q-4 -1 -10.5 -2t-9.5 -2q-108 -29 -184 -108t-112 -186v1q-26 -76 -25 -151q-1 -75 25 -151v1v1q42 -140 141 -225q100 -84 251 -85
q56 0 104.5 11t84 28t66 43t50.5 51.5t38 59t28 59t21 58.5v-1l1 -1q26 74 24 151q1 78 -24 151zM390 283q-24 1 -37.5 21t-15.5 51t1 61.5t9 60.5q29 113 74 126q47 14 87 -34q40 -46 54 -116q13 -69 -24 -121t-148 -49zM422 1107q-42 -17 -80.5 10t-42.5 53q0 7 3.5 13.5
t9 11t18.5 13.5q20 14 51 39q28 22 65 68q41 55 116 80q66 19 112.5 1t71 -55t14.5 -70q-11 -30 -50.5 -51t-114.5 -46q-77 -26 -173 -67z" />
    <glyph glyph-name="ocircumflex" unicode="&#xf4;" horiz-adv-x="911" 
d="M851 610q-1 0 -1 -1q-36 107 -112 186q-77 80 -184 108q-3 1 -9.5 2t-10.5 2v1q-20 2 -31 3q-23 3 -45 3t-45 -3q-20 -2 -31 -3v-1q-3 -1 -9.5 -2t-10.5 -2q-108 -29 -184 -108t-112 -186v1q-26 -76 -25 -151q-1 -75 25 -151v1v1q42 -140 141 -225q100 -84 251 -85
q56 0 104.5 11t84 28t66 43t50.5 51.5t38 59t28 59t21 58.5v-1l1 -1q26 74 24 151q1 78 -24 151zM395 283q-24 1 -37.5 21t-15.5 51t1 61.5t9 60.5q29 113 74 126q47 14 87 -34q40 -46 54 -116q13 -69 -24 -121t-148 -49zM333 1339q22 38 47.5 62.5t44 30.5t35 8.5
t21.5 -2.5h2q51 -11 91 -64q42 -54 78 -120q3 -4 10.5 -17t11.5 -19q22 -33 28 -53t-2 -53q-8 -21 -24 -29t-49 -6q-31 4 -62 38q-30 34 -43 62q-7 19 -18 52q-21 62 -30 63t-17.5 -12.5t-21.5 -44.5q-40 -102 -96 -144q-24 -17 -42 -24.5t-37.5 -5t-38.5 19.5q-22 22 -2 68
q21 45 60 102q31 47 54 88z" />
    <glyph glyph-name="otilde" unicode="&#xf5;" horiz-adv-x="911" 
d="M851 610q-1 0 -1 -1q-36 107 -112 186q-77 80 -184 108q-3 1 -9.5 2t-10.5 2v1q-20 2 -31 3q-23 3 -45 3t-45 -3q-20 -2 -31 -3v-1q-3 -1 -9.5 -2t-10.5 -2q-108 -29 -184 -108t-112 -186v1q-26 -76 -25 -151q-1 -75 25 -151v1v1q42 -140 141 -225q100 -84 251 -85
q56 0 104.5 11t84 28t66 43t50.5 51.5t38 59t28 59t21 58.5v-1l1 -1q26 74 24 151q1 78 -24 151zM395 283q-24 1 -37.5 21t-15.5 51t1 61.5t9 60.5q29 113 74 126q47 14 87 -34q40 -46 54 -116q13 -69 -24 -121t-148 -49zM205 1168q30 65 83.5 119.5t103.5 45.5
q30 -8 64.5 -38.5t45.5 -45.5q6 -8 8 -10q13 -18 23 -19q19 0 42 40q32 50 61 55q22 3 44.5 -11t35.5 -34q26 -48 3 -107q-22 -57 -79 -83q-54 -19 -115.5 6.5t-94.5 70.5q-3 4 -7.5 11t-5.5 9q-6 12 -11 17.5t-11 4.5q-10 0 -19 -38q-10 -66 -49 -91q-33 -20 -74 -15
t-60 29q-16 26 12 84z" />
    <glyph glyph-name="odieresis" unicode="&#xf6;" horiz-adv-x="911" 
d="M851 610q-1 0 -1 -1q-36 107 -112 186q-77 80 -184 108q-3 1 -9.5 2t-10.5 2v1q-20 2 -31 3q-23 3 -45 3t-45 -3q-20 -2 -31 -3v-1q-3 -1 -9.5 -2t-10.5 -2q-108 -29 -184 -108t-112 -186v1q-26 -76 -25 -151q-1 -75 25 -151v1v1q42 -140 141 -225q100 -84 251 -85
q56 0 104.5 11t84 28t66 43t50.5 51.5t38 59t28 59t21 58.5v-1l1 -1q26 74 24 151q1 78 -24 151zM395 283q-24 1 -37.5 21t-15.5 51t1 61.5t9 60.5q29 113 74 126q47 14 87 -34q40 -46 54 -116q13 -69 -24 -121t-148 -49zM439 1330q14 -56 -13 -110q-25 -55 -99 -67
q-151 -19 -179 68q-16 52 5 104q23 51 107 72q66 16 115 -1t64 -66zM805 1321q14 -56 -13 -110q-25 -55 -99 -67q-151 -19 -179 68q-16 52 5 104q23 51 107 72q66 16 115 -1t64 -66z" />
    <glyph glyph-name="divide" unicode="&#xf7;" 
d="M125 840q-43 -24 -66 -75q-22 -49 -5 -100q23 -54 98 -80q54 -15 128 5q21 6 57 13q54 11 354 -18q5 0 15.5 -0.5t15.5 -1.5q90 -8 115 -7q34 1 49 18q37 42 29 113q-7 69 -56 107q-26 13 -45 12t-56 -12q-54 -19 -155 -26q-100 -4 -257 26q-83 17 -104 23
q-46 12 -68 13.5t-49 -10.5zM701 401q22 -69 -19 -142q-40 -72 -150 -87q-95 -10 -173 7q-76 17 -98 81q-25 68 7 135q33 65 162 94q95 19 171 -2q76 -19 100 -86zM706 1162q22 -69 -19 -142q-41 -72 -150 -87q-95 -10 -173 7q-76 17 -98 81q-25 68 7 135q33 65 162 94
q95 19 171 -2q76 -19 100 -86z" />
    <glyph glyph-name="oslash" unicode="&#xf8;" horiz-adv-x="952" 
d="M455 289l-2 -2q61 11 86 45q37 52 24 121l-2 8q-14 -22 -106 -172zM338 353q0 1 1 1l1 2q47 72 151 230q-32 28 -70 17q-45 -13 -74 -126q-9 -44 -10 -81q-2 -25 1 -43zM766 757q50 -65 79 -148q0 1 1 1q25 -73 24 -151q2 -77 -24 -151l-1 1v1q-11 -33 -21 -58.5t-28 -59
t-38 -59t-50.5 -51.5t-66 -43t-84 -28t-104.5 -11q-81 2 -142 23l-10 -24q-41 -100 -98 -170q-63 -75 -98 -35q-29 33 -20 110q3 18 7 35q14 43 84 158q0 1 5 8q-83 81 -120 205v-2q-26 76 -25 151q-1 75 25 151v-1q36 107 112 186t184 108l20 4v1q11 1 31 3q22 3 45 3
t45 -3q11 -1 31 -3v-1l20 -4q63 -17 114 -49q4 8 6 13q42 94 71.5 144.5t61.5 74.5q46 32 81 10q43 -27 19 -115q-6 -23 -18 -50q-39 -88 -105 -160q-9 -9 -13 -14z" />
    <glyph glyph-name="ugrave" unicode="&#xf9;" horiz-adv-x="1105" 
d="M87 249q-1 -89 24 -149.5t67.5 -88t98.5 -31.5t117 14t123 54q74 44 167 115q-11 -108 3 -133q43 -75 121 -79q78 -5 148 34t88 95q14 52 -8 140q-16 64 -35 183q0 9 6 69q12 118 13 132q13 110 13 132q0 46 -42.5 78.5t-139.5 40.5q-103 5 -153 -36q-48 -39 -62 -83
q-12 -32 18 -161q25 -98 25 -140v-61q-15 -33 -19 -37q-76 -62 -130 -61.5t-70 60.5q-14 57 -15 136q-1 54 1 156q4 107 -4 163q-9 32 -57.5 49.5t-119.5 19.5q-39 1 -71.5 -4t-63 -18t-47.5 -36.5t-23.5 -59t9.5 -84.5q18 -70 20 -170q2 -106 -1 -176q-1 -25 -1 -63z
M586 1092q-96 41 -173 67q-76 25 -115 46t-49 51q-11 33 13 70t71 55t113 -1q75 -25 116 -80q37 -46 65 -68q31 -26 51 -39q13 -9 18.5 -13.5t9 -11t3.5 -13.5q-4 -26 -42.5 -53t-80.5 -10z" />
    <glyph glyph-name="uacute" unicode="&#xfa;" horiz-adv-x="1105" 
d="M87 249q-1 -89 24 -149.5t67.5 -88t98.5 -31.5t117 14t123 54q74 44 167 115q-11 -108 3 -133q43 -75 121 -79q78 -5 148 34t88 95q14 52 -8 140q-16 64 -35 183q0 9 6 69q12 118 13 132q13 110 13 132q0 46 -42.5 78.5t-139.5 40.5q-103 5 -153 -36q-48 -39 -62 -83
q-12 -32 18 -161q25 -98 25 -140v-61q-15 -33 -19 -37q-76 -62 -130 -61.5t-70 60.5q-14 57 -15 136q-1 54 1 156q4 107 -4 163q-9 32 -57.5 49.5t-119.5 19.5q-39 1 -71.5 -4t-63 -18t-47.5 -36.5t-23.5 -59t9.5 -84.5q18 -70 20 -170q2 -106 -1 -176q-1 -25 -1 -63z
M523 1107q-42 -17 -80.5 10t-42.5 53q0 7 3.5 13.5t9 11t18.5 13.5q19 14 51 39q28 22 65 68q41 55 116 80q66 19 112.5 1t71 -55t14.5 -70q-11 -30 -50.5 -51t-114.5 -46q-77 -26 -173 -67z" />
    <glyph glyph-name="ucircumflex" unicode="&#xfb;" horiz-adv-x="1105" 
d="M87 249q-1 -89 24 -149.5t67.5 -88t98.5 -31.5t117 14t123 54q74 44 167 115q-11 -108 3 -133q43 -75 121 -79q78 -5 148 34t88 95q14 52 -8 140q-16 64 -35 183q0 9 6 69q12 118 13 132q13 110 13 132q0 46 -42.5 78.5t-139.5 40.5q-103 5 -153 -36q-48 -39 -62 -83
q-12 -32 18 -161q25 -98 25 -140v-61q-15 -33 -19 -37q-76 -62 -130 -61.5t-70 60.5q-14 57 -15 136q-1 54 1 156q4 107 -4 163q-9 32 -57.5 49.5t-119.5 19.5q-39 1 -71.5 -4t-63 -18t-47.5 -36.5t-23.5 -59t9.5 -84.5q18 -70 20 -170q2 -106 -1 -176q-1 -25 -1 -63z
M430 1339q22 38 47.5 62.5t44 30.5t35 8.5t21.5 -2.5h2q51 -11 91 -64q42 -54 78 -120q3 -4 10.5 -17t11.5 -19q22 -33 28 -53t-2 -53q-8 -21 -24 -29t-49 -6q-31 4 -62 38q-30 34 -43 62q-8 19 -18 52q-21 62 -30 63t-17.5 -12.5t-21.5 -44.5q-40 -102 -96 -144
q-24 -17 -42 -24.5t-37.5 -5t-38.5 19.5q-22 22 -2 68q21 45 60 102q31 47 54 88z" />
    <glyph glyph-name="udieresis" unicode="&#xfc;" horiz-adv-x="1105" 
d="M87 249q-1 -89 24 -149.5t67.5 -88t98.5 -31.5t117 14t123 54q74 44 167 115q-11 -108 3 -133q43 -75 121 -79q78 -5 148 34t88 95q14 52 -8 140q-16 64 -35 183q0 9 6 69q12 118 13 132q13 110 13 132q0 46 -42.5 78.5t-139.5 40.5q-103 5 -153 -36q-48 -39 -62 -83
q-12 -32 18 -161q25 -98 25 -140v-61q-15 -33 -19 -37q-76 -62 -130 -61.5t-70 60.5q-14 57 -15 136q-1 54 1 156q4 107 -4 163q-9 32 -57.5 49.5t-119.5 19.5q-39 1 -71.5 -4t-63 -18t-47.5 -36.5t-23.5 -59t9.5 -84.5q18 -70 20 -170q2 -106 -1 -176q-1 -25 -1 -63z
M535 1330q14 -56 -13 -110q-25 -55 -99 -67q-151 -19 -179 68q-16 52 5 104q23 51 107 72q66 16 115 -1t64 -66zM901 1321q14 -56 -13 -110q-25 -55 -99 -67q-151 -19 -179 68q-16 52 5 104q23 51 107 72q66 16 115 -1t64 -66z" />
    <glyph glyph-name="yacute" unicode="&#xfd;" horiz-adv-x="996" 
d="M973 886q-6 10 -14.5 20t-18 17.5t-20.5 14.5t-21 12.5t-21.5 10t-20.5 8t-18 6t-15 4t-11 3.5l-5 1q-80 14 -141 -11.5t-85 -78.5q-9 -27 14 -66q35 -60 48 -153q-40 -147 -63 -216q-22 -67 -51 -130q-73 61 -121 142q-48 80 -37 204q12 88 48 153q23 39 14 66
q-24 53 -85 78.5t-141 11.5l-5 -1q-5 -2 -11 -3.5t-15 -4t-18 -6t-20.5 -8t-21.5 -10t-21 -12.5t-20.5 -14.5t-18 -17.5t-14.5 -20q-16 -25 5 -130q62 -274 137 -408q75 -133 151 -181q73 -45 129 -50q-27 -114 -52 -178q-23 -58 -60 -71q-19 -7 -31.5 6t-19.5 46
q8 17 16 28q30 37 25 74q-9 43 -80.5 52t-113.5 -17q-77 -47 -96 -127q-18 -82 7 -157q26 -77 82 -109q148 -72 271 -6q122 64 219 214q96 147 166 327q69 175 112 331q42 148 58 226q22 101 5 130zM477 1107q-42 -17 -80.5 10t-42.5 53q0 7 3.5 13.5t9 11t18.5 13.5
q19 14 51 39q28 22 65 68q41 55 116 80q66 19 112.5 1t71 -55t14.5 -70q-11 -30 -50.5 -51t-114.5 -46q-77 -26 -173 -67z" />
    <glyph glyph-name="thorn" unicode="&#xfe;" horiz-adv-x="1172" 
d="M1080 579q100 -145 57 -325q-21 -75 -71.5 -123t-120 -64.5t-147 -12.5t-160.5 27q-42 13 -99 51q-56 37 -92 65l-2 2q-1 1 -2 1q3 -20 42 -151q37 -118 44 -150q11 -69 14.5 -111.5t1 -59t-8.5 -30.5q-13 -28 -36.5 -49t-47 -32t-47.5 -17.5t-38 -8t-18 -1.5
q-93 -3 -173 53q-78 55 -107 139q-8 27 17 81q20 41 65 261q0 58 -18 191q-9 69 -41 293q-31 211 -44 306q-17 137 -11 164q28 85 107 140q78 55 173 53q5 0 18 -1.5t38 -8.5t48 -17.5t46.5 -32t36.5 -49.5q21 -40 -8 -200q-2 -15 -12 -58q-52 -253 -47 -266q89 59 124 73
q115 58 250 37q113 -9 203 -87q36 -33 66 -82zM788 328q4 110 -49 148q-52 37 -121 24q-70 -14 -116 -54q-47 -41 -34 -87q13 -45 127 -74q30 -6 59.5 -8.5t61 -1t51.5 15t21 37.5z" />
    <glyph glyph-name="ydieresis" unicode="&#xff;" horiz-adv-x="1031" 
d="M973 886q-6 10 -14.5 20t-18 17.5t-20.5 14.5t-21 12.5t-21.5 10t-20.5 8t-18 6t-15 4t-11 3.5l-5 1q-80 14 -141 -11.5t-85 -78.5q-9 -27 14 -66q35 -60 48 -153q-40 -147 -63 -216q-22 -67 -51 -130q-73 61 -121 142q-48 80 -37 204q12 88 48 153q23 39 14 66
q-24 53 -85 78.5t-141 11.5l-5 -1q-5 -2 -11 -3.5t-15 -4t-18 -6t-20.5 -8t-21.5 -10t-21 -12.5t-20.5 -14.5t-18 -17.5t-14.5 -20q-16 -25 5 -130q62 -274 137 -408q75 -133 151 -181q73 -45 129 -50q-27 -114 -52 -178q-23 -58 -60 -71q-19 -7 -31.5 6t-19.5 46
q8 17 16 28q30 37 25 74q-9 43 -80.5 52t-113.5 -17q-77 -47 -96 -127q-18 -82 7 -157q26 -77 82 -109q148 -72 271 -6q122 64 219 214q96 147 166 327q69 175 112 331q42 148 58 226q22 101 5 130zM489 1330q14 -56 -13 -110q-25 -55 -99 -67q-151 -19 -179 68
q-16 52 5 104q23 51 107 72q66 16 115 -1t64 -66zM855 1321q14 -56 -13 -110q-25 -55 -99 -67q-151 -19 -179 68q-16 52 5 104q23 51 107 72q66 16 115 -1t64 -66z" />
    <glyph glyph-name="dotlessi" unicode="&#x131;" horiz-adv-x="515" 
d="M246 922q38 1 70.5 -5t63 -21.5t47.5 -43t23.5 -69t-9.5 -99.5q-26 -102 -45 -161q-38 -116 -37 -200q4 -73 31 -137q14 -36 21 -62.5t5 -59.5t-17 -63q-14 -22 -69 -29q-58 -8 -123 5q-69 14 -117 53q-48 40 -50 116q1 45 25 128q3 12 4.5 16.5t0.5 4.5q40 136 6 347
q-19 111 -8 198q9 37 58 58t120 24z" />
    <glyph glyph-name="circumflex" unicode="&#x2c6;" horiz-adv-x="1024" 
d="M370 1339q22 38 47.5 62.5t44 30.5t35 8.5t21.5 -2.5h2q51 -11 91 -64q42 -54 78 -120q3 -4 10.5 -17t11.5 -19q22 -33 28 -53t-2 -53q-8 -21 -24 -29t-49 -6q-31 4 -62 38q-30 34 -43 62q-8 19 -18 52q-21 62 -30 63t-17.5 -12.5t-21.5 -44.5q-40 -102 -96 -144
q-24 -17 -42 -24.5t-37.5 -5t-38.5 19.5q-22 22 -2 68q21 45 60 102q31 47 54 88z" />
    <glyph glyph-name="caron" unicode="&#x2c7;" horiz-adv-x="1024" 
d="M370 1160q-24 44 -54 88q-39 58 -60 102q-20 46 2 69q32 24 57 20t61 -31q55 -42 96 -143q13 -31 21.5 -45t17.5 -13q10 3 30 64q9 29 18 51q14 30 43 63q31 34 62 38q33 2 49 -6t24 -30q8 -32 2 -52.5t-28 -53.5q-4 -5 -22 -35q-35 -66 -78 -121q-40 -53 -91 -64h-2
q-5 -4 -21.5 -1.5t-35 8.5t-43.5 30t-48 62z" />
    <glyph glyph-name="uni02C9" unicode="&#x2c9;" horiz-adv-x="1024" 
d="M272 1347q24 14 80 -2q33 -9 71 -17q110 -23 176 -20q69 6 107 20q47 14 69 0q34 -27 38 -79q6 -52 -19 -83q-11 -12 -34 -13t-79 5q-4 0 -11 1t-10 1q-209 20 -243 13l-22 -5.5t-17 -4.5q-52 -15 -88 -3q-14 2 -35.5 17t-31.5 41q-12 36 3 73t46 56z" />
    <glyph glyph-name="breve" unicode="&#x2d8;" horiz-adv-x="1024" 
d="M285 1288q40 23 87 20q49 -1 72 -26q12 -15 4 -49q-12 -34 4 -59q21 -27 53 -37q36 -11 58 -1q24 15 10 73q-16 71 15 97q29 22 76 17q46 -3 81 -27q46 -38 38 -99q-7 -59 -46 -105q-57 -61 -148 -76q-89 -15 -170 8q-25 6 -75 33q-48 27 -78 83q-7 16 -13.5 35.5
t-1.5 56t34 56.5z" />
    <glyph glyph-name="dotaccent" unicode="&#x2d9;" horiz-adv-x="508" 
d="M476 1409q21 -70 -17 -142q-37 -72 -141 -87q-88 -10 -161 7q-69 16 -92 81q-23 70 7 135q31 66 151 94q89 19 160 -2q70 -19 93 -86z" />
    <glyph glyph-name="ring" unicode="&#x2da;" horiz-adv-x="1024" 
d="M707 1336q43 -46 42 -108q1 -61 -42 -109q-50 -50 -132 -64q-81 -12 -152 7q-24 5 -67 27t-69 70q-16 26 -15 69q-1 43 15 69q25 47 69 69q43 22 67 27q74 20 152 7q82 -12 132 -64zM586 1281q-19 25 -51 32t-58 -3q-38 -13 -53 -48q-6 -23 -5 -34q-1 -11 5 -34
q16 -39 53 -48q26 -11 57.5 -3.5t51.5 31.5q16 23 16 54t-16 53z" />
    <glyph glyph-name="ogonek" unicode="&#x2db;" horiz-adv-x="1024" 
d="M312 -111q37 43 99.5 74.5t114.5 20.5q31 -9 51 -29t15 -40q-4 -17 -47 -32q-51 -18 -68 -44q-13 -17 -11.5 -39.5t18.5 -36.5q23 -15 73 -10q53 6 86 -9q34 -18 43.5 -50.5t-12.5 -60.5q-41 -45 -174 -37l-8 1q-9 1 -17 2.5t-21 3.5t-26 6t-28.5 9t-30 12t-28.5 15.5
t-27.5 20.5t-23.5 25q-25 31 -29 66.5t9 63.5t23 43.5t19 24.5z" />
    <glyph glyph-name="tilde" unicode="&#x2dc;" horiz-adv-x="1024" 
d="M217 1168q30 65 83.5 119.5t103.5 45.5q30 -8 64.5 -38.5t45.5 -45.5q6 -8 8 -10q13 -18 23 -19q19 0 42 40q32 50 61 55q22 3 44.5 -11t35.5 -34q26 -48 3 -107q-22 -57 -79 -83q-54 -19 -115.5 6.5t-94.5 70.5q-3 4 -7.5 11t-5.5 9q-6 12 -11 17.5t-11 4.5
q-10 0 -19 -38q-10 -66 -49 -91q-33 -20 -74 -15t-60 29q-16 26 12 84z" />
    <glyph glyph-name="hungarumlaut" unicode="&#x2dd;" horiz-adv-x="1024" 
d="M170 1107q-36 -17 -83 10t-59 53q-4 11 0.5 18.5t18.5 19.5q17 14 39 39q22 24 45 68q10 23 34.5 45.5t56.5 34.5q60 19 112.5 1t88 -55t34.5 -70q-1 -30 -33.5 -51t-101.5 -46q-74 -28 -152 -67zM633 1107q-36 -19 -83.5 10t-57.5 53q-5 6 -2 13.5t7 11.5t14 13
q17 16 38 39q23 23 45 68q11 23 35.5 45.5t56.5 34.5q59 19 111.5 1t88 -55t35.5 -70q-1 -30 -33.5 -51t-101.5 -46q-73 -27 -153 -67z" />
    <glyph glyph-name="endash" unicode="&#x2013;" horiz-adv-x="1108" 
d="M1001 604q34 -8 52 -42t19 -72t-7 -71t-22 -40q-11 -4 -252 -2q-191 4 -423 1q-214 -1 -291 -22q-45 13 -53 64q-7 48 8 99q15 50 35 62q15 4 145 -5q94 -6 266 -13q165 -5 295 2q143 7 228 39z" />
    <glyph glyph-name="emdash" unicode="&#x2014;" horiz-adv-x="2048" 
d="M1871 604q86 -13 114 -64q28 -49 14 -100q-13 -49 -51 -61q-16 -3 -146 -3q-195 0 -328 1q-362 4 -799 1q-402 -1 -549 -22q-86 14 -100 64t15 99q29 51 65 62q29 4 275 -5q177 -6 502 -13q311 -5 557 2q271 8 431 39z" />
    <glyph glyph-name="quoteleft" unicode="&#x2018;" horiz-adv-x="557" 
d="M286 1043q-82 -1 -133 35t-66.5 89t-14.5 114t12 107t24 71q37 70 105 100q67 31 123 28q55 -3 60 -32q0 -34 -13 -49.5t-37 -23.5q-29 -11 -49 -33t-31 -71q90 33 132 -2q43 -34 55 -99q19 -81 -20 -155q-37 -71 -147 -79z" />
    <glyph glyph-name="quoteright" unicode="&#x2019;" horiz-adv-x="557" 
d="M245 1587q82 1 133 -35t66.5 -89t14 -114t-12.5 -107t-24 -71q-36 -69 -106 -101q-68 -30 -123 -27q-54 3 -59 32q1 34 13.5 49.5t36.5 23.5q29 11 49 33t31 70q-91 -32 -133 2t-54 100q-18 81 20 154q37 72 148 80z" />
    <glyph glyph-name="quotesinglbase" unicode="&#x201a;" horiz-adv-x="557" 
d="M251 332q113 -2 162 -54q51 -54 58 -126q7 -74 -6 -141q-13 -65 -29 -95q-40 -70 -110 -100q-69 -31 -128 -28q-56 3 -61 32q0 34 13 49.5t38 23.5q30 11 51.5 33t32.5 70q-94 -32 -138 3t-57 99q-19 82 21 154t153 80z" />
    <glyph glyph-name="quotedblleft" unicode="&#x201c;" horiz-adv-x="1099" 
d="M286 1043q-82 -1 -133 35t-66.5 89t-14.5 114t12 107t24 71q37 70 105 100q67 31 123 28q55 -3 60 -32q0 -34 -13 -49.5t-37 -23.5q-29 -11 -49 -33t-31 -71q90 33 132 -2q43 -34 55 -99q19 -81 -20 -155q-37 -71 -147 -79zM829 1043q-82 -1 -133 35t-66.5 89t-14.5 114
t12 107t24 71q37 70 105 100q67 31 123 28q55 -3 60 -32q0 -34 -13 -49.5t-37 -23.5q-29 -11 -49 -33t-31 -71q90 33 132 -2q43 -34 55 -99q19 -81 -20 -155q-37 -71 -147 -79z" />
    <glyph glyph-name="quotedblright" unicode="&#x201d;" horiz-adv-x="1099" 
d="M245 1587q82 1 133 -35t66.5 -89t14 -114t-12.5 -107t-24 -71q-36 -69 -106 -101q-68 -30 -123 -27q-54 3 -59 32q1 34 13.5 49.5t36.5 23.5q29 11 49 33t31 70q-91 -32 -133 2t-54 100q-18 81 20 154q37 72 148 80zM788 1587q82 1 133 -35t66.5 -89t14 -114t-12.5 -107
t-24 -71q-36 -69 -106 -101q-67 -30 -123 -27q-54 3 -59 32q1 34 13.5 49.5t36.5 23.5q29 11 49 33t31 70q-91 -32 -133 2t-54 100q-18 81 20 154q37 72 148 80z" />
    <glyph glyph-name="quotedblbase" unicode="&#x201e;" horiz-adv-x="1099" 
d="M245 272q82 1 133 -35t66.5 -89t14 -114t-12.5 -107t-24 -71q-37 -69 -106 -100q-67 -31 -123 -28q-54 3 -59 32q1 34 13.5 49.5t36.5 23.5q29 11 49 33t31 70q-90 -31 -133 3q-42 35 -54 99q-18 81 20 154q37 72 148 80zM788 272q82 1 133 -35t66.5 -89t14 -114
t-12.5 -107t-24 -71q-37 -69 -106 -100q-67 -31 -123 -28q-54 3 -59 32q1 34 13.5 49.5t36.5 23.5q29 11 49 33t31 70q-90 -31 -133 3q-42 35 -54 99q-18 81 20 154q37 72 148 80z" />
    <glyph glyph-name="dagger" unicode="&#x2020;" 
d="M848 1017q83 -13 103 -64q20 -50 0 -100q-19 -49 -56 -61q-28 -7 -95 11q-54 15 -153 35q-5 0 -21 -3q-9 -136 -7 -258q6 -121 21 -250q20 -143 21 -265q3 -122 -38 -195q-22 -34 -81 -42t-117 9.5t-79 51.5q-19 37 -18 142q1 97 11 240q12 173 10 327q-3 83 -14 188
q-108 -16 -215 -14q-84 14 -104 64q-19 48 1 99q21 50 56 62q29 7 96 -11q55 -16 148 -34q-28 263 29 355q21 33 80 41.5t117.5 -9t79.5 -50.5q26 -50 12 -283q106 16 213 14z" />
    <glyph glyph-name="daggerdbl" unicode="&#x2021;" 
d="M877 497q83 -13 103 -64q20 -50 0 -100q-19 -49 -56 -61q-28 -7 -95 11q-52 16 -153 35h-5q17 -134 19 -256q2 -119 -38 -188q-21 -34 -80.5 -42t-118 9.5t-78.5 51.5q-19 36 -18 138q1 79 10 233q-115 -16 -217 -15q-85 13 -105 64q-19 48 1 99q21 50 57 62q27 8 95 -11
q51 -16 152 -35q5 0 26 3q4 93 3 171q-4 90 -15 188q-108 -16 -214 -14q-85 13 -105 64q-19 48 1 99q21 50 57 62q27 8 95 -11q55 -16 148 -34q-28 259 29 355q21 33 80 41.5t117.5 -9t79.5 -50.5q25 -47 13 -283q106 16 212 14q83 -13 103 -64q20 -50 0 -100
q-19 -49 -56 -61q-28 -7 -95 11q-54 15 -153 35q-4 0 -21 -3q-9 -136 -7 -258q2 -50 6 -102q119 17 223 15z" />
    <glyph glyph-name="bullet" unicode="&#x2022;" horiz-adv-x="1024" 
d="M216 718q0 124 87 209q88 86 210 86q123 0 208 -87q87 -86 87 -208t-88 -210q-87 -87 -209 -87q-123 0 -209 87q-86 88 -86 210z" />
    <glyph glyph-name="ellipsis" unicode="&#x2026;" horiz-adv-x="2048" 
d="M481 233q22 -69 -19 -142q-40 -72 -150 -87q-95 -10 -173 7q-76 17 -98 81q-25 68 7 135q33 65 162 94q95 19 171 -2q76 -19 100 -86zM1164 233q22 -69 -19 -142q-41 -72 -150 -87q-95 -10 -173 7q-76 17 -98 81q-25 68 7 135q33 65 162 94q95 19 171 -2q76 -19 100 -86z
M1847 233q22 -69 -19 -142q-40 -72 -150 -87q-95 -10 -173 7q-76 17 -98 81q-25 68 7 135q33 65 162 94q95 19 171 -2q76 -19 100 -86z" />
    <glyph glyph-name="guilsinglleft" unicode="&#x2039;" horiz-adv-x="631" 
d="M509 149q-3 -7 -11 -11t-25 -1t-40 16q-116 67 -192.5 116t-117 78t-59.5 53.5t-21.5 36t-1.5 31.5v11v11q-1 23 1 36.5t21.5 43t58.5 58.5t117.5 75t193.5 102q61 30 76 4q42 -71 -86 -171q-26 -21 -56 -42t-68.5 -43t-51.5 -29.5t-53 -28.5t-24 -13q-3 -1 -4 -2h-1
l21 -12q21 -13 55.5 -34.5t75 -49t79 -59.5t68.5 -62.5t43 -61t2 -52.5z" />
    <glyph glyph-name="guilsinglright" unicode="&#x203a;" horiz-adv-x="631" 
d="M51 149q-26 61 98 164q79 67 246 167q-65 32 -145 79q-257 160 -199 250q15 25 76 -4q114 -56 192.5 -102t117 -75t58.5 -58.5t22 -43t2 -36.5v-11v-11q1 -20 -1.5 -31.5t-21.5 -36t-59.5 -53.5t-117 -78t-192.5 -116q-23 -13 -40 -16t-25 1t-11 11z" />
    <glyph glyph-name="fraction" unicode="&#x2044;" horiz-adv-x="342" 
d="M467 1364q67 90 140 100q44 6 55 -18q5 -11 0 -23q-4 -9 -68 -112q-102 -165 -157 -251q-152 -242 -381 -613q-194 -313 -246 -420q-63 -89 -124 -80q-34 5 -44 35q-4 15 1 30q10 18 134 210q132 202 248 385q145 227 264 427q123 204 178 330z" />
    <glyph glyph-name="fraction" unicode="&#x2215;" horiz-adv-x="342" 
d="M467 1364q67 90 140 100q44 6 55 -18q5 -11 0 -23q-4 -9 -68 -112q-102 -165 -157 -251q-152 -242 -381 -613q-194 -313 -246 -420q-63 -89 -124 -80q-34 5 -44 35q-4 15 1 30q10 18 134 210q132 202 248 385q145 227 264 427q123 204 178 330z" />
    <glyph glyph-name="franc" unicode="&#x20a3;" horiz-adv-x="1142" 
d="M487 72q7 -46 -60 -63q-65 -16 -151 -5q-82 10 -122 46q-75 83 -83 251q-7 164 28 357q33 180 82 341q47 149 80 202q54 76 189 112t282 15q146 -21 238 -117q31 -35 47.5 -95t5.5 -114.5t-53 -69.5q-52 -16 -195 39q-143 58 -192 36q-25 -12 -52 -43t-44.5 -78t1.5 -98
q8 -19 50 -28h2q52 -10 124 33q87 51 156 42q80 -11 118 -65q30 -46 26 -101q-3 -57 -37 -92q-37 -36 -101 -36q-68 2 -135 14q-40 8 -94 5t-101 -44q-45 -40 -55 -145q-9 -105 46 -299zM1084 413q45 -6 62.5 -28.5t9 -44t-28.5 -26.5q-12 -1 -260 -1q-287 2 -439 1
q-230 -2 -302 -10q-34 3 -47.5 18t-9 32t18 31.5t27.5 17.5q25 2 151 -2q118 -3 276 -6q174 -2 306 1q144 3 236 17z" />
    <glyph glyph-name="lira" unicode="&#x20a4;" horiz-adv-x="1343" 
d="M613 597q-1 -29 -1 -94q-2 -67 -38 -140q-4 -9 -24 -36q3 1 42 16q32 14 52.5 20.5t51.5 9t59 -6.5t67 -31t84 -60q60 -47 117 -30q55 16 107 50q71 46 103 36q31 -12 37 -72q8 -87 -47 -158q-78 -102 -246 -101q-131 0 -189 18q-62 21 -105 47q-15 9 -33 18
q-41 17 -105 2q-56 -12 -136 -40q-146 -48 -200 -45q-66 6 -111.5 35t-61 65.5t-7 76t41.5 66.5q1 0 3 2q165 129 192 214q19 62 18 111v25q-136 -5 -192 -15q-33 5 -46.5 30t-8.5 53t18 52t27 29q16 3 147 -3q10 -1 30.5 -1.5t30.5 -0.5q2 30 5 103q-143 -3 -202 -15
q-34 6 -47.5 30.5t-8.5 52.5t18 52t27 29q16 3 147 -3q17 -1 53 -3q-3 23 -7 64q-5 51 5 103q27 120 122 212q95 94 224 128q62 16 131 16t132 -14t114 -47t73 -79q23 -47 20 -105q-3 -59 -43 -102q-23 -23 -57 -34t-67 -2q-34 11 -56 52q-23 39 -53 53q-44 16 -96 0
q-53 -17 -84 -55q-15 -19 -18.5 -41.5t0.5 -53.5q5 -41 1 -104q98 0 174 4q140 4 231 28q43 -7 60.5 -45.5t9 -75.5t-28.5 -43q-11 -4 -254 -2l-200 2q0 -66 -1 -114q93 0 183 3q140 4 230 28q34 -6 52 -30.5t19 -52.5t-7 -52t-22 -29q-11 -3 -254 -1q-67 1 -202 1z" />
    <glyph glyph-name="peseta" unicode="&#x20a7;" horiz-adv-x="2318" 
d="M81 1265q17 45 108 85q95 42 217 61q129 20 250 2q123 -16 206 -90t86 -218q0 -63 -10 -118.5t-25 -96.5t-40.5 -76.5t-47.5 -59t-55.5 -44.5t-56 -32t-57 -22t-50 -15t-43.5 -10q-45 -7 -48 -17l-6 -96q1 -154 -3 -243q-2 -60 -2 -61q7 -148 -17 -185q-49 -79 -179 -79
q-84 9 -149 68q-65 60 -78 141q-6 35 19 86q22 39 44 125v1v1q29 221 36 356q8 136 -18 246q-30 116 -60 170q-19 37 -24 61t3 60zM625 957q31 76 26 118.5t-38.5 62t-68.5 23t-65.5 0.5t-29.5 -4l28 -269q0 -5 15 -23q47 -55 104 37q15 23 29 55zM1471 1186q78 -5 100 -52
q23 -48 10 -98q-12 -50 -42 -67q-27 -11 -87 1q-44 9 -138 18q-12 -74 -20 -107q-18 -77 -22 -169q2 -140 26 -254q26 -134 45 -192q14 -46 16.5 -68.5t-5.5 -59.5q-26 -84 -107 -140q-78 -55 -173 -53q-72 10 -113 33q-52 28 -73 76q-23 38 7 200q30 177 53 322
q28 175 48 313q-66 -17 -148 -23q-76 4 -101 52q-23 47 -11 98q14 51 44 67q27 11 86 -1q47 -9 122 -17q-10 24 -23 47q-33 56 -25 100q16 67 86 108q72 43 143 47q82 12 130 -32q39 -34 33 -170q60 15 139 21zM1390 762q22 46 59.5 84t70.5 59.5t80.5 41t69 25.5t55.5 15
q266 70 387 -39q39 -36 61 -88q24 -53 1 -108q-28 -54 -95 -75q-66 -21 -124 -3q-41 16 -63 42q-38 38 -84 46q-3 5 -39 2t-55 -22q-18 -22 -18 -55.5t18 -61.5q20 -30 56 -42t101 -18q152 -17 261 -67q52 -23 80 -42t46 -46q44 -80 14 -177q-30 -94 -98 -166
q-135 -142 -418 -118q-53 5 -109 19t-112.5 37t-96.5 59.5t-48 80.5q-6 46 17 92q23 45 67 65q32 7 58 6t58 -13.5t50 -22t33 -19.5q38 -26 62 -47q46 -45 84 -41q30 4 63 29q17 9 42.5 42t19.5 66q-14 46 -94 68q-58 19 -130 12q-35 -3 -68 -2q-194 16 -262 108
q-74 99 0 274z" />
    <glyph glyph-name="Euro" unicode="&#x20ac;" horiz-adv-x="1366" 
d="M972 462q68 39 152.5 50t140.5 -11t46 -69q-19 -100 -67 -182t-115.5 -135t-151 -84.5t-174 -30t-185.5 28.5q-131 44 -221 167q-92 126 -134 291q-1 0 -1 -1v-1q0 1 -0.5 3.5t-1.5 3.5t-1 4q-61 -3 -103 -2q-80 11 -99 47q-18 38 1 73q19 37 53 46q28 6 90 -8
q27 -6 34 -7q-3 32 -3 65q-53 -2 -76 -1q-80 11 -99 47q-18 38 1 73q19 37 53 46q28 6 90 -8q7 -2 22 -4.5t19 -3.5q9 57 20 96v-1l1 -1q42 165 134 291q91 124 221 168q117 34 244 -1q122 -34 231 -109q105 -73 167 -154q61 -81 51 -139q-10 -48 -67 -74.5t-135.5 -21
t-146.5 43.5q-37 22 -60 75q-14 34 -34 51t-59 14q-58 -9 -108.5 -67.5t-85.5 -150.5q128 14 227 13q46 -5 73 -22t31.5 -39.5t-1.5 -45t-23 -39t-36 -20.5q-26 -4 -89 8q-53 12 -144 26q-14 0 -74 -10q-10 -50 -11 -92q149 20 274 19q46 -5 73 -22t31.5 -39.5t-1.5 -45
t-23 -39t-36 -20.5q-23 -5 -89 8q-53 12 -144 26q-14 0 -77 -10q-1 -1 -4 -1q16 -106 74.5 -169.5t162.5 -63.5q31 0 52 6.5t33 20.5t17 26t11 32q15 57 50 76z" />
    <glyph glyph-name="uni2116" unicode="&#x2116;" horiz-adv-x="1828" 
d="M1028 744q-3 -134 15 -253q20 -139 37 -194q12 -44 14 -68t-8 -59q-31 -81 -112 -130q-82 -48 -175 -38q-7 1 -18.5 3.5t-36.5 11t-47 21t-44.5 35.5t-34.5 51q-5 14 -20 156q-3 27 -7 60t-9.5 74.5t-8.5 67.5q-15 125 -29 198q-35 158 -92 193q-58 37 -85 -56
q-26 -95 35 -325q39 -133 93 -207q20 -30 27.5 -49.5t4.5 -42.5q-11 -80 -71 -136q-58 -55 -152 -57q-7 0 -18.5 1t-38.5 6t-51 14t-52 28t-46 45q-25 34 -29 189q-7 408 31 640q39 227 98 324q60 96 117 114q59 18 91 11h9q23 3 84 -64q62 -65 139 -258q77 -192 138 -562
l1 110q-1 65 -3 225v34v25q-3 40 -6 97q-2 28 -4 66t-2 44q-17 122 -11 171q8 52 28 71q44 44 129 42q71 0 143 -35q71 -35 91 -101q4 -43 -36 -150q-72 -196 -78 -343zM1779 1252q17 -46 16 -90q1 -45 -16 -91q0 1 -1 1q-12 -35 -27.5 -63t-44 -57.5t-76 -47t-110.5 -18.5
q-97 0 -163.5 50t-95.5 136v-1q-17 46 -16 91q-1 44 16 90v-1q24 66 75 113t120 64q3 0 7 1t7 1v1q4 1 10.5 1t9.5 1q10 1 30 1t30 -1q3 -1 9.5 -1t10.5 -1v-1q2 0 6.5 -1t7.5 -1q69 -17 119.5 -64t74.5 -113q1 0 1 1zM1479 1056q98 -5 113 61q11 47 -23 95q-32 46 -68 37
q-34 -10 -51 -77q-25 -111 29 -116zM1756 777q22 -6 31 -40.5t4.5 -68t-14.5 -39.5q-6 -3 -130 -1q-107 2 -220 0q-115 -2 -150 -14q-22 6 -27 40.5t3 68t18 39.5q9 2 75 -3q317 -27 410 18z" />
    <glyph glyph-name="trademark" unicode="&#x2122;" horiz-adv-x="1287" 
d="M553 1377q12 -18 18.5 -40.5t3 -43.5t-21.5 -28q-24 -6 -86 17q-68 28 -89 13q-8 -8 -10 -21.5t2 -36t9 -42t15 -51.5q11 -35 23 -102q11 -58 10.5 -95t-16.5 -57q-18 -20 -72 -19t-74 19q-15 18 -20 100q-4 82 -3 149q1 71 -4 98q-5 17 -12 34q-1 1 -2 1q-23 9 -82 -33
q-53 -38 -77 -37q-29 3 -37.5 41.5t3.5 65.5q18 54 95 86.5t163.5 37.5t164 -10t99.5 -46zM998 1423h2q31 -1 56.5 -13.5t43.5 -29.5t31.5 -47t21.5 -53.5t13.5 -61.5t7.5 -60t2 -60v-49.5t-1 -40.5q-1 -12 -1 -24q2 -64 -9 -74q-27 -32 -89 -32q-42 4 -74 27.5t-40 56.5
q-3 18 13 46q11 17 31 69q14 31 19 109q8 104 -28 97q-8 -2 -17 -8q-23 -15 -25 -82q-1 -6 -1.5 -19t-0.5 -20q-4 -77 -13 -110.5t-33 -42.5q-9 -4 -23 -4q-39 0 -75 26q-36 23 -37 47v1v4v1q2 16 3 43l2 48q-1 9 -3 25q-6 66 -30 81q-44 25 -44 -43q0 -65 29 -151l2 -6
q20 -42 37 -66q19 -30 16 -46q-5 -33 -35.5 -58.5t-71.5 -30.5q-5 0 -18.5 -1t-36.5 6t-37 21q-12 12 -14 73q0 2 -0.5 5t-1 9t-0.5 10q-5 34 -7 65t-4 83.5t6 94.5t23.5 84t47.5 67.5t77 30.5h1h1q70 0 110 -71q27 -50 32 -130q0 -3 1.5 -11t3.5 -21.5t4 -23.5q6 11 6 51
q0 60 13 103t31.5 63t37.5 30.5t32 12t13 0.5z" />
    <glyph glyph-name="partialdiff" unicode="&#x2202;" horiz-adv-x="1091" 
d="M32 560q95 122 207 137t219 -29q109 -45 180 -98q75 -57 90 -73q2 24 -6 101q-8 81 -35 168q-28 94 -88 160q-62 69 -168 73q-52 1 -91.5 11t-60.5 27t-34.5 35t-16.5 40t-2.5 35.5t2.5 28.5q10 40 63 45q57 5 111 -2q15 -2 50 -4q79 -2 191 -51q115 -50 219 -157
q105 -105 158 -286q53 -180 7 -440q-31 -151 -140 -216q-107 -65 -239 -74q-133 -9 -236 7q-106 15 -132 25q-110 26 -188 116q-33 43 -52 92q-40 75 -49 166q-9 89 41 163zM415 255q66 -28 145 -8q43 11 72 31.5t37 45t-21.5 52.5t-98.5 50q-41 13 -79.5 19.5t-75 -0.5
t-41.5 -35q-21 -115 62 -155z" />
    <glyph glyph-name="increment" unicode="&#x2206;" horiz-adv-x="1081" 
d="M909 123l-395 1072l-406 -1072h801zM6 0l541 1434l526 -1434h-1067z" />
    <glyph glyph-name="product" unicode="&#x220f;" horiz-adv-x="1515" 
d="M1003 1384h-492q-102 0 -102 -235v-1281q0 -235 102 -235h97v-51h-560v51h96q103 0 103 235v1281q0 235 -103 235h-96v50h1419v-50h-97q-102 0 -102 -235v-1281q0 -235 102 -235h97v-50h-560v50h96q103 0 103 235v1281q0 235 -103 235z" />
    <glyph glyph-name="summation" unicode="&#x2211;" horiz-adv-x="1206" 
d="M421 1384l638 -836l-788 -914h635q130 0 189 182h49l-103 -232h-921v50q62 0 106 53l663 781l-663 859q-43 57 -106 57v50h921l103 -232h-49q-59 182 -189 182h-485z" />
    <glyph glyph-name="minus" unicode="&#x2212;" 
d="M125 840q27 12 49 10.5t68 -13.5q21 -6 104 -23q157 -30 257 -26q101 7 155 26q37 11 56 12t45 -12q49 -38 56 -107q8 -71 -29 -113q-15 -17 -49 -18q-25 -1 -115 7q-5 1 -15.5 1.5t-15.5 0.5q-300 29 -354 18q-36 -7 -57 -13q-74 -20 -128 -5q-75 26 -98 80
q-17 51 5 100q23 51 66 75z" />
    <glyph glyph-name="radical" unicode="&#x221a;" 
d="M982 1619l-801 -1619l-164 359l74 35l85 -185l728 1470h150v-60h-72z" />
    <glyph glyph-name="infinity" unicode="&#x221e;" 
d="M439 755q-15 103 -74 133q-45 22 -84 22q-9 0 -23 -2q-50 -10 -93.5 -45t-64.5 -84q-20 -48 -20 -90v-8q2 -50 28.5 -90t70.5 -57q30 -11 61 -11q16 0 33 3q47 11 90 43q45 35 76 186zM466 687q12 -96 94 -153q69 -48 123 -48q7 0 21 2q64 12 118.5 53t83.5 100
q26 55 26 108v11q-2 61 -36 109t-91 68q-36 13 -76 13q-24 0 -44 -4q-66 -9 -127 -62q-60 -53 -92 -197zM450 827q9 35 21 69q33 86 94 136t129 50q66 0 128 -48q60 -47 95 -135q34 -86 34 -182t-34 -182q-33 -85 -94 -134t-129 -49t-129 49.5t-94 135.5q-11 31 -21 70
q-5 -22 -12 -41q-27 -72 -73.5 -112.5t-99.5 -40.5q-51 0 -100 41q-48 41 -74 113q-25 72 -25 150q0 77 25 149q26 72 73.5 113.5t100.5 41.5t99.5 -40.5t73.5 -111.5q8 -21 12 -42z" />
    <glyph glyph-name="integral" unicode="&#x222b;" horiz-adv-x="665" 
d="M-12 -281q-60 0 -60 29v159h36q2 -44 35 -64q32 -22 63 -22h1q82 0 115 162q33 169 40 316l70 734l8 62q27 239 135 429q108 192 234 192q60 0 60 -29v-159h-36q-2 44 -35 64q-34 22 -63 22q-71 0 -116 -156q-44 -153 -49 -363l-73 -767q-19 -230 -131 -420
q-110 -189 -234 -189z" />
    <glyph glyph-name="approxequal" unicode="&#x2248;" 
d="M838 770q25 -11 28 -64q4 -78 -50 -133q-60 -61 -172 -61q-78 0 -109 15t-49 36q-18 18 -46 34q-19 9 -89 -27q-35 -19 -82 -35q-40 -13 -69 7q-9 8 -12 33t2 55t30.5 59.5t68.5 42.5q24 7 45 16q51 23 113 31t117 -50t106 -42q51 17 93 51q53 40 75 32zM838 502
q25 -11 28 -64q4 -78 -50 -133q-60 -61 -172 -61q-78 0 -109 15t-49 36q-18 17 -46 34q-19 9 -89 -27q-35 -19 -82 -35q-40 -13 -69 7q-9 8 -12 33t2 55t30.5 59.5t68.5 42.5q24 7 45 16q51 23 113 31t117 -50t106 -42q51 17 93 51q53 40 75 32z" />
    <glyph glyph-name="lessequal" unicode="&#x2264;" horiz-adv-x="1143" 
d="M47 946q40 74 168 166q122 88 290 170q163 80 309 117q146 39 223 9q42 -22 51 -78q9 -54 -8 -105q-17 -48 -77 -80q-61 -31 -192 -81q-122 -47 -184 -71.5t-105.5 -43.5t-55 -28t-10.5 -18q4 -25 112 -45q181 -36 361 -116q86 -41 122 -70t39 -60q6 -59 -46 -114
q-54 -57 -126 -79q-48 -14 -90 -1q-41 13 -107 45q-51 26 -168 74q-144 55 -231 78q-69 18 -125 43q-46 22 -85 73l-2 2q-1 2 -3 4q-10 10 -20.5 22.5t-24 35t-21 45t-7.5 51.5t13 55zM125 264q-43 -24 -66 -75q-22 -49 -5 -100q23 -54 98 -80q54 -15 128 5q21 6 57 13
q54 11 354 -18q5 0 15.5 -0.5t15.5 -1.5q90 -8 115 -7q34 1 49 18q37 42 29 113q-7 69 -56 107q-26 13 -45 12t-56 -12q-54 -19 -155 -26q-100 -4 -257 26q-83 17 -104 23q-46 12 -68 13.5t-49 -10.5z" />
    <glyph glyph-name="greaterequal" unicode="&#x2265;" horiz-adv-x="1153" 
d="M1124 946q47 -94 -59 -209l-6 -6q-37 -51 -85 -73q-56 -25 -125 -43q-87 -23 -231 -78q-118 -49 -167 -74q-66 -32 -107 -45q-42 -13 -91 1q-72 22 -126 79q-52 55 -46 114q3 31 39 60t122 70q180 80 361 116q108 20 112 45q1 9 -10.5 18t-55 28t-105.5 43.5t-184 71.5
q-130 50 -192 81q-61 33 -76 80q-16 49 -9 105q9 56 52 78q77 30 222 -9q147 -38 308 -117q165 -80 290 -170q130 -93 169 -166zM125 264q-43 -24 -66 -75q-22 -49 -5 -100q23 -54 98 -80q54 -15 128 5q21 6 57 13q54 11 354 -18q5 0 15.5 -0.5t15.5 -1.5q90 -8 115 -7
q34 1 49 18q37 42 29 113q-7 69 -56 107q-26 13 -45 12t-56 -12q-54 -19 -155 -26q-100 -4 -257 26q-83 17 -104 23q-46 12 -68 13.5t-49 -10.5z" />
    <glyph glyph-name="uniFB01" unicode="&#xf001;" horiz-adv-x="1429" 
d="M721 917q77 -5 100 -53q24 -47 11 -98q-12 -51 -43 -66q-27 -11 -86 1q-45 9 -141 18q-11 -2 -71 -22q-1 0 -2.5 -0.5t-2.5 -1.5q20 -149 51 -241q34 -96 70 -142q21 -28 27.5 -54.5t0.5 -90.5q-10 -80 -85 -141q-75 -60 -167 -67q-15 -2 -43.5 -0.5t-79 21t-76.5 58.5
q-27 34 -20 184q1 8 -1 64q-6 119 -2 318q-47 -6 -63 -8q-76 4 -99 52q-24 49 -11 99q12 51 42 66q24 11 87 -1q21 -4 58 -9q13 137 42 268q28 128 85 228q56 97 152 133t243 -18q61 -24 117 -87q56 -64 68 -136q12 -73 -58 -125q-28 -18 -73.5 -25.5t-83.5 3.5t-40 40v1
q0 32 -11 44t-54 15q-16 2 -25.5 0t-21.5 -16.5t-19 -43.5t-12.5 -84t-6.5 -135q124 40 244 52zM1172 883q38 1 70.5 -4.5t63.5 -20.5t47.5 -41.5t23 -66.5t-9.5 -95q-26 -97 -45 -155q-38 -110 -37 -192q4 -68 31 -131q14 -35 21 -60t5 -56.5t-17 -60.5q-13 -20 -69 -28
q-58 -8 -123 5q-67 12 -117 51q-48 38 -50 111q1 40 25 123q3 11 4.5 15.5t0.5 4.5q40 130 6 333q-19 105 -8 190q9 35 58.5 55.5t119.5 22.5zM1429 1183q23 -71 -18 -143q-41 -71 -151 -87q-95 -10 -173 7q-74 18 -98 82q-24 67 8 134q32 66 161 95q97 18 172 -3
q76 -19 99 -85z" />
    <glyph glyph-name="uniFB01" unicode="&#xfb01;" horiz-adv-x="1429" 
d="M721 917q77 -5 100 -53q24 -47 11 -98q-12 -51 -43 -66q-27 -11 -86 1q-45 9 -141 18q-11 -2 -71 -22q-1 0 -2.5 -0.5t-2.5 -1.5q20 -149 51 -241q34 -96 70 -142q21 -28 27.5 -54.5t0.5 -90.5q-10 -80 -85 -141q-75 -60 -167 -67q-15 -2 -43.5 -0.5t-79 21t-76.5 58.5
q-27 34 -20 184q1 8 -1 64q-6 119 -2 318q-47 -6 -63 -8q-76 4 -99 52q-24 49 -11 99q12 51 42 66q24 11 87 -1q21 -4 58 -9q13 137 42 268q28 128 85 228q56 97 152 133t243 -18q61 -24 117 -87q56 -64 68 -136q12 -73 -58 -125q-28 -18 -73.5 -25.5t-83.5 3.5t-40 40v1
q0 32 -11 44t-54 15q-16 2 -25.5 0t-21.5 -16.5t-19 -43.5t-12.5 -84t-6.5 -135q124 40 244 52zM1172 883q38 1 70.5 -4.5t63.5 -20.5t47.5 -41.5t23 -66.5t-9.5 -95q-26 -97 -45 -155q-38 -110 -37 -192q4 -68 31 -131q14 -35 21 -60t5 -56.5t-17 -60.5q-13 -20 -69 -28
q-58 -8 -123 5q-67 12 -117 51q-48 38 -50 111q1 40 25 123q3 11 4.5 15.5t0.5 4.5q40 130 6 333q-19 105 -8 190q9 35 58.5 55.5t119.5 22.5zM1429 1183q23 -71 -18 -143q-41 -71 -151 -87q-95 -10 -173 7q-74 18 -98 82q-24 67 8 134q32 66 161 95q97 18 172 -3
q76 -19 99 -85z" />
    <glyph glyph-name="uniFB02" unicode="&#xf002;" horiz-adv-x="1434" 
d="M721 917q77 -5 100 -53q24 -47 11 -98q-12 -51 -43 -66q-27 -11 -86 1q-45 9 -141 18q-11 -2 -71 -22q-1 0 -2.5 -0.5t-2.5 -1.5q20 -149 51 -241q34 -96 70 -142q21 -28 27.5 -54.5t0.5 -90.5q-10 -80 -85 -141q-75 -60 -167 -67q-15 -2 -43.5 -0.5t-79 21t-76.5 58.5
q-27 34 -20 184q1 8 -1 64q-6 119 -2 318q-47 -6 -63 -8q-76 4 -99 52q-24 49 -11 99q12 51 42 66q24 11 87 -1q21 -4 58 -9q13 137 42 268q28 128 85 228q56 97 152 133t243 -18q61 -24 117 -87q56 -64 68 -136q12 -73 -58 -125q-28 -18 -73.5 -25.5t-83.5 3.5t-40 40v1
q0 32 -11 44t-54 15q-16 2 -25.5 0t-21.5 -16.5t-19 -43.5t-12.5 -84t-6.5 -135q124 40 244 52zM987 861q-25 133 -45 192q-26 80 -11 128q27 84 106 139q79 56 174 54q51 -8 67 -13q88 -30 119 -96q10 -9 10 -54.5t-17 -145.5q-29 -166 -46 -272q-23 -145 -45 -292
q-18 -118 -20 -149q0 -75 40 -145q34 -57 26 -100q-17 -69 -87 -109q-72 -41 -142 -47q-83 -9 -130 33q-22 18 -31 69q-7 51 3 174q15 145 33 211q20 92 21 169q0 138 -25 254z" />
    <glyph glyph-name="uniFB02" unicode="&#xfb02;" horiz-adv-x="1434" 
d="M721 917q77 -5 100 -53q24 -47 11 -98q-12 -51 -43 -66q-27 -11 -86 1q-45 9 -141 18q-11 -2 -71 -22q-1 0 -2.5 -0.5t-2.5 -1.5q20 -149 51 -241q34 -96 70 -142q21 -28 27.5 -54.5t0.5 -90.5q-10 -80 -85 -141q-75 -60 -167 -67q-15 -2 -43.5 -0.5t-79 21t-76.5 58.5
q-27 34 -20 184q1 8 -1 64q-6 119 -2 318q-47 -6 -63 -8q-76 4 -99 52q-24 49 -11 99q12 51 42 66q24 11 87 -1q21 -4 58 -9q13 137 42 268q28 128 85 228q56 97 152 133t243 -18q61 -24 117 -87q56 -64 68 -136q12 -73 -58 -125q-28 -18 -73.5 -25.5t-83.5 3.5t-40 40v1
q0 32 -11 44t-54 15q-16 2 -25.5 0t-21.5 -16.5t-19 -43.5t-12.5 -84t-6.5 -135q124 40 244 52zM987 861q-25 133 -45 192q-26 80 -11 128q27 84 106 139q79 56 174 54q51 -8 67 -13q88 -30 119 -96q10 -9 10 -54.5t-17 -145.5q-29 -166 -46 -272q-23 -145 -45 -292
q-18 -118 -20 -149q0 -75 40 -145q34 -57 26 -100q-17 -69 -87 -109q-72 -41 -142 -47q-83 -9 -130 33q-22 18 -31 69q-7 51 3 174q15 145 33 211q20 92 21 169q0 138 -25 254z" />
    <glyph glyph-name="uni0009" horiz-adv-x="508" 
 />
    </font>
</defs>
</svg>
